<svg width="18" height="19" viewBox="0 0 18 19" xmlns="http://www.w3.org/2000/svg">
  <g clip-path="url(#clip0)">
    <path d="M1.42405 17.076C1.8759 17.5284 2.4127 17.8872 3.00363 18.1315C3.59455 18.3759 4.22794 18.5011 4.8674 18.5C5.50701 18.5011 6.14054 18.3759 6.73161 18.1315C7.32269 17.8871 7.85967 17.5284 8.31173 17.076L11.0664 14.3204L9.68907 12.9432L6.93439 15.6987C6.38547 16.2451 5.64245 16.5519 4.86789 16.5519C4.09333 16.5519 3.35031 16.2451 2.80139 15.6987C2.25445 15.15 1.94733 14.407 1.94733 13.6323C1.94733 12.8576 2.25445 12.1145 2.80139 11.5659L5.55705 8.81134L4.17971 7.43406L1.42405 10.1886C0.512128 11.1027 0 12.3411 0 13.6323C0 14.9234 0.512128 16.1619 1.42405 17.076ZM16.5768 8.81134C17.4882 7.897 18 6.65865 18 5.36766C18 4.07666 17.4882 2.83832 16.5768 1.92398C15.6626 1.0121 14.4241 0.5 13.1329 0.5C11.8417 0.5 10.6032 1.0121 9.68907 1.92398L6.93439 4.67951L8.31173 6.05678L11.0664 3.30126C11.6153 2.75482 12.3584 2.44804 13.1329 2.44804C13.9075 2.44804 14.6505 2.75482 15.1994 3.30126C15.7464 3.8499 16.0535 4.59298 16.0535 5.36766C16.0535 6.14234 15.7464 6.88542 15.1994 7.43406L12.4438 10.1886L13.8211 11.5659L16.5768 8.81134Z" />
    <path d="M5.42915 14.5L4 13.0717L12.5719 4.5L14 5.92929L5.42915 14.5Z" />
  </g>
  <defs>
    <clipPath id="clip0">
      <rect width="18" height="18" fill="white" transform="translate(0 0.5)"/>
    </clipPath>
  </defs>
</svg>
