<svg width="19" height="18" viewBox="0 0 19 18" xmlns="http://www.w3.org/2000/svg">
<g clip-path="url(#clip0)">
<path d="M9.25 0C4.2874 0 0.25 4.0374 0.25 9C0.25 13.9626 4.2874 18 9.25 18C10.5694 18 11.9149 17.6661 13.2478 17.0064L12.4513 15.3927C11.3677 15.9282 10.2904 16.2 9.25 16.2C5.2801 16.2 2.05 12.9699 2.05 9C2.05 5.0301 5.2801 1.8 9.25 1.8C13.2199 1.8 16.45 5.0301 16.45 9V9.9C16.45 10.5228 16.1683 11.7 15.1 11.7C13.8436 11.7 13.7554 10.0629 13.75 9.9V5.4H11.95V5.4225C11.1753 4.82755 10.2268 4.50345 9.25 4.5C6.7687 4.5 4.75 6.5187 4.75 9C4.75 11.4813 6.7687 13.5 9.25 13.5C10.555 13.5 11.7232 12.9321 12.5458 12.0411C13.0174 12.8421 13.813 13.5 15.1 13.5C17.1457 13.5 18.25 11.6451 18.25 9.9V9C18.25 4.0374 14.2126 0 9.25 0ZM9.25 11.7C7.7614 11.7 6.55 10.4886 6.55 9C6.55 7.5114 7.7614 6.3 9.25 6.3C10.7386 6.3 11.95 7.5114 11.95 9C11.95 10.4886 10.7386 11.7 9.25 11.7Z" />
</g>
<defs>
<clipPath id="clip0">
<rect width="18" height="18" transform="translate(0.25)"/>
</clipPath>
</defs>
</svg>
