<svg width="24" height="24" viewBox="0 0 24 24" xmlns="http://www.w3.org/2000/svg">
  <g clip-path="url(#clip0)">
    <path d="M13 9H11C9.89543 9 9 9.89543 9 11V13C9 14.1045 9.89543 15 11 15H13C14.1045 15 15 14.1046 15 13V11C15 9.89543 14.1046 9 13 9Z"/>
    <path d="M3.99998 0H2C0.895431 0 0 0.89543 0 2V3.99998C0 5.10455 0.89543 5.99998 2 5.99998H3.99998C5.10455 5.99998 5.99998 5.10455 5.99998 3.99998V2C5.99998 0.895431 5.10455 0 3.99998 0Z"/>
    <path d="M13 18H11C9.89543 18 9 18.8954 9 20V22C9 23.1046 9.89543 24 11 24H13C14.1045 24 15 23.1046 15 22V20C15 18.8954 14.1046 18 13 18Z"/>
    <path d="M3.99998 9H2C0.895431 9 0 9.89543 0 11V13C0 14.1045 0.89543 15 2 15H3.99998C5.10455 15 5.99998 14.1046 5.99998 13V11C5.99998 9.89543 5.10455 9 3.99998 9Z"/>
    <path d="M3.99998 18H2C0.895431 18 0 18.8954 0 20V22C0 23.1046 0.89543 24 2 24H3.99998C5.10455 24 5.99998 23.1046 5.99998 22V20C5.99998 18.8954 5.10455 18 3.99998 18Z"/>
    <path d="M22 0H20C18.8954 0 18 0.89543 18 2V3.99998C18 5.10455 18.8954 5.99998 20 5.99998H22C23.1046 5.99998 24 5.10455 24 3.99998V2C24 0.895431 23.1046 0 22 0Z"/>
    <path d="M13 0H11C9.89543 0 9 0.89543 9 2V3.99998C9 5.10455 9.89543 5.99998 11 5.99998H13C14.1045 5.99998 15 5.10455 15 3.99998V2C15 0.895431 14.1046 0 13 0Z"/>
    <path d="M22 9H20C18.8954 9 18 9.89543 18 11V13C18 14.1045 18.8954 15 20 15H22C23.1046 15 24 14.1046 24 13V11C24 9.89543 23.1046 9 22 9Z"/>
    <path d="M22 18H20C18.8954 18 18 18.8954 18 20V22C18 23.1046 18.8954 24 20 24H22C23.1046 24 24 23.1046 24 22V20C24 18.8954 23.1046 18 22 18Z"/>
  </g>
  <defs>
    <clipPath id="clip0">
      <rect width="24" height="24" fill="white"/>
    </clipPath>
  </defs>
</svg>
