<svg width="52" height="48" viewBox="0 0 52 48" fill="none" xmlns="http://www.w3.org/2000/svg">
  <path d="M49.2924 42.4263H47.9538C47.0252 40.2197 47.0248 38.0667 47.9528 35.8712H49.2924C50.7854 35.8712 52 34.6566 52 33.1636C52 31.6706 50.7854 30.4559 49.2924 30.4559H43.9058C44.5914 29.6727 45.0082 28.6486 45.0082 27.5283V19.0447C45.0082 16.5904 43.0116 14.5937 40.5574 14.5937H38.367C38.5528 14.2232 38.658 13.8054 38.658 13.3634C38.658 11.8434 37.4228 10.6066 35.9045 10.6066H35.151C34.4785 8.94436 34.4781 7.32078 35.1499 5.66917H35.9045C37.4228 5.66917 38.658 4.43244 38.658 2.91236C38.658 1.394 37.4228 0.158691 35.9045 0.158691H10.2089C5.80836 0.158691 2.22828 3.73745 2.22828 8.13632C2.22828 10.2637 3.05967 12.2666 4.56909 13.7761C4.86921 14.0762 5.18954 14.3483 5.52571 14.5936H4.93584C3.44287 14.5936 2.22828 15.8082 2.22828 17.3012C2.22828 18.7943 3.44287 20.0089 4.93584 20.0089H6.27545C7.20352 22.2042 7.20322 24.3573 6.27443 26.5638H4.93584C3.44287 26.5638 2.22828 27.7784 2.22828 29.2715C2.22828 29.8427 2.40652 30.3727 2.70959 30.8099C1.1183 31.4889 0 33.0696 0 34.907V43.3906C0 45.845 1.9953 47.8416 4.44783 47.8416H49.2923C50.7853 47.8416 51.9999 46.627 51.9999 45.1339C52 43.6409 50.7854 42.4263 49.2924 42.4263ZM49.2924 31.9793C49.9454 31.9793 50.4766 32.5106 50.4766 33.1636C50.4766 33.8165 49.9454 34.3478 49.2924 34.3478H35.5452C35.1245 34.3478 34.7835 34.6888 34.7835 35.1095C34.7835 35.5302 35.1245 35.8712 35.5452 35.8712H46.3188C46.0211 36.7073 45.8391 37.5466 45.7704 38.387C45.7704 38.387 45.4661 39.8947 46.3204 42.4263H5.6357C5.51627 42.4263 5.41531 42.3253 5.41531 42.2058V36.0917C5.41531 35.9723 5.51627 35.8713 5.6357 35.8713H13.1819L13.1824 38.373C13.1344 39.1219 13.5001 39.4171 13.7246 39.5268C13.9522 39.6381 14.4198 39.7458 14.9952 39.2199C14.9992 39.2163 15.0031 39.2126 15.007 39.209L17.1361 37.1782L19.2653 39.209C19.2691 39.2127 19.2731 39.2164 19.2771 39.2199C19.6139 39.5278 19.9137 39.6187 20.1504 39.6187C20.3195 39.6187 20.4564 39.5723 20.5515 39.5254C20.7763 39.4147 21.1416 39.1182 21.0899 38.371L21.0909 35.8713H31.7947C32.2155 35.8713 32.5565 35.5303 32.5565 35.1096C32.5565 34.6889 32.2155 34.3479 31.7947 34.3479H21.0914L21.0924 31.9794L49.2924 31.9793ZM8.45833 22.5249C8.38967 21.6845 8.20412 20.8452 7.90664 20.0091H39.3727C39.4923 20.0091 39.5932 20.11 39.5932 20.2295V26.3435C39.5932 26.463 39.4923 26.5639 39.3727 26.5639H21.0946L21.0956 24.0481H26.4266C26.8473 24.0481 27.1883 23.7071 27.1883 23.2864C27.1883 22.8657 26.8473 22.5247 26.4266 22.5247L8.45833 22.5249ZM13.18 26.564H7.90491C8.20219 25.7267 8.38805 24.8875 8.45752 24.0482H13.1795L13.18 26.564ZM19.5722 24.0483L19.5667 37.3912L17.6617 35.5742C17.3675 35.2935 16.9046 35.2935 16.6102 35.5742L14.7055 37.391L14.7028 24.0482L19.5722 24.0483ZM3.75172 8.13643C3.75172 4.57757 6.64838 1.68223 10.2089 1.68223H35.9045C36.5828 1.68223 37.1346 2.23412 37.1346 2.91246C37.1346 3.59252 36.5827 4.14583 35.9045 4.14583H21.8626C21.442 4.14583 21.1009 4.48688 21.1009 4.90755C21.1009 5.32822 21.442 5.66927 21.8626 5.66927H33.5268C32.9891 7.30788 32.9898 8.96101 33.5288 10.6067H10.2089C9.55378 10.6067 8.93354 10.3487 8.46533 9.88279C7.99673 9.41175 7.73866 8.79161 7.73866 8.13643C7.73866 6.776 8.8468 5.66927 10.2089 5.66927H18.1121C18.5328 5.66927 18.8739 5.32822 18.8739 4.90755C18.8739 4.48688 18.5328 4.14583 18.1121 4.14583H10.2089C8.00678 4.14583 6.21522 5.93597 6.21522 8.13643C6.21522 9.19704 6.63081 10.1989 7.38806 10.96C8.14653 11.7146 9.14824 12.1302 10.2089 12.1302H23.0567H35.9045C36.5828 12.1302 37.1346 12.6835 37.1346 13.3635C37.1346 14.0419 36.5827 14.5938 35.9045 14.5938H10.2089C8.48849 14.5938 6.86816 13.9209 5.64637 12.699C4.42457 11.4772 3.75172 9.85689 3.75172 8.13643ZM4.93584 18.4856C4.28289 18.4856 3.75172 17.9545 3.75172 17.3014C3.75172 16.6485 4.28289 16.1172 4.93584 16.1172H40.5574C42.1716 16.1172 43.4848 17.4305 43.4848 19.0448V27.5284C43.4848 29.1427 42.1715 30.456 40.5574 30.456H21.093L21.094 28.0876H39.3726C40.3342 28.0876 41.1166 27.3052 41.1166 26.3437V20.2297C41.1166 19.2681 40.3342 18.4858 39.3726 18.4858L4.93584 18.4856ZM4.93584 28.0875H13.1803L13.1808 30.4559H4.93594C4.28299 30.4559 3.75182 29.9246 3.75182 29.2717C3.75172 28.6187 4.28289 28.0875 4.93584 28.0875ZM49.2924 46.3181H4.44783C2.83532 46.3181 1.52344 45.0048 1.52344 43.3906V34.907C1.52344 33.2926 2.83532 31.9793 4.44783 31.9793H13.181L13.1815 34.3478H5.6357C4.67411 34.3478 3.89187 35.1301 3.89187 36.0916V42.2057C3.89187 43.1673 4.67421 43.9496 5.6357 43.9496H49.2924C49.9454 43.9496 50.4766 44.4809 50.4766 45.1338C50.4766 45.7868 49.9454 46.3181 49.2924 46.3181Z" fill="#BED2E3"/>
</svg>
