<svg width="24" height="20" viewBox="0 0 24 20" xmlns="http://www.w3.org/2000/svg">
<path d="M22.4211 16.842H1.57895C0.706919 16.842 0 17.549 0 18.421C0 19.293 0.706918 19.9999 1.57895 19.9999H22.4211C23.2931 19.9999 24 19.293 24 18.421C24 17.549 23.2931 16.842 22.4211 16.842Z"/>
<path d="M22.4211 8.42114H1.57895C0.706919 8.42114 0 9.12806 0 10.0001C0 10.8721 0.706918 11.579 1.57895 11.579H22.4211C23.2931 11.579 24 10.8721 24 10.0001C24 9.12806 23.2931 8.42114 22.4211 8.42114Z"/>
<path d="M22.4211 0H1.57895C0.706919 0 0 0.706919 0 1.57895C0 2.45098 0.706918 3.15789 1.57895 3.15789H22.4211C23.2931 3.15789 24 2.45098 24 1.57895C24 0.706919 23.2931 0 22.4211 0Z"/>
</svg>
