<svg width="18" height="18" viewBox="0 0 18 18" xmlns="http://www.w3.org/2000/svg">
  <path fill-rule="evenodd" clip-rule="evenodd" d="M9 2C5.13401 2 2 5.13401 2 9C2 12.866 5.13401 16 9 16C12.866 16 16 12.866 16 9C16 5.13401 12.866 2 9 2ZM9 0C4.02944 4.03464e-07 -4.03464e-07 4.02944 0 9C4.03464e-07 13.9706 4.02944 18 9 18C13.9706 18 18 13.9706 18 9C18 4.02944 13.9706 -4.03464e-07 9 0Z"/>
  <path fill-rule="evenodd" clip-rule="evenodd" d="M8.00024 4.00001H10.0002V8.58579L12.7073 11.2929L11.2931 12.7071L8.00024 9.41422V4.00001Z"/>
</svg>
