<svg width="50" height="50" viewBox="0 0 50 50" fill="none" xmlns="http://www.w3.org/2000/svg">
  <path d="M25 37.6953C24.4609 37.6953 24.0234 38.1328 24.0234 38.6719C24.0234 39.2109 24.4609 39.6484 25 39.6484C25.5391 39.6484 25.9766 39.2109 25.9766 38.6719C25.9766 38.1328 25.5391 37.6953 25 37.6953Z" fill="#BED2E3"/>
  <path d="M45.8093 5.99316C43.4062 5.02529 40.2817 4.49219 37.0117 4.49219C33.7417 4.49219 30.6173 5.02529 28.2142 5.99316C26.794 6.56514 25.7098 7.26416 25 8.04854C24.2902 7.26416 23.206 6.56523 21.7858 5.99326C19.3827 5.02529 16.2583 4.49219 12.9883 4.49219C9.71826 4.49219 6.59385 5.02529 4.19072 5.99316C1.48828 7.08164 0 8.62949 0 10.3516V33.7891C0 35.5111 1.48828 37.059 4.19072 38.1475C6.42578 39.0477 9.28496 39.5711 12.3047 39.64V39.6484C12.3047 42.9889 17.7625 45.5078 25 45.5078C32.2375 45.5078 37.6953 42.9889 37.6953 39.6484V39.64C40.715 39.5711 43.5742 39.0477 45.8093 38.1475C48.5117 37.059 50 35.5111 50 33.7891V10.3516C50 8.62949 48.5117 7.08164 45.8093 5.99316ZM48.0469 27.9297C48.0469 28.7634 46.9099 29.7392 45.0796 30.4764C43.0986 31.2742 40.4391 31.7569 37.6953 31.8263V27.9297C37.6953 27.9269 37.6951 27.924 37.6951 27.9213C40.7149 27.8524 43.5741 27.329 45.8094 26.4287C46.6866 26.0754 47.435 25.6734 48.047 25.233L48.0469 27.9297ZM24.0234 16.2109C24.0234 17.0446 22.8864 18.0204 21.0562 18.7576C18.9109 19.6217 15.9703 20.1172 12.9883 20.1172C10.0063 20.1172 7.06562 19.6217 4.92041 18.7576C3.09014 18.0204 1.95312 17.0446 1.95312 16.2109V13.5143C2.56514 13.9547 3.31348 14.3566 4.19072 14.71C6.59385 15.6778 9.71826 16.2109 12.9883 16.2109C16.2583 16.2109 19.3827 15.6778 21.7858 14.71C22.6631 14.3566 23.4114 13.9547 24.0234 13.5143V16.2109ZM4.19072 20.5693C6.59385 21.5372 9.71826 22.0703 12.9883 22.0703C16.2583 22.0703 19.3827 21.5372 21.7858 20.5693C22.6631 20.216 23.4114 19.8141 24.0234 19.3736V22.0876C21.4971 22.1731 19.0742 22.5878 17.1146 23.2779C15.149 23.9702 13.7347 24.8934 12.9655 25.9763C9.99131 25.9737 7.06016 25.4788 4.92041 24.617C3.09014 23.8798 1.95312 22.904 1.95312 22.0703V19.3736C2.56514 19.8141 3.31348 20.216 4.19072 20.5693ZM1.95312 25.233C2.56514 25.6734 3.31348 26.0754 4.19072 26.4287C6.42588 27.3289 9.28516 27.8523 12.305 27.9213C12.305 27.9241 12.3048 27.927 12.3048 27.9297V31.8263C9.56094 31.7569 6.90146 31.2742 4.92051 30.4764C3.09014 29.7392 1.95312 28.7634 1.95312 27.9297V25.233ZM14.3611 27.4499C15.0849 25.7656 19.2621 24.0234 25 24.0234C30.7379 24.0234 34.9151 25.7656 35.6381 27.4479C35.7082 27.6121 35.7422 27.7696 35.7422 27.9297C35.7422 28.7883 34.6837 29.742 32.9106 30.4808C30.8134 31.3547 28.004 31.8359 25 31.8359C21.996 31.8359 19.1866 31.3547 17.0894 30.4808C15.3163 29.742 14.2578 28.7883 14.2578 27.9297C14.2578 27.7696 14.2919 27.6121 14.3611 27.4499ZM48.0469 22.0703C48.0469 22.904 46.9099 23.8798 45.0796 24.617C42.9399 25.4788 40.0089 25.9737 37.0348 25.9763C36.2662 24.8939 34.8517 23.9704 32.8854 23.2779C30.9258 22.5877 28.5029 22.1731 25.9766 22.0876V19.3736C26.5886 19.8141 27.3369 20.216 28.2142 20.5693C30.6173 21.5372 33.7417 22.0703 37.0117 22.0703C40.2817 22.0703 43.4062 21.5372 45.8093 20.5693C46.6865 20.216 47.4349 19.8141 48.0469 19.3736V22.0703ZM48.0469 16.2109C48.0469 17.0446 46.9099 18.0204 45.0796 18.7576C42.9344 19.6217 39.9938 20.1172 37.0117 20.1172C34.0297 20.1172 31.0891 19.6217 28.9438 18.7576C27.1136 18.0204 25.9766 17.0446 25.9766 16.2109V13.5143C26.5886 13.9547 27.3369 14.3566 28.2142 14.71C30.6173 15.6778 33.7417 16.2109 37.0117 16.2109C40.2817 16.2109 43.4062 15.6778 45.8093 14.71C46.6865 14.3566 47.4349 13.9547 48.0469 13.5143V16.2109ZM28.9438 7.80488C31.0891 6.94082 34.0297 6.44531 37.0117 6.44531C39.9938 6.44531 42.9344 6.94082 45.0796 7.80488C46.9099 8.54209 48.0469 9.51787 48.0469 10.3516C48.0469 11.1853 46.9099 12.161 45.0796 12.8982C42.9344 13.7623 39.9938 14.2578 37.0117 14.2578C34.0297 14.2578 31.0891 13.7623 28.9438 12.8982C27.1136 12.161 25.9766 11.1853 25.9766 10.3516C25.9766 9.51787 27.1136 8.54209 28.9438 7.80488ZM4.92041 7.80488C7.06562 6.94082 10.0063 6.44531 12.9883 6.44531C15.9703 6.44531 18.9109 6.94082 21.0562 7.80488C22.8864 8.54209 24.0234 9.51787 24.0234 10.3516C24.0234 11.1853 22.8864 12.161 21.0562 12.8982C18.9109 13.7623 15.9703 14.2578 12.9883 14.2578C10.0063 14.2578 7.06562 13.7623 4.92041 12.8982C3.09014 12.161 1.95312 11.1853 1.95312 10.3516C1.95312 9.51787 3.09014 8.54209 4.92041 7.80488ZM4.92041 36.3357C3.09014 35.5985 1.95312 34.6228 1.95312 33.7891V31.0924C2.56514 31.5328 3.31348 31.9348 4.19072 32.2881C6.42578 33.1883 9.28496 33.7117 12.3047 33.7807V37.6857C9.56084 37.6163 6.90137 37.1337 4.92041 36.3357ZM32.9106 42.1995C30.8134 43.0734 28.004 43.5547 25 43.5547C21.996 43.5547 19.1866 43.0734 17.0894 42.1995C15.3163 41.4607 14.2578 40.507 14.2578 39.6484V37.0087C14.479 37.1688 14.7234 37.3278 14.9945 37.4847C16.511 38.3622 18.5744 39.0113 20.9617 39.3617C21.0099 39.3687 21.0575 39.3722 21.1048 39.3722C21.5813 39.3722 21.9984 39.0229 22.0697 38.5373C22.148 38.0037 21.7789 37.5076 21.2454 37.4293C16.7068 36.763 14.2578 35.0565 14.2578 33.7891V31.1406C16.4682 32.758 20.3698 33.7891 25 33.7891C29.6302 33.7891 33.5318 32.758 35.7422 31.1406V33.7891C35.7422 35.0565 33.2932 36.763 28.7546 37.4293C28.221 37.5076 27.8519 38.0037 27.9303 38.5373C28.0016 39.0229 28.4187 39.3722 28.8952 39.3722C28.9424 39.3722 28.9902 39.3687 29.0383 39.3617C31.4255 39.0113 33.4889 38.3623 35.0055 37.4847C35.2765 37.3278 35.521 37.1688 35.7422 37.0087V39.6484C35.7422 40.507 34.6837 41.4607 32.9106 42.1995ZM45.0796 36.3357C43.0986 37.1336 40.4391 37.6163 37.6953 37.6856V33.7806C40.715 33.7116 43.5742 33.1882 45.8093 32.288C46.6865 31.9347 47.4349 31.5327 48.0469 31.0923V33.7891C48.0469 34.6228 46.9099 35.5985 45.0796 36.3357Z" fill="#BED2E3"/>
</svg>
