<svg width="68" height="68" viewBox="0 0 68 68" fill="none" xmlns="http://www.w3.org/2000/svg">
  <rect width="68" height="68" rx="34" fill="#C2E2FF" fill-opacity="0.15"/>
  <path d="M28.375 30.25C28.8925 30.25 29.3125 29.83 29.3125 29.3125C29.3125 28.7925 28.8881 28.375 28.375 28.375C27.8575 28.375 27.4375 28.795 27.4375 29.3125C27.4375 29.8303 27.8575 30.25 28.375 30.25Z" fill="#B4CFE8" fill-opacity="0.6"/>
  <path d="M34 18.0625C34.5178 18.0625 34.9375 17.6428 34.9375 17.125V10.9375C34.9375 10.4197 34.5178 10 34 10C33.4822 10 33.0625 10.4197 33.0625 10.9375V17.125C33.0625 17.6428 33.4822 18.0625 34 18.0625Z" fill="#B4CFE8" fill-opacity="0.6"/>
  <path d="M33.0625 50.875V57.0625C33.0625 57.5803 33.4822 58 34 58C34.5178 58 34.9375 57.5803 34.9375 57.0625V50.875C34.9375 50.3572 34.5178 49.9375 34 49.9375C33.4822 49.9375 33.0625 50.3572 33.0625 50.875Z" fill="#B4CFE8" fill-opacity="0.6"/>
  <path d="M19.5298 22.7302C19.896 23.0964 20.4893 23.0964 20.8558 22.7302C21.2217 22.3644 21.2217 21.7708 20.8558 21.4045L16.8777 17.4268C16.5118 17.0605 15.9182 17.0605 15.552 17.4268C15.1858 17.793 15.1858 18.3866 15.552 18.7524L19.5298 22.7302Z" fill="#B4CFE8" fill-opacity="0.6"/>
  <path d="M47.1458 46.207C46.7795 46.5732 46.7795 47.1668 47.1458 47.533L51.1235 51.5108C51.4894 51.8767 52.083 51.877 52.4492 51.5108C52.8154 51.1446 52.8154 50.551 52.4492 50.1848L48.4714 46.207C48.1052 45.8412 47.512 45.8412 47.1458 46.207Z" fill="#B4CFE8" fill-opacity="0.6"/>
  <path d="M48.4714 22.7302L52.4492 18.7524C52.8154 18.3866 52.8154 17.793 52.4492 17.4268C52.083 17.0605 51.4897 17.0605 51.1235 17.4268L47.1458 21.4045C46.7795 21.7708 46.7795 22.3644 47.1458 22.7302C47.512 23.0964 48.1052 23.0964 48.4714 22.7302Z" fill="#B4CFE8" fill-opacity="0.6"/>
  <path d="M19.5298 46.2073L15.552 50.1851C15.1858 50.5509 15.1858 51.1445 15.552 51.5107C15.9182 51.877 16.5115 51.877 16.8777 51.5107L20.8558 47.533C21.2217 47.1667 21.2217 46.5731 20.8558 46.2073C20.4896 45.8411 19.896 45.8411 19.5298 46.2073Z" fill="#B4CFE8" fill-opacity="0.6"/>
  <path d="M18.422 40.8097C23.3076 44.9413 28.6946 47.125 33.9999 47.125C39.3056 47.125 44.6922 44.9413 49.5778 40.8097C53.2384 37.7141 55.3163 34.6522 55.4027 34.5233C55.6155 34.2069 55.6155 33.7931 55.4027 33.4767C55.3163 33.3481 53.2384 30.2859 49.5778 27.1903C44.6922 23.0587 39.3056 20.875 33.9999 20.875C28.6946 20.875 23.3076 23.0587 18.422 27.1903C14.7617 30.2859 12.6839 33.3478 12.5971 33.4767C12.3843 33.7931 12.3843 34.2069 12.5971 34.5233C12.6839 34.6522 14.7617 37.7141 18.422 40.8097ZM19.6327 28.6222C22.8004 25.9434 27.8644 22.75 33.9999 22.75C40.1167 22.75 45.1675 25.925 48.3275 28.5885C50.9375 30.7887 52.7298 33.016 53.4688 34.0007C52.7356 34.9785 50.9632 37.1824 48.3671 39.3778C45.1994 42.0566 40.1354 45.25 33.9999 45.25C27.8831 45.25 22.8323 42.075 19.6726 39.4115C17.0623 37.2113 15.2697 34.9836 14.5314 33.9996C15.2642 33.0215 17.0367 30.8176 19.6327 28.6222Z" fill="#B4CFE8" fill-opacity="0.6"/>
  <path d="M34 42.4375C38.6813 42.4375 42.4375 38.6381 42.4375 34C42.4375 29.3477 38.6523 25.5625 34 25.5625C33.0149 25.5625 31.9456 25.743 30.9802 26.1191C30.4976 26.3066 30.2584 26.8501 30.4459 27.3328C30.6224 27.7869 31.1154 28.0754 31.7504 27.8334C32.4645 27.566 33.2643 27.4375 34 27.4375C37.6185 27.4375 40.5625 30.3815 40.5625 34C40.5625 37.6079 37.6372 40.5625 34 40.5625C30.3815 40.5625 27.4375 37.6185 27.4375 34C27.4375 33.5624 27.4763 33.2258 27.5459 32.8032C27.6422 32.2946 27.3079 31.8071 26.7992 31.7101C26.292 31.6141 25.7998 31.95 25.7028 32.4583C25.6068 32.9673 25.5625 33.5049 25.5625 34C25.5625 38.6523 29.3477 42.4375 34 42.4375Z" fill="#B4CFE8" fill-opacity="0.6"/>
  <path d="M37.75 34C37.75 31.9324 36.0676 30.25 34 30.25C31.9324 30.25 30.25 31.9324 30.25 34C30.25 36.0676 31.9324 37.75 34 37.75C36.0676 37.75 37.75 36.0676 37.75 34ZM32.125 34C32.125 32.9662 32.9662 32.125 34 32.125C35.0338 32.125 35.875 32.9662 35.875 34C35.875 35.0338 35.0338 35.875 34 35.875C32.9662 35.875 32.125 35.0338 32.125 34Z" fill="#B4CFE8" fill-opacity="0.6"/>
</svg>
