<svg width="18" height="18" viewBox="0 0 18 18" fill="none" xmlns="http://www.w3.org/2000/svg">
<path fill-rule="evenodd" clip-rule="evenodd" d="M14.2801 10.3865V7.58007L15.7819 6.30057L14.8002 4.68041L12.7782 5.34473L11.9756 4.82547C11.7716 4.69344 11.5584 4.57456 11.3374 4.46972L10.4389 4.04345L10.0142 2.00024H7.95242L7.52699 4.04694L6.62408 4.47216C6.40061 4.5774 6.18489 4.69677 5.9783 4.82938L5.15596 5.35723L3.19984 4.66903L2.22125 6.28395L3.71306 7.61347V10.4105L2.2155 11.7066L3.19295 13.3196L5.21491 12.6553L6.01748 13.1745C6.22154 13.3066 6.43474 13.4254 6.65572 13.5303L7.5542 13.9565L7.9789 15.9998H10.0672L10.4926 13.9531L11.3955 13.5278C11.619 13.4226 11.8347 13.3032 12.0413 13.1706L12.8433 12.6558L14.8456 13.3164L15.7788 11.7223L14.2801 10.3865ZM14.724 15.3824L13.1217 14.8537C12.8416 15.0335 12.5496 15.195 12.2476 15.3372L11.91 16.9618C11.8494 17.2586 11.6836 17.5252 11.4415 17.715C11.1994 17.9048 10.8964 18.0056 10.5857 17.9998H7.4604C7.14966 18.0056 6.84672 17.9048 6.60462 17.715C6.36252 17.5252 6.19668 17.2586 6.13613 16.9618L5.79844 15.3372C5.49861 15.195 5.20883 15.0334 4.93104 14.8537L3.32205 15.3824C3.18533 15.4261 3.0422 15.4479 2.89828 15.4468C2.66605 15.4466 2.43797 15.3869 2.23692 15.2737C2.03586 15.1606 1.8689 14.998 1.75279 14.8021L0.190143 12.2234C0.0285129 11.9624 -0.0329026 11.654 0.0167953 11.3531C0.0664931 11.0521 0.22409 10.778 0.461619 10.5795L1.71306 9.4964V8.51004L0.461619 7.39474C0.230615 7.19755 0.0772145 6.9283 0.0276883 6.63309C-0.0218379 6.33789 0.0355919 6.0351 0.190143 5.77659L1.75279 3.19786C1.8689 3.00205 2.03586 2.8394 2.23692 2.72625C2.43797 2.6131 2.66605 2.55341 2.89828 2.55318C3.04076 2.54374 3.18386 2.5568 3.32205 2.59186L4.89793 3.14629C5.178 2.96651 5.46997 2.80499 5.77195 2.66277L6.10964 1.03817C6.17019 0.741366 6.33603 0.474749 6.57814 0.284995C6.82024 0.0952401 7.12317 -0.00556115 7.43392 0.000236876H10.5327C10.8435 -0.00556115 11.1464 0.0952401 11.3885 0.284995C11.6306 0.474749 11.7964 0.741366 11.857 1.03817L12.1947 2.66277C12.4945 2.80503 12.7843 2.96655 13.0621 3.14629L14.6711 2.61765C14.8078 2.57388 14.9509 2.5521 15.0948 2.55318C15.3271 2.55341 15.5551 2.6131 15.7562 2.72625C15.9573 2.8394 16.1242 3.00205 16.2403 3.19786L17.803 5.77659C17.9669 6.03549 18.0316 6.34247 17.9855 6.6433C17.9395 6.94413 17.7857 7.21942 17.5514 7.42053L16.2801 8.50359V9.48996L17.5315 10.6053C17.7625 10.8025 17.9159 11.0717 17.9654 11.3669C18.015 11.6621 17.9575 11.9649 17.803 12.2234L16.2933 14.8021C16.1772 14.998 16.0102 15.1606 15.8092 15.2737C15.6081 15.3869 15.38 15.4466 15.1478 15.4468C15.0039 15.4479 14.8608 15.4261 14.724 15.3824Z" fill="#1D988C"/>
<path fill-rule="evenodd" clip-rule="evenodd" d="M9.01008 9.99985L9.02023 9.99995C9.14925 10.0013 9.27724 9.97681 9.3967 9.92804C9.51615 9.87927 9.62468 9.80715 9.71592 9.71592C9.80715 9.62468 9.87927 9.51615 9.92804 9.3967C9.97681 9.27724 10.0013 9.14925 9.99995 9.02023L9.99985 9.01008V8.99992C9.99985 8.80216 9.9412 8.60883 9.83133 8.4444C9.72146 8.27996 9.56529 8.1518 9.38258 8.07612C9.19987 8.00043 8.99881 7.98063 8.80485 8.01921C8.61088 8.0578 8.43271 8.15303 8.29287 8.29287C8.15303 8.43271 8.0578 8.61088 8.01921 8.80485C7.98063 8.99881 8.00043 9.19987 8.07612 9.38258C8.1518 9.56529 8.27996 9.72146 8.4444 9.83133C8.60883 9.9412 8.80216 9.99985 8.99992 9.99985H9.01008ZM11.9998 8.99992C11.9998 8.4066 11.8239 7.82659 11.4943 7.33326C11.1646 6.83992 10.6961 6.45541 10.1479 6.22836C9.59978 6.0013 8.9966 5.94189 8.41467 6.05764C7.83274 6.1734 7.2982 6.45911 6.87866 6.87866C6.45911 7.2982 6.1734 7.83274 6.05764 8.41467C5.94189 8.9966 6.0013 9.59978 6.22836 10.1479C6.45541 10.6961 6.83992 11.1646 7.33326 11.4943C7.82659 11.8239 8.4066 11.9998 8.99992 11.9998C9.39499 12.0039 9.78689 11.929 10.1527 11.7797C10.5185 11.6303 10.8508 11.4095 11.1301 11.1301C11.4095 10.8508 11.6303 10.5185 11.7797 10.1527C11.929 9.78689 12.0039 9.39499 11.9998 8.99992Z" fill="#1D988C"/>
</svg>
