<svg width="54" height="54" viewBox="0 0 54 54" fill="none" xmlns="http://www.w3.org/2000/svg">
  <g clip-path="url(#clip0)">
    <path d="M22.9089 37.2712C22.0976 36.4288 21.0482 35.8067 19.8475 35.519L15.5082 34.4791L15.5064 34.482L15.5082 34.4791V31.8301H10.2093V34.4877L5.88125 35.5216C3.05121 36.1976 1.05469 38.7271 1.05469 41.6368V48.7265H10.6483L22.9089 37.2712Z"/>
    <path d="M15.622 31.8301V34.5506L12.872 41.1377L10.125 34.56V31.8301H15.622Z"/>
    <path d="M18.77 22.7036V26.3729C18.77 29.6348 16.1255 32.2791 12.8635 32.2791C9.60145 32.2791 6.95703 29.6348 6.95703 26.3729V22.7036H18.77Z"/>
    <path d="M18.77 23.8642V22.4424C18.77 19.1804 16.1255 16.5361 12.8635 16.5361C9.60145 16.5361 6.95703 19.1804 6.95703 22.4424V23.8642H11.0284C13.578 23.8642 16.0799 23.172 18.2669 21.8616"/>
    <path d="M31.0938 37.2712C31.905 36.4288 32.9544 35.8067 34.1551 35.519L38.4944 34.4791L38.4962 34.482L38.4944 34.4791V31.8301H43.7933V34.4877L48.1214 35.5216C50.9514 36.1976 52.9479 38.7271 52.9479 41.6368V48.7265H43.3543L31.0938 37.2712Z"/>
    <path d="M23.3037 37.1675L17.2597 38.6158C13.3207 39.5597 10.543 43.0816 10.543 47.1321V52.9453H43.4355V47.1371C43.4355 43.0844 40.6547 39.5611 36.7127 38.6194L30.6844 37.1793L23.3037 37.1675Z"/>
    <path d="M43.872 31.8301V34.56L41.125 41.1377L38.375 34.5506V31.8301H43.872Z"/>
    <path d="M27.0003 45.6405L30.9353 36.7064C30.6433 36.216 30.4769 35.6452 30.4769 35.0409V34.1821H23.5195V35.041C23.5195 35.6442 23.3537 36.2142 23.0625 36.7041L27.0003 45.6405Z"/>
    <path d="M35.2266 20.1997V25.8759C35.2266 30.4193 31.5434 34.1026 27 34.1026C22.4566 34.1026 18.7734 30.4194 18.7734 25.8759V20.1997H35.2266Z"/>
    <path d="M27.0001 12.1748C22.4566 12.1748 18.7734 15.858 18.7734 20.4014V22.3818H22.7957C25.4694 22.3818 28.0061 21.1979 29.7233 19.1485L35.2266 22.3818V20.4014C35.2268 15.858 31.5436 12.1748 27.0001 12.1748Z"/>
    <path d="M35.2305 22.7031V26.3724C35.2305 29.6343 37.8749 32.2786 41.1369 32.2786C44.399 32.2786 47.0434 29.6343 47.0434 26.3724V22.7031H35.2305Z"/>
    <path d="M35.2305 23.8637V22.4419C35.2305 19.18 37.8749 16.5356 41.1369 16.5356C44.399 16.5356 47.0434 19.18 47.0434 22.4419V23.8637H42.972C40.4224 23.8637 37.9206 23.1715 35.7336 21.8611"/>
    <path d="M26.9727 51.8906C26.6952 51.8906 26.4231 52.0035 26.227 52.1996C26.0308 52.3958 25.918 52.6679 25.918 52.9453C25.918 53.2227 26.0307 53.4948 26.227 53.691C26.4231 53.8871 26.6952 54 26.9727 54C27.25 54 27.5221 53.8871 27.7182 53.691C27.9144 53.4948 28.0273 53.2227 28.0273 52.9453C28.0273 52.6679 27.9145 52.3958 27.7182 52.1996C27.5221 52.0035 27.25 51.8906 26.9727 51.8906Z" fill="#BED2E3"/>
    <path d="M48.3638 34.4961L44.8455 33.6556V32.26C46.7984 31.0257 48.099 28.849 48.099 26.373V22.4425C48.099 18.6041 44.9763 15.4815 41.1379 15.4815C39.0673 15.4815 37.2061 16.3913 35.9298 17.8308C34.8121 13.9598 31.237 11.1206 27.011 11.1206C22.7781 11.1206 19.1981 13.9688 18.0865 17.8493C16.8099 16.3991 14.9419 15.4815 12.8624 15.4815C9.02401 15.4815 5.90129 18.6042 5.90129 22.4425V26.373C5.90129 28.8491 7.20193 31.0258 9.15479 32.26V33.6556L5.63657 34.4961C2.31778 35.2888 0 38.2253 0 41.6371V48.7269C0 49.3094 0.472289 49.7815 1.05469 49.7815H9.48829V52.9456C9.48829 53.5281 9.96057 54.0003 10.543 54.0003H22.1133C22.6957 54.0003 23.168 53.5281 23.168 52.9456C23.168 52.3631 22.6957 51.8909 22.1133 51.8909H17.4049V47.249C17.4049 46.6665 16.9326 46.1943 16.3502 46.1943C15.7678 46.1943 15.2955 46.6665 15.2955 47.249V51.8909H11.5976V47.1324C11.5976 43.5555 14.0269 40.4753 17.5054 39.6418L22.6927 38.3987L26.0303 45.9921C26.1986 46.375 26.5774 46.6223 26.9957 46.6223C27.414 46.6223 27.7929 46.3751 27.9612 45.9922L31.2955 38.4099L36.4677 39.6455C39.9493 40.4771 42.3808 43.5579 42.3808 47.1373V48.3143C42.3269 48.441 42.297 48.5804 42.297 48.7267C42.297 48.8731 42.3269 49.0126 42.3808 49.1392V51.8909H38.7045V47.249C38.7045 46.6665 38.2322 46.1943 37.6498 46.1943C37.0674 46.1943 36.5951 46.6665 36.5951 47.249V51.8909H31.4298C30.8474 51.8909 30.3751 52.3631 30.3751 52.9456C30.3751 53.5281 30.8474 54.0003 31.4298 54.0003H43.4355C44.0179 54.0003 44.4902 53.5281 44.4902 52.9456V49.7815H52.9453C53.5277 49.7815 54 49.3094 54 48.7269V41.6371C54 38.2253 51.6822 35.2888 48.3638 34.4961ZM42.7385 34.545L41.1282 38.4008L39.5396 34.5957C39.5438 34.5574 39.5469 34.5189 39.5469 34.4803C39.5469 34.4705 39.5468 34.4606 39.5465 34.4508V33.1483C40.058 33.2684 40.5902 33.3339 41.1378 33.3339C41.6878 33.3339 42.2225 33.2678 42.736 33.1466V34.4879C42.736 34.5071 42.7374 34.526 42.7385 34.545ZM22.2489 35.3922C21.5868 34.9815 20.8603 34.6775 20.0934 34.4937L16.5629 33.6478V32.2646C17.4409 31.7112 18.1867 30.9674 18.7426 30.0912C19.5378 31.6446 20.7581 32.9455 22.2489 33.8403V35.3922ZM19.8387 25.8765V23.437H22.8064C25.4983 23.437 28.0497 22.3731 29.9347 20.4901L34.1767 22.9823V26.1241C34.0455 29.9643 30.8826 33.0485 27.0109 33.0485C23.056 33.0484 19.8387 29.8311 19.8387 25.8765ZM31.7391 33.8601C33.2391 32.9683 34.468 31.6665 35.2693 30.1097C35.824 30.9778 36.5654 31.715 37.4371 32.2646V33.6478L33.9066 34.4937C33.135 34.6786 32.4044 34.9854 31.739 35.3999L31.7391 33.8601ZM41.1378 31.2245C38.4626 31.2245 36.286 29.0481 36.286 26.373V26.2008C36.2897 26.0932 36.2923 23.365 36.2923 23.365C38.3657 24.3847 40.6516 24.9191 42.9729 24.9191H45.9896V26.3731C45.9895 29.0482 43.813 31.2245 41.1378 31.2245ZM41.1378 17.5909C43.813 17.5909 45.9895 19.7674 45.9895 22.4425V22.7036V22.8096H42.9728C40.6941 22.8096 38.4549 22.2113 36.4814 21.0772C37.0727 19.0646 38.9363 17.5909 41.1378 17.5909ZM19.8387 20.402C19.8387 16.4473 23.0561 13.2301 27.0109 13.2301C30.9655 13.2301 34.1829 16.4474 34.1829 20.402V20.5395L30.2685 18.2397C29.8243 17.9787 29.2567 18.0769 28.9259 18.4717C27.405 20.2866 25.1745 21.3276 22.8065 21.3276H19.8387V20.402ZM8.01046 22.4425C8.01046 19.7672 10.187 17.5909 12.8622 17.5909C15.0637 17.5909 16.9273 19.0646 17.5185 21.0773C15.545 22.2113 13.3059 22.8097 11.0271 22.8097H8.01046V22.7037V22.4425ZM8.01046 24.919H11.0272C13.3509 24.919 15.639 24.3836 17.714 23.3619V26.373C17.714 29.0482 15.5374 31.2245 12.8622 31.2245C10.187 31.2245 8.01046 29.0481 8.01046 26.373V24.919ZM12.8622 33.3339C13.4098 33.3339 13.942 33.2683 14.4535 33.1483V34.4213C14.4524 34.4411 14.4519 34.4609 14.4519 34.4808C14.4519 34.514 14.455 34.547 14.4582 34.58L12.8624 38.4008L11.2607 34.564C11.2625 34.5388 11.264 34.5136 11.264 34.488V33.1467C11.7775 33.2678 12.3122 33.3339 12.8622 33.3339ZM9.48829 47.1324V47.6722H6.32812V42.9863C6.32812 42.4038 5.85584 41.9316 5.27344 41.9316C4.69104 41.9316 4.21875 42.4038 4.21875 42.9863V47.6722H2.10938V41.6371C2.10938 39.2056 3.76123 37.1127 6.12636 36.5477L9.46951 35.749L11.6514 40.9755C10.2868 42.6708 9.48829 44.8197 9.48829 47.1324ZM17.0139 37.5905C16.3911 37.7398 15.7959 37.9474 15.2308 38.2035L16.2581 35.7438L19.6018 36.545C19.8611 36.6071 20.1138 36.6893 20.3584 36.7891L17.0139 37.5905ZM26.996 42.9471L24.3583 36.9462V34.771C25.1991 35.0222 26.0894 35.1578 27.0108 35.1578C27.9199 35.1578 28.7988 35.0257 29.6297 34.7809V36.9579L26.996 42.9471ZM33.6223 36.7971C33.8729 36.6937 34.132 36.6088 34.3982 36.545L37.7338 35.7458L38.7653 38.2165C38.1929 37.9558 37.5895 37.7449 36.9577 37.594L33.6223 36.7971ZM51.8906 47.6722H49.7812V42.9863C49.7812 42.4038 49.309 41.9316 48.7266 41.9316C48.1442 41.9316 47.6719 42.4038 47.6719 42.9863V47.6722H44.4902V47.1374C44.4902 44.8278 43.6943 42.6819 42.3336 40.9881L44.5224 35.7471L47.8736 36.5477C50.2388 37.1127 51.8906 39.2056 51.8906 41.6371V47.6722Z" fill="#BED2E3"/>
    <path d="M23.4609 24.3896C23.1836 24.3896 22.9114 24.5025 22.7153 24.6987C22.5191 24.8948 22.4062 25.167 22.4062 25.4443C22.4062 25.7217 22.519 25.9938 22.7153 26.19C22.9115 26.3862 23.1836 26.499 23.4609 26.499C23.7394 26.499 24.0104 26.3862 24.2065 26.19C24.4037 25.9938 24.5156 25.7217 24.5156 25.4443C24.5156 25.167 24.4037 24.8948 24.2065 24.6987C24.0104 24.5025 23.7383 24.3896 23.4609 24.3896Z" fill="#BED2E3"/>
    <path d="M30.5156 26.499C30.793 26.499 31.0651 26.3862 31.2612 26.19C31.4584 25.9938 31.5703 25.7217 31.5703 25.4443C31.5703 25.167 31.4584 24.8948 31.2612 24.6987C31.0651 24.5025 30.793 24.3896 30.5156 24.3896C30.2382 24.3896 29.9661 24.5025 29.77 24.6987C29.5738 24.8948 29.4609 25.167 29.4609 25.4443C29.4609 25.7217 29.5737 25.9938 29.77 26.19C29.9662 26.3862 30.2382 26.499 30.5156 26.499Z" fill="#BED2E3"/>
    <path d="M29.0288 28.2493C28.6168 27.8375 27.9492 27.8375 27.5372 28.2493C27.2253 28.5612 26.7179 28.5612 26.406 28.2493C25.994 27.8375 25.3264 27.8375 24.9144 28.2493C24.5025 28.6612 24.5025 29.329 24.9144 29.741C25.4816 30.3081 26.2265 30.5917 26.9715 30.5917C27.7166 30.5917 28.4615 30.3082 29.0287 29.741C29.4407 29.329 29.4407 28.6612 29.0288 28.2493Z" fill="#BED2E3"/>
    <path d="M42.8867 7.80469H43.6101C44.1925 7.80469 44.6648 7.3325 44.6648 6.75C44.6648 6.1675 44.1925 5.69531 43.6101 5.69531H42.8867C42.3043 5.69531 41.832 6.1675 41.832 6.75C41.832 7.3325 42.3043 7.80469 42.8867 7.80469Z" fill="#BED2E3"/>
    <path d="M48.0039 7.80469H48.7273C49.3097 7.80469 49.782 7.3325 49.782 6.75C49.782 6.1675 49.3097 5.69531 48.7273 5.69531H48.0039C47.4215 5.69531 46.9492 6.1675 46.9492 6.75C46.9492 7.3325 47.4214 7.80469 48.0039 7.80469Z" fill="#BED2E3"/>
    <path d="M45.8086 10.7249C46.391 10.7249 46.8633 10.2527 46.8633 9.67019V8.94678C46.8633 8.36427 46.391 7.89209 45.8086 7.89209C45.2262 7.89209 44.7539 8.36427 44.7539 8.94678V9.67019C44.7539 10.2527 45.2261 10.7249 45.8086 10.7249Z" fill="#BED2E3"/>
    <path d="M45.8086 5.60817C46.391 5.60817 46.8633 5.13599 46.8633 4.55349V3.83008C46.8633 3.24757 46.391 2.77539 45.8086 2.77539C45.2262 2.77539 44.7539 3.24757 44.7539 3.83008V4.55349C44.7539 5.13599 45.2261 5.60817 45.8086 5.60817Z" fill="#BED2E3"/>
    <path d="M5.21484 7.80469H5.93815C6.52055 7.80469 6.99284 7.3325 6.99284 6.75C6.99284 6.1675 6.52055 5.69531 5.93815 5.69531H5.21484C4.63245 5.69531 4.16016 6.1675 4.16016 6.75C4.16016 7.3325 4.63245 7.80469 5.21484 7.80469Z" fill="#BED2E3"/>
    <path d="M10.332 7.80469H11.0553C11.6377 7.80469 12.11 7.3325 12.11 6.75C12.11 6.1675 11.6377 5.69531 11.0553 5.69531H10.332C9.74963 5.69531 9.27734 6.1675 9.27734 6.75C9.27734 7.3325 9.74953 7.80469 10.332 7.80469Z" fill="#BED2E3"/>
    <path d="M8.13672 10.7249C8.71912 10.7249 9.19141 10.2527 9.19141 9.67019V8.94678C9.19141 8.36427 8.71912 7.89209 8.13672 7.89209C7.55432 7.89209 7.08203 8.36427 7.08203 8.94678V9.67019C7.08203 10.2527 7.55421 10.7249 8.13672 10.7249Z" fill="#BED2E3"/>
    <path d="M8.13672 5.60769C8.71912 5.60769 9.19141 5.1355 9.19141 4.553V3.82959C9.19141 3.24709 8.71912 2.7749 8.13672 2.7749C7.55432 2.7749 7.08203 3.24709 7.08203 3.82959V4.553C7.08203 5.1355 7.55421 5.60769 8.13672 5.60769Z" fill="#BED2E3"/>
    <path d="M27 8.90135C27.5824 8.90135 28.0547 8.42916 28.0547 7.84666V5.07178C28.0547 4.48927 27.5824 4.01709 27 4.01709C26.4176 4.01709 25.9453 4.48927 25.9453 5.07178V7.84666C25.9453 8.42916 26.4176 8.90135 27 8.90135Z" fill="#BED2E3"/>
    <path d="M27 2.10938C27.2774 2.10938 27.5495 1.99652 27.7456 1.80035C27.9418 1.60418 28.0547 1.33207 28.0547 1.05469C28.0547 0.777305 27.9418 0.505195 27.7456 0.309023C27.5495 0.112852 27.2774 0 27 0C26.7226 0 26.4505 0.112852 26.2543 0.309023C26.0581 0.505195 25.9453 0.777305 25.9453 1.05469C25.9453 1.33207 26.0581 1.60418 26.2543 1.80035C26.4506 1.99652 26.7226 2.10938 27 2.10938Z" fill="#BED2E3"/>
    <path d="M21.8134 5.72287C22.0193 5.92885 22.2892 6.03179 22.5591 6.03179C22.829 6.03179 23.0989 5.92885 23.3049 5.72287C23.7168 5.31102 23.7168 4.64319 23.3049 4.23123L21.7615 2.6878C21.3495 2.27594 20.6819 2.27594 20.2698 2.6878C19.858 3.09965 19.858 3.76748 20.2698 4.17944L21.8134 5.72287Z" fill="#BED2E3"/>
    <path d="M31.3907 6.02526C31.6607 6.02526 31.9305 5.92232 32.1365 5.71634L33.7315 4.12134C34.1433 3.70948 34.1433 3.04165 33.7315 2.62969C33.3195 2.21784 32.6519 2.21784 32.2398 2.62969L30.6448 4.2247C30.233 4.63655 30.233 5.30438 30.6448 5.71634C30.8509 5.92232 31.1207 6.02526 31.3907 6.02526Z" fill="#BED2E3"/>
  </g>
  <defs>
    <clipPath id="clip0">
      <rect width="54" height="54" fill="white"/>
    </clipPath>
  </defs>
</svg>
