<svg width="48" height="48" viewBox="0 0 48 48" fill="none" xmlns="http://www.w3.org/2000/svg">
  <path d="M40.78 26.3136C40.776 24.7081 40.3977 23.1302 39.6763 21.6978L41.3332 20.0409C42.5753 18.7988 42.5753 16.7775 41.3332 15.5352C40.7136 14.9156 39.9002 14.6052 39.0863 14.6037C39.0852 13.7544 38.754 12.9561 38.1533 12.3554C37.5334 11.7355 36.7194 11.425 35.905 11.4239C35.9038 10.6095 35.5933 9.79547 34.9734 9.17551C34.373 8.57524 33.5752 8.24403 32.7265 8.24253C32.7249 7.39383 32.3938 6.59603 31.7935 5.99567C31.1918 5.3939 30.3916 5.0625 29.5407 5.0625C28.6897 5.0625 27.8896 5.3939 27.2879 5.99567L24.0015 9.2821L22.1728 7.45336C21.5711 6.85159 20.771 6.52019 19.92 6.52019C19.0689 6.52019 18.2689 6.85159 17.6672 7.45336C17.0665 8.0541 16.7353 8.85236 16.7341 9.70172C15.9203 9.70322 15.1068 10.0136 14.4873 10.6332C13.8869 11.2336 13.5558 12.0313 13.5542 12.8801C12.7055 12.8817 11.9077 13.2128 11.3073 13.8131C10.2815 14.8389 10.1038 16.3956 10.7721 17.6066C10.3118 17.757 9.87897 18.014 9.51373 18.3792C8.27156 19.6215 8.27156 21.6427 9.51373 22.885L10.8407 24.212L0.298002 34.7547C-0.0680841 35.1208 -0.0680841 35.7144 0.298002 36.0806C0.481093 36.2636 0.720994 36.3552 0.960896 36.3552C1.2008 36.3552 1.44079 36.2636 1.62379 36.0806L8.77059 28.9338L15.4654 35.6286L4.74213 46.3519C4.37605 46.718 4.37605 47.3116 4.74213 47.6778C4.92522 47.8608 5.16513 47.9524 5.40503 47.9524C5.64493 47.9524 5.88492 47.8608 6.06792 47.6778L20.5618 33.1839C20.8288 32.917 21.1327 32.7006 21.4616 32.5378L23.7299 34.0319C25.2301 35.02 27.0593 35.4061 28.8228 35.1205L41.4279 47.7256C41.6109 47.9086 41.8508 48.0002 42.0907 48.0002C42.3306 48.0002 42.5706 47.9086 42.7536 47.7256C43.1197 47.3595 43.1197 46.7659 42.7536 46.3997L35.44 39.0861L36.3241 38.2019C36.6902 37.8358 36.6902 37.2422 36.3241 36.876C35.958 36.51 35.3644 36.51 34.9982 36.876L34.1141 37.7602L32.044 35.6901L39.7743 27.9597L41.8445 30.0299L40.9623 30.9121C40.5962 31.2782 40.5962 31.8718 40.9623 32.2379C41.1454 32.4209 41.3853 32.5125 41.6252 32.5125C41.8651 32.5125 42.1051 32.4209 42.2881 32.2379L43.1703 31.3558L46.3994 34.5849C46.5825 34.7679 46.8224 34.8595 47.0623 34.8595C47.3022 34.8595 47.5422 34.7679 47.7252 34.5849C48.0913 34.2188 48.0913 33.6252 47.7252 33.259L40.78 26.3136ZM28.6137 7.32146C28.8613 7.07387 29.1905 6.93746 29.5407 6.93746C29.8908 6.93746 30.2201 7.07387 30.4677 7.32146C30.7153 7.56904 30.8517 7.89829 30.8517 8.24844C30.8517 8.59868 30.7153 8.92792 30.4677 9.17551L28.4075 11.2356C28.0415 11.6017 28.0415 12.1953 28.4075 12.5615C28.7736 12.9277 29.3672 12.9276 29.7334 12.5615L31.7935 10.5014C32.0411 10.2537 32.3704 10.1174 32.7206 10.1174C33.0708 10.1174 33.4 10.2538 33.6476 10.5014C34.1588 11.0126 34.1588 11.8442 33.6476 12.3555L30.5018 15.5013C30.1357 15.8674 30.1357 16.461 30.5018 16.8271C30.6849 17.0102 30.9248 17.1017 31.1647 17.1017C31.4046 17.1017 31.6446 17.0102 31.8276 16.8271L34.9734 13.6813C35.221 13.4336 35.5502 13.2973 35.9004 13.2973C36.2506 13.2973 36.5799 13.4337 36.8274 13.6813C37.075 13.9289 37.2114 14.2582 37.2114 14.6083C37.2114 14.9585 37.075 15.2877 36.8274 15.5353L33.6816 18.6811C33.3155 19.0472 33.3155 19.6408 33.6816 20.007C33.8647 20.1901 34.1046 20.2816 34.3445 20.2816C34.5844 20.2816 34.8244 20.1901 35.0074 20.007L38.1531 16.8612C38.6642 16.35 39.4961 16.3501 40.0072 16.8612C40.5184 17.3724 40.5184 18.2041 40.0072 18.7152L32.2583 26.4641C29.7774 28.9451 26.4788 30.3115 22.97 30.3115C22.0198 30.3115 21.1084 30.5617 20.3095 31.0292L14.8832 25.603C15.3008 25.4453 15.684 25.2 16.0092 24.8749C16.6099 24.2741 16.941 23.4759 16.9422 22.6265C17.7561 22.625 18.5695 22.3145 19.1891 21.6949C19.8087 21.0753 20.1191 20.262 20.1206 19.4481C20.9699 19.4469 21.7683 19.1157 22.3689 18.515C22.9885 17.8954 23.2989 17.082 23.3004 16.2681C24.1498 16.267 24.948 15.9358 25.5487 15.3351C26.1505 14.7334 26.4819 13.9333 26.4819 13.0823C26.4819 12.2312 26.1505 11.4312 25.5487 10.8294L25.327 10.6077L28.6137 7.32146ZM18.993 8.77915C19.2406 8.53156 19.5698 8.39515 19.92 8.39515C20.2701 8.39515 20.5994 8.53156 20.8469 8.77915L24.2232 12.1553C24.4708 12.4029 24.6072 12.7321 24.6072 13.0823C24.6072 13.4324 24.4708 13.7617 24.2232 14.0094C23.9756 14.2569 23.6464 14.3933 23.2962 14.3933C22.9462 14.3933 22.6171 14.257 22.3695 14.0096C22.3694 14.0095 22.3693 14.0095 22.3692 14.0093L18.993 10.6331C18.7454 10.3855 18.609 10.0563 18.609 9.70613C18.609 9.35598 18.7453 9.02683 18.993 8.77915ZM15.813 11.959C16.0687 11.7033 16.4043 11.5757 16.7401 11.5757C17.0758 11.5757 17.4116 11.7034 17.6671 11.959L21.0433 15.3351C21.5545 15.8464 21.5544 16.6781 21.0433 17.1893C20.7957 17.4369 20.4664 17.5733 20.1163 17.5733C19.7662 17.5733 19.4372 17.437 19.1896 17.1896C19.1895 17.1895 19.1894 17.1894 19.1893 17.1892L15.8131 13.813C15.5655 13.5655 15.4291 13.2362 15.4291 12.886C15.429 12.5358 15.5655 12.2067 15.813 11.959ZM12.6332 15.1389C12.8808 14.8912 13.21 14.7549 13.5602 14.7549C13.9104 14.7549 14.2397 14.8913 14.4873 15.1389L17.8634 18.5151C18.3746 19.0263 18.3746 19.858 17.8634 20.3691C17.3522 20.8803 16.5205 20.8803 16.0093 20.3691L12.6331 16.993C12.122 16.4819 12.122 15.65 12.6332 15.1389ZM10.8395 19.705C11.0952 19.4494 11.4309 19.3217 11.7666 19.3217C12.1018 19.3217 12.4373 19.4493 12.6926 19.7042L14.6835 21.695C14.9311 21.9426 15.0675 22.2719 15.0675 22.622C15.0675 22.9721 14.9311 23.3014 14.6835 23.5491C14.4359 23.7968 14.1066 23.9331 13.7564 23.9331C13.4065 23.9331 13.0775 23.7969 12.8299 23.5495L12.8294 23.5491L10.8395 21.5592C10.3284 21.0479 10.3284 20.2161 10.8395 19.705ZM10.0965 27.6079L12.1666 25.5378L18.8615 32.2326L16.7914 34.3027L10.0965 27.6079ZM29.7941 33.4401C29.5632 33.2093 29.2289 33.1147 28.9116 33.1916C27.4928 33.5332 25.98 33.2688 24.7613 32.466L24.2536 32.1315C27.779 31.8349 31.054 30.3203 33.5843 27.7899L38.2629 23.1114C38.6654 24.084 38.8825 25.1236 38.9025 26.1803L30.7184 34.3644L29.7941 33.4401Z" fill="#BED2E3"/>
  <path d="M37.9778 33.8948C37.8034 34.0692 37.7031 34.3101 37.7031 34.5576C37.7031 34.8042 37.8034 35.0461 37.9778 35.2203C38.1522 35.3947 38.3941 35.4951 38.6406 35.4951C38.8881 35.4951 39.1291 35.3948 39.3034 35.2203C39.4778 35.0461 39.5781 34.8042 39.5781 34.5576C39.5781 34.31 39.4778 34.0692 39.3034 33.8948C39.1291 33.7204 38.8872 33.6201 38.6406 33.6201C38.3941 33.6201 38.1522 33.7204 37.9778 33.8948Z" fill="#BED2E3"/>
  <path d="M6.33205 7.65877C6.51514 7.84186 6.75504 7.93336 6.99494 7.93336C7.23484 7.93336 7.47484 7.84186 7.65783 7.65877C8.02392 7.29269 8.02392 6.69907 7.65783 6.33289L3.24501 1.92007C2.87893 1.55399 2.28531 1.55399 1.91913 1.92007C1.55295 2.28616 1.55304 2.87977 1.91913 3.24595L6.33205 7.65877Z" fill="#BED2E3"/>
  <path d="M11.4375 5.11078C11.9553 5.11078 12.375 4.69106 12.375 4.17329V0.937482C12.375 0.419711 11.9553 0 11.4375 0C10.9197 0 10.5 0.419711 10.5 0.937482V4.17329C10.5 4.69106 10.9197 5.11078 11.4375 5.11078Z" fill="#BED2E3"/>
  <path d="M0.937482 12.375H4.17329C4.69106 12.375 5.11078 11.9553 5.11078 11.4375C5.11078 10.9197 4.69106 10.5 4.17329 10.5H0.937482C0.419711 10.5 0 10.9197 0 11.4375C0 11.9553 0.419711 12.375 0.937482 12.375Z" fill="#BED2E3"/>
  <path d="M41.004 7.9334C41.2439 7.9334 41.4839 7.8419 41.6669 7.65881L46.0797 3.24599C46.4458 2.8799 46.4458 2.28629 46.0797 1.92011C45.7136 1.55393 45.12 1.55402 44.7538 1.92011L40.341 6.33293C39.9749 6.69901 39.9749 7.29263 40.341 7.65881C40.5242 7.8419 40.7641 7.9334 41.004 7.9334Z" fill="#BED2E3"/>
  <path d="M36.5625 5.11078C37.0803 5.11078 37.5 4.69106 37.5 4.17329V0.937482C37.5 0.419711 37.0803 0 36.5625 0C36.0447 0 35.625 0.419711 35.625 0.937482V4.17329C35.625 4.69106 36.0447 5.11078 36.5625 5.11078Z" fill="#BED2E3"/>
  <path d="M42.8906 11.4375C42.8906 11.9553 43.3103 12.375 43.8281 12.375H47.0639C47.5817 12.375 48.0014 11.9553 48.0014 11.4375C48.0014 10.9197 47.5817 10.5 47.0639 10.5H43.8281C43.3103 10.5 42.8906 10.9197 42.8906 11.4375Z" fill="#BED2E3"/>
</svg>
