<svg width="50" height="52" viewBox="0 0 50 52" fill="none" xmlns="http://www.w3.org/2000/svg">
  <path d="M49.0234 45.0938H47.0703V5.6875C47.0703 5.12657 46.633 4.67188 46.0938 4.67188H38.8997V1.01562C38.8997 0.454695 38.4624 0 37.9231 0H12.0769C11.5376 0 11.1003 0.454695 11.1003 1.01562V4.67188H3.90625C3.36699 4.67188 2.92969 5.12657 2.92969 5.6875V45.0938H0.976562C0.437207 45.0938 0 45.5484 0 46.1094V50.9844C0 51.5453 0.437207 52 0.976562 52H20.6059C21.1451 52 21.5824 51.5453 21.5824 50.9844C21.5824 50.4234 21.1451 49.9688 20.6059 49.9688H1.95312V47.125H48.0469V49.9688H29.3943C28.8551 49.9688 28.4178 50.4234 28.4178 50.9844C28.4178 51.5453 28.8551 52 29.3943 52H49.0234C49.5627 52 50 51.5453 50 50.9844V46.1094C50 45.5484 49.5627 45.0938 49.0234 45.0938ZM13.0534 2.03125H36.9466V4.67188H25H13.0534V2.03125ZM24.0234 45.0938H18.9453V39C18.9453 35.8737 21.1478 33.2734 24.0234 32.7862V45.0938ZM25.9766 45.0938V32.7862C28.8522 33.2734 31.0547 35.8737 31.0547 39V45.0938H25.9766ZM33.0078 45.0938V39C33.0078 34.4079 29.4155 30.6719 25 30.6719C20.5845 30.6719 16.9922 34.4079 16.9922 39V45.0938H4.88281V6.70312H45.1172V45.0938H33.0078Z" fill="#BED2E3"/>
  <path d="M13.2812 11.1719H8.59375C8.05449 11.1719 7.61719 11.6266 7.61719 12.1875V17.0625C7.61719 17.6234 8.05449 18.0781 8.59375 18.0781H13.2812C13.8206 18.0781 14.2578 17.6234 14.2578 17.0625V12.1875C14.2578 11.6266 13.8206 11.1719 13.2812 11.1719ZM12.3047 16.0469H9.57031V13.2031H12.3047V16.0469Z" fill="#BED2E3"/>
  <path d="M22.6562 11.1719H17.9688C17.4294 11.1719 16.9922 11.6266 16.9922 12.1875V17.0625C16.9922 17.6234 17.4294 18.0781 17.9688 18.0781H22.6562C23.1956 18.0781 23.6328 17.6234 23.6328 17.0625V12.1875C23.6328 11.6266 23.1956 11.1719 22.6562 11.1719ZM21.6797 16.0469H18.9453V13.2031H21.6797V16.0469Z" fill="#BED2E3"/>
  <path d="M32.0312 11.1719H27.3438C26.8045 11.1719 26.3672 11.6266 26.3672 12.1875V17.0625C26.3672 17.6234 26.8045 18.0781 27.3438 18.0781H32.0312C32.5705 18.0781 33.0078 17.6234 33.0078 17.0625V12.1875C33.0078 11.6266 32.5705 11.1719 32.0312 11.1719ZM31.0547 16.0469H28.3203V13.2031H31.0547V16.0469Z" fill="#BED2E3"/>
  <path d="M41.4062 11.1719H36.7188C36.1795 11.1719 35.7422 11.6266 35.7422 12.1875V17.0625C35.7422 17.6234 36.1795 18.0781 36.7188 18.0781H41.4062C41.9455 18.0781 42.3828 17.6234 42.3828 17.0625V12.1875C42.3828 11.6266 41.9455 11.1719 41.4062 11.1719ZM40.4297 16.0469H37.6953V13.2031H40.4297V16.0469Z" fill="#BED2E3"/>
  <path d="M13.2812 20.9219H8.59375C8.05449 20.9219 7.61719 21.3766 7.61719 21.9375V26.8125C7.61719 27.3734 8.05449 27.8281 8.59375 27.8281H13.2812C13.8206 27.8281 14.2578 27.3734 14.2578 26.8125V21.9375C14.2578 21.3766 13.8206 20.9219 13.2812 20.9219ZM12.3047 25.7969H9.57031V22.9531H12.3047V25.7969Z" fill="#BED2E3"/>
  <path d="M22.6562 20.9219H17.9688C17.4294 20.9219 16.9922 21.3766 16.9922 21.9375V26.8125C16.9922 27.3734 17.4294 27.8281 17.9688 27.8281H22.6562C23.1956 27.8281 23.6328 27.3734 23.6328 26.8125V21.9375C23.6328 21.3766 23.1956 20.9219 22.6562 20.9219ZM21.6797 25.7969H18.9453V22.9531H21.6797V25.7969Z" fill="#BED2E3"/>
  <path d="M32.0312 20.9219H27.3438C26.8045 20.9219 26.3672 21.3766 26.3672 21.9375V26.8125C26.3672 27.3734 26.8045 27.8281 27.3438 27.8281H32.0312C32.5705 27.8281 33.0078 27.3734 33.0078 26.8125V21.9375C33.0078 21.3766 32.5705 20.9219 32.0312 20.9219ZM31.0547 25.7969H28.3203V22.9531H31.0547V25.7969Z" fill="#BED2E3"/>
  <path d="M41.4062 20.9219H36.7188C36.1795 20.9219 35.7422 21.3766 35.7422 21.9375V26.8125C35.7422 27.3734 36.1795 27.8281 36.7188 27.8281H41.4062C41.9455 27.8281 42.3828 27.3734 42.3828 26.8125V21.9375C42.3828 21.3766 41.9455 20.9219 41.4062 20.9219ZM40.4297 25.7969H37.6953V22.9531H40.4297V25.7969Z" fill="#BED2E3"/>
  <path d="M13.2812 30.6719H8.59375C8.05449 30.6719 7.61719 31.1266 7.61719 31.6875V36.5625C7.61719 37.1234 8.05449 37.5781 8.59375 37.5781H13.2812C13.8206 37.5781 14.2578 37.1234 14.2578 36.5625V31.6875C14.2578 31.1266 13.8206 30.6719 13.2812 30.6719ZM12.3047 35.5469H9.57031V32.7031H12.3047V35.5469Z" fill="#BED2E3"/>
  <path d="M41.4062 30.6719H36.7188C36.1795 30.6719 35.7422 31.1266 35.7422 31.6875V36.5625C35.7422 37.1234 36.1795 37.5781 36.7188 37.5781H41.4062C41.9455 37.5781 42.3828 37.1234 42.3828 36.5625V31.6875C42.3828 31.1266 41.9455 30.6719 41.4062 30.6719ZM40.4297 35.5469H37.6953V32.7031H40.4297V35.5469Z" fill="#BED2E3"/>
  <path d="M25 49.9688C24.7432 49.9688 24.4912 50.0774 24.3096 50.2663C24.1279 50.4552 24.0234 50.7173 24.0234 50.9844C24.0234 51.2515 24.1278 51.5135 24.3096 51.7024C24.4912 51.8913 24.7432 52 25 52C25.2568 52 25.5088 51.8913 25.6903 51.7024C25.872 51.5135 25.9766 51.2515 25.9766 50.9844C25.9766 50.7173 25.8721 50.4552 25.6903 50.2663C25.5088 50.0774 25.2568 49.9688 25 49.9688Z" fill="#BED2E3"/>
</svg>
