<svg width="23" height="22" viewBox="0 0 23 22" xmlns="http://www.w3.org/2000/svg">
  <path d="M11.4969 7.33177C9.38527 7.33177 7.66201 8.98013 7.66201 11C7.66201 13.0199 9.38527 14.6682 11.4969 14.6682C13.6085 14.6682 15.3318 13.0199 15.3318 11C15.3318 8.98013 13.6085 7.33177 11.4969 7.33177ZM22.9987 11C22.9987 9.48097 23.0131 7.97571 22.9239 6.45943C22.8347 4.69824 22.4147 3.13519 21.0683 1.84732C19.7191 0.556694 18.0879 0.157674 16.2467 0.0723668C14.6586 -0.0129408 13.085 0.000818524 11.4998 0.000818524C9.91174 0.000818524 8.33808 -0.0129408 6.75292 0.0723668C4.91171 0.157674 3.27763 0.559446 1.93125 1.84732C0.581988 3.13794 0.164838 4.69824 0.0756548 6.45943C-0.0135288 7.97846 0.000855714 9.48373 0.000855714 11C0.000855714 12.5163 -0.0135288 14.0243 0.0756548 15.5406C0.164838 17.3018 0.584864 18.8648 1.93125 20.1527C3.28051 21.4433 4.91171 21.8423 6.75292 21.9276C8.34096 22.0129 9.91462 21.9992 11.4998 21.9992C13.0878 21.9992 14.6615 22.0129 16.2467 21.9276C18.0879 21.8423 19.7219 21.4406 21.0683 20.1527C22.4176 18.8621 22.8347 17.3018 22.9239 15.5406C23.016 14.0243 22.9987 12.519 22.9987 11ZM11.4969 16.6441C8.23164 16.6441 5.59641 14.1234 5.59641 11C5.59641 7.87664 8.23164 5.35594 11.4969 5.35594C14.7622 5.35594 17.3974 7.87664 17.3974 11C17.3974 14.1234 14.7622 16.6441 11.4969 16.6441ZM17.6391 6.44292C16.8767 6.44292 16.261 5.85402 16.261 5.12478C16.261 4.39554 16.8767 3.80664 17.6391 3.80664C18.4014 3.80664 19.0171 4.39554 19.0171 5.12478C19.0173 5.29794 18.9818 5.46945 18.9127 5.62947C18.8435 5.78949 18.742 5.93489 18.614 6.05733C18.486 6.17978 18.334 6.27686 18.1667 6.34303C17.9994 6.40919 17.8201 6.44314 17.6391 6.44292Z"/>
</svg>
