<svg width="52" height="52" viewBox="0 0 52 52" fill="none" xmlns="http://www.w3.org/2000/svg">
  <path d="M19.25 3.21875C18.7494 3.21875 18.26 3.36721 17.8437 3.64534C17.4275 3.92348 17.103 4.31881 16.9114 4.78133C16.7198 5.24386 16.6697 5.75281 16.7674 6.24382C16.8651 6.73484 17.1061 7.18586 17.4601 7.53986C17.8141 7.89387 18.2652 8.13494 18.7562 8.23261C19.2472 8.33028 19.7561 8.28015 20.2187 8.08857C20.6812 7.89699 21.0765 7.57255 21.3547 7.15629C21.6328 6.74003 21.7812 6.25063 21.7812 5.75C21.7812 5.07867 21.5146 4.43484 21.0399 3.96014C20.5652 3.48543 19.9213 3.21875 19.25 3.21875ZM19.25 6.59375C19.0831 6.59375 18.92 6.54426 18.7812 6.45155C18.6425 6.35884 18.5343 6.22706 18.4705 6.07289C18.4066 5.91871 18.3899 5.74906 18.4225 5.58539C18.455 5.42172 18.5354 5.27138 18.6534 5.15338C18.7714 5.03538 18.9217 4.95502 19.0854 4.92246C19.2491 4.88991 19.4187 4.90662 19.5729 4.97048C19.7271 5.03434 19.8588 5.14248 19.9516 5.28124C20.0443 5.41999 20.0938 5.58312 20.0938 5.75C20.0938 5.97378 20.0049 6.18839 19.8466 6.34662C19.6884 6.50485 19.4738 6.59375 19.25 6.59375Z" fill="#BED2E3"/>
  <path d="M8.28125 26.8438H11.6562V28.5313H8.28125V26.8438Z" fill="#BED2E3"/>
  <path d="M13.3438 26.8438H26V28.5313H13.3438V26.8438Z" fill="#BED2E3"/>
  <path d="M8.28125 31.9062H11.6562V33.5938H8.28125V31.9062Z" fill="#BED2E3"/>
  <path d="M8.28125 36.9688H11.6562V38.6562H8.28125V36.9688Z" fill="#BED2E3"/>
  <path d="M8.28125 42.0312H11.6562V43.7188H8.28125V42.0312Z" fill="#BED2E3"/>
  <path d="M50.4687 28.5315H49.625C46.8877 28.5246 44.2252 27.6371 42.0312 26.0002L40.0062 24.4815C39.8608 24.3706 39.6829 24.3106 39.5 24.3106C39.3171 24.3106 39.1392 24.3706 38.9937 24.4815L37.8125 25.3674V8.28145C37.8105 7.61074 37.5432 6.96807 37.0689 6.4938C36.5946 6.01953 35.952 5.7522 35.2812 5.7502H28.3794C28.2042 5.25851 27.8819 4.83272 27.4561 4.53077C27.0304 4.22883 26.5219 4.06539 26 4.0627H24.0256C23.6778 3.07384 23.0315 2.21735 22.1761 1.61147C21.3207 1.00558 20.2983 0.680176 19.25 0.680176C18.2017 0.680176 17.1793 1.00558 16.3239 1.61147C15.4685 2.21735 14.8222 3.07384 14.4744 4.0627H12.5C11.9781 4.06539 11.4696 4.22883 11.0439 4.53077C10.6181 4.83272 10.2958 5.25851 10.1206 5.7502H3.21875C2.54804 5.7522 1.90537 6.01953 1.4311 6.4938C0.956831 6.96807 0.689503 7.61074 0.6875 8.28145V48.7815C0.689503 49.4522 0.956831 50.0948 1.4311 50.5691C1.90537 51.0434 2.54804 51.3107 3.21875 51.3127H35.2812C35.6634 51.3102 36.0401 51.2217 36.3833 51.0537C36.7266 50.8858 37.0276 50.6426 37.2641 50.3424L39.1372 51.2283C39.2501 51.2838 39.3742 51.3127 39.5 51.3127C39.6258 51.3127 39.7499 51.2838 39.8628 51.2283L47.2709 47.7099C48.4928 47.0673 49.5154 46.1025 50.2278 44.92C50.9403 43.7375 51.3154 42.3826 51.3125 41.0021V29.3752C51.3125 29.1514 51.2236 28.9368 51.0654 28.7786C50.9071 28.6203 50.6925 28.5315 50.4687 28.5315ZM28.5312 7.4377H35.2812C35.505 7.4377 35.7196 7.5266 35.8779 7.68483C36.0361 7.84306 36.125 8.05768 36.125 8.28145V17.4319V26.5824C35.5852 26.919 35.0211 27.2152 34.4375 27.4683V9.96895C34.4375 9.74517 34.3486 9.53056 34.1904 9.37233C34.0321 9.2141 33.8175 9.1252 33.5937 9.1252H28.5312V7.4377ZM11.6562 6.59395C11.6562 6.37017 11.7451 6.15556 11.9034 5.99733C12.0616 5.8391 12.2762 5.7502 12.5 5.7502H15.1156C15.3106 5.75218 15.5002 5.68573 15.6513 5.5624C15.8023 5.43907 15.9054 5.26667 15.9425 5.0752C16.0974 4.31226 16.5113 3.62633 17.1141 3.13365C17.7169 2.64096 18.4715 2.37182 19.25 2.37182C20.0285 2.37182 20.7831 2.64096 21.3859 3.13365C21.9887 3.62633 22.4026 4.31226 22.5575 5.0752C22.5946 5.26667 22.6977 5.43907 22.8487 5.5624C22.9998 5.68573 23.1894 5.75218 23.3844 5.7502H26C26.2238 5.7502 26.4384 5.8391 26.5966 5.99733C26.7549 6.15556 26.8437 6.37017 26.8437 6.59395V9.96895H11.6562V6.59395ZM10.8125 11.6565H27.6875C27.9113 11.6565 28.1259 11.5676 28.2841 11.4093C28.4424 11.2511 28.5312 11.0365 28.5312 10.8127H32.75V28.059C31.6514 28.3676 30.5161 28.5265 29.375 28.5315H28.5312C28.3075 28.5315 28.0929 28.6203 27.9346 28.7786C27.7764 28.9368 27.6875 29.1514 27.6875 29.3752V31.9065H13.3437V33.5939H27.6875V36.9689H13.3437V38.6564H27.6875V41.0021C27.6887 41.3463 27.7112 41.6901 27.755 42.0315H13.3437V43.719H28.2022C28.5662 44.6612 29.114 45.5217 29.8137 46.2502H5.75V10.8127H9.96875C9.96875 11.0365 10.0576 11.2511 10.2159 11.4093C10.3741 11.5676 10.5887 11.6565 10.8125 11.6565ZM35.2812 49.6252H3.21875C2.99497 49.6252 2.78036 49.5363 2.62213 49.3781C2.46389 49.2198 2.375 49.0052 2.375 48.7815V8.28145C2.375 8.05768 2.46389 7.84306 2.62213 7.68483C2.78036 7.5266 2.99497 7.4377 3.21875 7.4377H9.96875V9.1252H4.90625C4.68247 9.1252 4.46786 9.2141 4.30963 9.37233C4.15139 9.53056 4.0625 9.74517 4.0625 9.96895V47.094C4.0625 47.3177 4.15139 47.5323 4.30963 47.6906C4.46786 47.8488 4.68247 47.9377 4.90625 47.9377H32.21L35.6019 49.5493C35.501 49.5953 35.3921 49.6211 35.2812 49.6252ZM49.625 41.0021C49.6281 42.0697 49.3398 43.118 48.7911 44.0338C48.2425 44.9497 47.4543 45.6985 46.5116 46.1996L39.5 49.5324L32.5053 46.208C31.5594 45.707 30.7681 44.9575 30.2166 44.0401C29.665 43.1228 29.374 42.0724 29.375 41.0021V30.219C32.4776 30.2129 35.4956 29.2069 37.9812 27.3502L39.5 26.2111L41.0187 27.3502C43.5044 29.2069 46.5224 30.2129 49.625 30.219V41.0021Z" fill="#BED2E3"/>
  <path d="M24.3125 16.7188H21.7812V14.1875C21.7812 13.9637 21.6924 13.7491 21.5341 13.5909C21.3759 13.4326 21.1613 13.3438 20.9375 13.3438H17.5625C17.3387 13.3438 17.1241 13.4326 16.9659 13.5909C16.8076 13.7491 16.7188 13.9637 16.7188 14.1875V16.7188H14.1875C13.9637 16.7188 13.7491 16.8076 13.5909 16.9659C13.4326 17.1241 13.3438 17.3387 13.3438 17.5625V20.9375C13.3438 21.1613 13.4326 21.3759 13.5909 21.5341C13.7491 21.6924 13.9637 21.7812 14.1875 21.7812H16.7188V24.3125C16.7188 24.5363 16.8076 24.7509 16.9659 24.9091C17.1241 25.0674 17.3387 25.1562 17.5625 25.1562H20.9375C21.1613 25.1562 21.3759 25.0674 21.5341 24.9091C21.6924 24.7509 21.7812 24.5363 21.7812 24.3125V21.7812H24.3125C24.5363 21.7812 24.7509 21.6924 24.9091 21.5341C25.0674 21.3759 25.1562 21.1613 25.1562 20.9375V17.5625C25.1562 17.3387 25.0674 17.1241 24.9091 16.9659C24.7509 16.8076 24.5363 16.7188 24.3125 16.7188ZM23.4688 20.0938H20.9375C20.7137 20.0938 20.4991 20.1826 20.3409 20.3409C20.1826 20.4991 20.0938 20.7137 20.0938 20.9375V23.4688H18.4062V20.9375C18.4062 20.7137 18.3174 20.4991 18.1591 20.3409C18.0009 20.1826 17.7863 20.0938 17.5625 20.0938H15.0312V18.4062H17.5625C17.7863 18.4062 18.0009 18.3174 18.1591 18.1591C18.3174 18.0009 18.4062 17.7863 18.4062 17.5625V15.0312H20.0938V17.5625C20.0938 17.7863 20.1826 18.0009 20.3409 18.1591C20.4991 18.3174 20.7137 18.4062 20.9375 18.4062H23.4688V20.0938Z" fill="#BED2E3"/>
  <path d="M47.2203 31.7208C44.6035 31.3235 42.1254 30.2859 40.0062 28.7002C39.8608 28.5893 39.6829 28.5293 39.5 28.5293C39.3171 28.5293 39.1392 28.5893 38.9938 28.7002C36.8746 30.2859 34.3965 31.3235 31.7797 31.7208C31.5805 31.7524 31.3991 31.8538 31.2677 32.0068C31.1363 32.1598 31.0636 32.3545 31.0625 32.5561V41.0021C31.0628 41.7551 31.2648 42.4943 31.6477 43.1428C32.0305 43.7912 32.5802 44.3252 33.2394 44.6893L33.29 44.7146L39.1372 47.4905C39.2501 47.546 39.3742 47.5748 39.5 47.5748C39.6258 47.5748 39.7499 47.546 39.8628 47.4905L45.7606 44.6893C46.4191 44.3244 46.9682 43.7902 47.3509 43.1419C47.7336 42.4937 47.9362 41.7549 47.9375 41.0021V32.5561C47.9364 32.3545 47.8637 32.1598 47.7323 32.0068C47.6009 31.8538 47.4195 31.7524 47.2203 31.7208ZM46.25 41.0021C46.2524 41.4459 46.1363 41.8824 45.9139 42.2665C45.6914 42.6507 45.3706 42.9685 44.9844 43.1874L39.5 45.7946L34.0325 43.2043C33.6431 42.9834 33.3192 42.6632 33.0939 42.2763C32.8686 41.8895 32.7499 41.4498 32.75 41.0021V33.2649C35.1734 32.7924 37.472 31.8212 39.5 30.413C41.528 31.8212 43.8266 32.7924 46.25 33.2649V41.0021Z" fill="#BED2E3"/>
  <path d="M35.8767 38.9038L34.6836 40.0969L37.2148 42.6281C37.3731 42.7863 37.5876 42.8752 37.8114 42.8752C38.0351 42.8752 38.2497 42.7863 38.4079 42.6281L45.1579 35.8781L43.9648 34.6851L37.8114 40.8385L35.8767 38.9038Z" fill="#BED2E3"/>
</svg>
