<svg width="12" height="19" viewBox="0 0 12 19" xmlns="http://www.w3.org/2000/svg">
  <path d="M6 0.5C2.68286 0.5 0 3.317 0 6.8C0 11.525 6 18.5 6 18.5C6 18.5 12 11.525 12 6.8C12 3.317 9.31714 0.5 6 0.5ZM1.71429 6.8C1.71429 4.316 3.63429 2.3 6 2.3C8.36571 2.3 10.2857 4.316 10.2857 6.8C10.2857 9.392 7.81714 13.271 6 15.692C4.21714 13.289 1.71429 9.365 1.71429 6.8Z" />
  <path d="M8 6.5C8 7.60457 7.10457 8.5 6 8.5C4.89543 8.5 4 7.60457 4 6.5C4 5.39543 4.89543 4.5 6 4.5C7.10457 4.5 8 5.39543 8 6.5Z"/>
</svg>
