<svg width="44" height="44" viewBox="-10 -10 66 66" fill="none" xmlns="http://www.w3.org/2000/svg">
  <path fill-rule="evenodd" clip-rule="evenodd" d="M2.5 22.5C2.5 11.1052 11.3462 1.66666 22.5 1.66666C28.5046 1.66666 33.8509 4.41262 37.5 8.71984V2.49999H42.5V18.3333H27.2727V13.3333H34.7338C31.9966 9.27019 27.5083 6.66666 22.5 6.66666C14.3243 6.66666 7.5 13.6448 7.5 22.5H2.5ZM42.5 22.5C42.5 33.8948 33.6538 43.3333 22.5 43.3333C16.495 43.3333 11.1493 40.5853 7.5 36.2774V42.5H2.5V26.6667H17.7273V31.6667H10.268C13.0068 35.7296 17.494 38.3333 22.5 38.3333C30.6757 38.3333 37.5 31.3552 37.5 22.5H42.5Z" fill="#B4CFE8" fill-opacity="0.6">
    <animateTransform
      attributeName="transform"
      type="rotate"
      from="0 22 22"
      to="360 22 22"
      dur="1s"
      repeatCount="indefinite"
    />
  </path>
</svg>
