<svg width="50" height="50" viewBox="0 0 50 50" fill="none" xmlns="http://www.w3.org/2000/svg">
  <path d="M47.1082 28.5156H41.7969V26.7578C41.7969 25.1424 40.4826 23.8281 38.8672 23.8281H33.7891C32.1736 23.8281 30.8594 25.1424 30.8594 26.7578V28.5156H28.5156V17.7734C28.5156 15.0811 26.3252 12.8906 23.6328 12.8906H21.0938V2.92969C21.0938 1.31426 19.7795 0 18.1641 0H10.3516C8.73613 0 7.42188 1.31426 7.42188 2.92969V12.8906H4.88281C2.19043 12.8906 0 15.0811 0 17.7734V25.0977C0 25.637 0.437207 26.0742 0.976562 26.0742C1.51592 26.0742 1.95312 25.637 1.95312 25.0977V17.7734C1.95312 16.158 3.26738 14.8438 4.88281 14.8438H23.6328C25.2482 14.8438 26.5625 16.158 26.5625 17.7734V28.5156H25.548C23.9535 28.5156 22.6562 29.8129 22.6562 31.4074V44.1406H4.88281C3.26738 44.1406 1.95312 42.8264 1.95312 41.2109V33.8867C1.95312 33.3474 1.51592 32.9102 0.976562 32.9102C0.437207 32.9102 0 33.3474 0 33.8867V41.2109C0 43.569 1.68018 45.5418 3.90625 45.9955V47.0703C3.90625 48.6857 5.22051 50 6.83594 50C8.45137 50 9.76562 48.6857 9.76562 47.0703V46.0938H18.75V47.0703C18.75 48.6857 20.0643 50 21.6797 50C22.4238 50 23.1036 49.7206 23.6209 49.2619C24.1328 49.7204 24.8083 50 25.548 50H47.1082C48.7027 50 50 48.7027 50 47.1082V31.4074C50 29.8129 48.7027 28.5156 47.1082 28.5156ZM10.3516 1.95312H18.1641C18.7025 1.95312 19.1406 2.39121 19.1406 2.92969V3.90625H14.2578H9.375V2.92969C9.375 2.39121 9.81309 1.95312 10.3516 1.95312ZM9.375 12.8906V5.85938H19.1406V12.8906H9.375ZM48.0469 31.4074V33.1479C46.7439 32.7995 45.7161 31.7718 45.3677 30.4688H47.1082C47.6258 30.4688 48.0469 30.8898 48.0469 31.4074ZM48.0469 43.3693C46.1118 43.7026 44.5051 45.0086 43.75 46.7639V31.7518C44.5051 33.507 46.1118 34.8131 48.0469 35.1463V43.3693ZM24.6094 35.1463C26.5444 34.813 28.1512 33.507 28.9062 31.7518V46.7639C28.1512 45.0086 26.5444 43.7025 24.6094 43.3693V35.1463ZM30.8594 30.4688H41.7969V48.0469H30.8594V30.4688ZM32.8125 26.7578C32.8125 26.2193 33.2506 25.7812 33.7891 25.7812H38.8672C39.4057 25.7812 39.8438 26.2193 39.8438 26.7578V28.5156H32.8125V26.7578ZM25.548 30.4688H27.2886C26.9401 31.7717 25.9124 32.7995 24.6094 33.1479V31.4074C24.6094 30.8898 25.0305 30.4688 25.548 30.4688ZM7.8125 47.0703C7.8125 47.6088 7.37441 48.0469 6.83594 48.0469C6.29746 48.0469 5.85938 47.6088 5.85938 47.0703V46.0938H7.8125V47.0703ZM21.6797 48.0469C21.1412 48.0469 20.7031 47.6088 20.7031 47.0703V46.0938H22.6562V47.0703C22.6562 47.6088 22.2182 48.0469 21.6797 48.0469ZM24.6094 47.1082V47.0703V45.3677C25.9123 45.7161 26.9401 46.7438 27.2886 48.0469H25.548C25.0305 48.0469 24.6094 47.6258 24.6094 47.1082ZM47.1082 48.0469H45.3677C45.7161 46.7439 46.7438 45.7161 48.0469 45.3677V47.1082C48.0469 47.6258 47.6258 48.0469 47.1082 48.0469Z" fill="#BED2E3"/>
  <path d="M9.24473 23.1768C7.05498 23.1768 5.27344 24.9583 5.27344 27.1481C5.27344 29.338 7.05498 31.1195 9.24473 31.1195C11.4346 31.1195 13.2161 29.338 13.2161 27.1481C13.2161 24.9583 11.4346 23.1768 9.24473 23.1768ZM9.24473 29.1664C8.13193 29.1664 7.22656 28.261 7.22656 27.1481C7.22656 26.0353 8.13193 25.1299 9.24473 25.1299C10.3576 25.1299 11.263 26.0353 11.263 27.1481C11.263 28.261 10.3576 29.1664 9.24473 29.1664Z" fill="#BED2E3"/>
  <path d="M14.2551 32.1348C13.5645 32.1348 12.946 32.4919 12.6007 33.0899L9.98945 37.6126C9.64414 38.2106 9.64414 38.9249 9.98945 39.523C10.3348 40.1211 10.9533 40.4782 11.6439 40.4782H16.8663C17.5569 40.4782 18.1755 40.1211 18.5208 39.523C18.8661 38.9249 18.8661 38.2106 18.5208 37.6126L15.9096 33.0899C15.5642 32.4919 14.9457 32.1348 14.2551 32.1348ZM11.7179 38.5252L14.2551 34.1307L16.7923 38.5252H11.7179Z" fill="#BED2E3"/>
  <path d="M22.6237 26.446C23.1631 26.446 23.6003 26.0088 23.6003 25.4694V20.1309C23.6003 19.5915 23.1631 19.1543 22.6237 19.1543H17.2852C16.7458 19.1543 16.3086 19.5915 16.3086 20.1309V25.4694C16.3086 26.0088 16.7458 26.446 17.2852 26.446H22.6237ZM18.2617 21.1075H21.6472V24.493H18.2617V21.1075Z" fill="#BED2E3"/>
  <path d="M0.976562 30.4688C1.2334 30.4688 1.48535 30.3643 1.66699 30.1826C1.84863 30.001 1.95312 29.749 1.95312 29.4922C1.95312 29.2354 1.84863 28.9834 1.66699 28.8018C1.48535 28.6201 1.2334 28.5156 0.976562 28.5156C0.719727 28.5156 0.467773 28.6201 0.286133 28.8018C0.104492 28.9834 0 29.2354 0 29.4922C0 29.749 0.104492 30.001 0.286133 30.1826C0.467773 30.3643 0.719727 30.4688 0.976562 30.4688Z" fill="#BED2E3"/>
</svg>
