<svg width="68" height="68" viewBox="0 0 68 68" fill="none" xmlns="http://www.w3.org/2000/svg">
  <rect width="68" height="68" rx="34" fill="#C2E2FF" fill-opacity="0.15"/>
  <g clip-path="url(#clip0)">
    <path d="M34.0767 27.0483C34.7098 27.0483 35.2225 26.5352 35.2225 25.9025C35.2225 25.2697 34.7098 24.7566 34.0767 24.7566C29.0142 24.7566 24.9102 28.8606 24.9102 33.9235C24.9102 38.9859 29.0142 43.09 34.0767 43.09C39.1395 43.09 43.2435 38.9859 43.2435 33.9235C43.2435 33.2903 42.7305 32.7776 42.0977 32.7776C41.4649 32.7776 40.9518 33.2903 40.9518 33.9235C40.9518 37.7204 37.874 40.7986 34.0767 40.7986C30.2797 40.7986 27.2015 37.7204 27.2015 33.9235C27.2015 30.1262 30.2797 27.0483 34.0767 27.0483Z" fill="#B4CFE8" fill-opacity="0.6"/>
    <path d="M55.9398 27.1173C55.7408 26.5161 55.0922 26.19 54.4907 26.389C53.9032 26.5835 53.5761 27.2089 53.7512 27.8023C57.1779 38.7145 51.11 50.3384 40.1978 53.765C29.286 57.1917 17.6621 51.1238 14.2354 40.2116C10.8084 29.2995 16.8767 17.6756 27.7885 14.2489C31.8279 12.9805 36.1587 12.9805 40.1978 14.2489C40.8042 14.4317 41.444 14.0885 41.6269 13.4821C41.8069 12.8847 41.4767 12.2534 40.8832 12.0604C28.7666 8.25884 15.8621 14.9996 12.0606 27.1166C8.25905 39.2332 15.0001 52.1377 27.1168 55.9392C39.2337 59.7407 52.1379 53 55.9394 40.883C57.3453 36.402 57.3453 31.5982 55.9398 27.1173Z" fill="#B4CFE8" fill-opacity="0.6"/>
    <path d="M36.259 19.1862C36.265 18.5338 35.7639 17.9884 35.1132 17.9396C34.771 17.9105 34.4285 17.8813 34.0772 17.8813C25.2174 17.8813 18.0352 25.0636 18.0352 33.9234C18.0352 42.7828 25.2174 49.965 34.0772 49.965C42.9366 49.965 50.1189 42.7828 50.1189 33.9234C50.1189 33.5089 50.0936 33.0948 50.0427 32.6835C49.9511 32.0546 49.3671 31.619 48.7382 31.7106C48.1093 31.8019 47.6738 32.3862 47.765 33.0151C47.7685 33.039 47.7727 33.0625 47.7776 33.0863C47.8026 33.364 47.8271 33.6391 47.8271 33.9227C47.8275 41.5169 41.6714 47.673 34.0775 47.6737C26.4833 47.674 20.3272 41.5176 20.3269 33.9237C20.3265 26.3298 26.4822 20.1734 34.0765 20.1731H34.0768C34.3611 20.1731 34.6366 20.1976 34.9135 20.2222L35.1283 20.2401C35.727 20.2657 36.2331 19.8011 36.2583 19.2023C36.2587 19.1967 36.2587 19.1915 36.259 19.1862Z" fill="#B4CFE8" fill-opacity="0.6"/>
    <path d="M40.9529 21.319V25.4279L33.2678 33.1131C32.8126 33.5528 32.8 34.2782 33.2397 34.7334C33.6794 35.1886 34.4049 35.2013 34.86 34.7615C34.8695 34.7524 34.879 34.7429 34.8881 34.7334L42.5733 27.0483H46.6822C46.9861 27.0483 47.2774 26.9276 47.4926 26.7124L54.3674 19.8373C54.8148 19.3898 54.8148 18.6644 54.3674 18.2169C54.1526 18.0021 53.8613 17.8814 53.5574 17.8814H50.1198V14.4438C50.1198 13.8111 49.6067 13.298 48.9736 13.2983C48.67 13.2983 48.3787 13.4191 48.1639 13.6339L41.2888 20.509C41.0737 20.7238 40.9529 21.0151 40.9529 21.319ZM43.2446 21.7935L47.8281 17.2101V19.0273C47.8281 19.66 48.3412 20.1731 48.9739 20.1731H50.7912L46.2077 24.7566H43.2446V21.7935Z" fill="#B4CFE8" fill-opacity="0.6"/>
  </g>
  <defs>
    <clipPath id="clip0">
      <rect width="46" height="46" fill="white" transform="translate(11 11)"/>
    </clipPath>
  </defs>
</svg>
