<svg width="68" height="68" viewBox="0 0 68 68" fill="none" xmlns="http://www.w3.org/2000/svg">
  <rect width="68" height="68" rx="34" fill="#C2E2FF" fill-opacity="0.15"/>
  <g clip-path="url(#clip0)">
    <path d="M44.833 54.0001H14.833C14.5397 54.0001 14.2664 53.8451 14.1164 53.5917C13.9664 53.3384 13.9614 53.0251 14.1014 52.7667L29.1014 25.2667C29.393 24.7317 30.273 24.7317 30.5647 25.2667L45.5647 52.7667C45.7047 53.0251 45.6997 53.3384 45.5497 53.5917C45.3997 53.8451 45.1264 54.0001 44.833 54.0001ZM16.2364 52.3334H43.428L29.833 27.4067L16.2364 52.3334Z" fill="#BED2E3"/>
    <path d="M53.1682 53.9998H44.8349C44.3749 53.9998 44.0015 53.6265 44.0015 53.1665C44.0015 52.7065 44.3749 52.3332 44.8349 52.3332H51.7582L44.0499 38.3165L40.8732 44.8898C40.6732 45.3032 40.1782 45.4782 39.7599 45.2765C39.3449 45.0765 39.1715 44.5782 39.3732 44.1632L43.2532 36.1365C43.3899 35.8565 43.6699 35.6748 43.9815 35.6665C44.2949 35.6815 44.5832 35.8248 44.7332 36.0982L53.8999 52.7648C54.0415 53.0232 54.0382 53.3365 53.8865 53.5898C53.7349 53.8448 53.4632 53.9998 53.1682 53.9998Z" fill="#BED2E3"/>
    <path d="M29.8333 26.5C29.3733 26.5 29 26.1267 29 25.6667V14.8333C29 14.3733 29.3733 14 29.8333 14H39.8333C40.17 14 40.475 14.2033 40.6033 14.515C40.7333 14.8267 40.6617 15.185 40.4233 15.4233L37.6783 18.1667L40.4217 20.91C40.66 21.1483 40.7317 21.5067 40.6017 21.8183C40.475 22.13 40.17 22.3333 39.8333 22.3333H30.6667V25.6667C30.6667 26.1267 30.2933 26.5 29.8333 26.5ZM30.6667 20.6667H37.8217L35.9117 18.7567C35.5867 18.4317 35.5867 17.9033 35.9117 17.5783L37.8217 15.6667H30.6667V20.6667Z" fill="#BED2E3"/>
    <path d="M32.3313 39C32.3113 39 32.293 39 32.2713 38.9983C32.0296 38.9816 31.8096 38.86 31.6646 38.6666L29.8313 36.2233L27.998 38.6666C27.853 38.86 27.6313 38.98 27.3913 38.9983C27.1396 39.0183 26.913 38.9283 26.743 38.7566L23.943 35.9566C23.618 35.6316 23.618 35.1033 23.943 34.7783C24.268 34.4533 24.7963 34.4533 25.1213 34.7783L27.2413 36.8983L29.1646 34.3333C29.478 33.9133 30.183 33.9133 30.498 34.3333L32.4213 36.8983L34.5413 34.7783C34.8663 34.4533 35.3946 34.4533 35.7196 34.7783C36.0446 35.1033 36.0446 35.6316 35.7196 35.9566L32.9196 38.7566C32.763 38.9133 32.5513 39 32.3313 39Z" fill="#BED2E3"/>
  </g>
  <defs>
    <clipPath id="clip0">
      <rect width="40" height="40" fill="white" transform="translate(14 14)"/>
    </clipPath>
  </defs>
</svg>
