<svg width="58" height="72" viewBox="0 0 58 72" xmlns="http://www.w3.org/2000/svg">
  <path fill-rule="evenodd" clip-rule="evenodd" d="M6 2C3.79086 2 2 3.79086 2 6V66C2 68.2091 3.79086 70 6 70H51.5C53.7091 70 55.5 68.2091 55.5 66V29H34C30.6863 29 28 26.3137 28 23V2H6ZM30 3.38323L54.0541 27H34C31.7909 27 30 25.2091 30 23V3.38323ZM0 6C0 2.68629 2.68629 0 6 0H29.4088L57.5 27.5804V66C57.5 69.3137 54.8137 72 51.5 72H6C2.68629 72 0 69.3137 0 66V6Z" />
  <path fill-rule="evenodd" clip-rule="evenodd" d="M28.2501 46.8359L34.793 40.293L36.2072 41.7072L29.6643 48.2501L36.2072 54.793L34.793 56.2072L28.2501 49.6643L21.7072 56.2072L20.293 54.793L26.8359 48.2501L20.293 41.7072L21.7072 40.293L28.2501 46.8359Z" />
</svg>
