<svg width="50" height="52" viewBox="0 0 50 52" fill="none" xmlns="http://www.w3.org/2000/svg">
  <path d="M47.5806 37.7419C48.9145 37.7419 50 36.613 50 35.2258C50 33.8386 48.9145 32.7097 47.5806 32.7097H45.1613V34.3871H43.8677L42.9427 28.1337C42.7597 26.8974 41.7548 26 40.5516 26H24.771C23.5677 26 22.5629 26.8974 22.3798 28.1337L21.4548 34.3871H20.1613V32.7097H17.7419C16.4081 32.7097 15.3226 33.8386 15.3226 35.2258C15.3226 36.613 16.4081 37.7419 17.7419 37.7419H20.1613V36.0645H21.2065L21.0597 37.0559C19.5468 38.1101 18.5484 39.9033 18.5484 41.9355V46.9677H20.1613V48.6452C20.1613 49.2591 20.3323 49.8269 20.6097 50.3226H13.7097V23.2054C18.7758 22.0497 22.5806 17.3521 22.5806 11.7419C22.5806 5.2671 17.5161 0 11.2903 0C5.06452 0 0 5.2671 0 11.7419C0 17.3521 3.80484 22.0497 8.87097 23.2054V50.3226H3.22581V52H8.87097H13.7097H46.7742V50.3226H44.7129C44.9903 49.8269 45.1613 49.2591 45.1613 48.6452V46.9677H46.7742V41.9355C46.7742 39.9033 45.7758 38.1101 44.2629 37.0559L44.1161 36.0645H45.1613V37.7419H47.5806ZM18.5484 36.0645H17.7419C17.2976 36.0645 16.9355 35.6879 16.9355 35.2258C16.9355 34.7637 17.2976 34.3871 17.7419 34.3871H18.5484V36.0645ZM1.6129 11.7419C1.6129 6.19219 5.95403 1.67742 11.2903 1.67742C16.6266 1.67742 20.9677 6.19219 20.9677 11.7419C20.9677 17.2917 16.6266 21.8064 11.2903 21.8064C5.95403 21.8064 1.6129 17.2917 1.6129 11.7419ZM11.2903 23.4839C11.5629 23.4839 11.829 23.4612 12.0968 23.4411V25.1613H10.4839V23.4411C10.7516 23.4612 11.0177 23.4839 11.2903 23.4839ZM10.4839 50.3226V26.8387H12.0968V50.3226H10.4839ZM45.0798 41.0968H37.7548C37.421 40.123 36.5339 39.4194 35.4839 39.4194H29.8387C28.7887 39.4194 27.9016 40.123 27.5677 41.0968H20.2427C20.6177 39.1854 22.246 37.7419 24.1936 37.7419H41.129C43.0758 37.7419 44.7048 39.1854 45.0798 41.0968ZM20.1613 45.2903V42.7742H27.4194V45.2903H20.1613ZM26.6129 46.9677H38.7097V48.6452C38.7097 49.2591 38.8806 49.8269 39.1581 50.3226H26.1645C26.4419 49.8269 26.6129 49.2591 26.6129 48.6452V46.9677ZM29.0323 45.2903V41.9355C29.0323 41.4734 29.3944 41.0968 29.8387 41.0968H35.4839C35.9282 41.0968 36.2903 41.4734 36.2903 41.9355V45.2903H29.0323ZM21.7742 48.6452V46.9677H25V48.6452C25 49.5703 24.2766 50.3226 23.3871 50.3226C22.4976 50.3226 21.7742 49.5703 21.7742 48.6452ZM43.5484 48.6452C43.5484 49.5703 42.825 50.3226 41.9355 50.3226C41.046 50.3226 40.3226 49.5703 40.3226 48.6452V46.9677H43.5484V48.6452ZM37.9032 45.2903V42.7742H45.1613V45.2903H37.9032ZM41.129 36.0645H24.1936C23.7161 36.0645 23.254 36.1333 22.8105 36.2499L23.9734 28.3878C24.0347 27.976 24.3702 27.6774 24.771 27.6774H40.5516C40.9524 27.6774 41.2879 27.976 41.3484 28.3886L42.5113 36.2507C42.0686 36.1333 41.6065 36.0645 41.129 36.0645ZM46.7742 34.3871H47.5806C48.025 34.3871 48.3871 34.7637 48.3871 35.2258C48.3871 35.6879 48.025 36.0645 47.5806 36.0645H46.7742V34.3871Z" fill="#BED2E3"/>
  <path d="M16.129 9.22569C16.129 7.37549 14.6822 5.87085 12.9032 5.87085H8.06445V16.7741H9.67736V12.5805H12.9032C14.6822 12.5805 16.129 11.0759 16.129 9.22569ZM9.67736 7.54827H12.9032C13.7927 7.54827 14.5161 8.30059 14.5161 9.22569C14.5161 10.1508 13.7927 10.9031 12.9032 10.9031H9.67736V7.54827Z" fill="#BED2E3"/>
  <path d="M36.2905 32.7096H25.8066V34.387H36.2905V32.7096Z" fill="#BED2E3"/>
  <path d="M39.5152 32.7096H37.9023V34.387H39.5152V32.7096Z" fill="#BED2E3"/>
  <path d="M50.0016 50.3225H48.3887V51.9999H50.0016V50.3225Z" fill="#BED2E3"/>
  <path d="M1.6129 50.3225H0V51.9999H1.6129V50.3225Z" fill="#BED2E3"/>
</svg>
