<svg width="52" height="52" viewBox="0 0 52 52" fill="none" xmlns="http://www.w3.org/2000/svg">
  <g clip-path="url(#clip0)">
    <path d="M16.5312 41.0162C16.4652 41.0162 16.3982 41.0091 16.3332 40.9959C16.2682 40.9837 16.2042 40.9634 16.1423 40.938C16.0813 40.9126 16.0224 40.8811 15.9676 40.8445C15.9117 40.8079 15.8599 40.7652 15.8132 40.7185C15.7665 40.6718 15.7238 40.62 15.6873 40.5641C15.6497 40.5093 15.6192 40.4504 15.5938 40.3884C15.5684 40.3275 15.5481 40.2635 15.5359 40.1985C15.5227 40.1335 15.5156 40.0665 15.5156 40.0005C15.5156 39.9345 15.5227 39.8674 15.5359 39.8024C15.5481 39.7374 15.5684 39.6734 15.5938 39.6115C15.6192 39.5505 15.6497 39.4916 15.6873 39.4368C15.7238 39.3809 15.7665 39.3291 15.8132 39.2824C15.8599 39.2357 15.9117 39.193 15.9676 39.1565C16.0224 39.1199 16.0813 39.0884 16.1423 39.063C16.2042 39.0377 16.2682 39.0173 16.3332 39.0052C16.4632 38.9787 16.5983 38.9787 16.7293 39.0052C16.7943 39.0173 16.8583 39.0377 16.9192 39.063C16.9812 39.0884 17.0401 39.1199 17.0949 39.1565C17.1508 39.193 17.2026 39.2357 17.2493 39.2824C17.296 39.3291 17.3387 39.3809 17.3752 39.4368C17.4118 39.4916 17.4433 39.5505 17.4687 39.6115C17.4941 39.6734 17.5134 39.7374 17.5266 39.8024C17.5398 39.8674 17.5469 39.9345 17.5469 40.0005C17.5469 40.0665 17.5398 40.1335 17.5266 40.1985C17.5134 40.2635 17.4941 40.3275 17.4687 40.3884C17.4433 40.4504 17.4118 40.5093 17.3752 40.5641C17.3387 40.62 17.296 40.6718 17.2493 40.7185C17.2026 40.7652 17.1508 40.8079 17.0949 40.8445C17.0401 40.881 16.9812 40.9126 16.9192 40.938C16.8583 40.9634 16.7943 40.9837 16.7293 40.9959C16.6643 41.0091 16.5973 41.0162 16.5312 41.0162Z" fill="#BED2E3"/>
    <path d="M46.718 40.1155C46.7141 40.1053 46.71 40.0953 46.7057 40.0853C45.771 37.898 43.5786 37.0895 40.9841 37.9756L33.9085 39.9324C33.4994 38.6935 32.479 37.6393 31.0362 37.1038C31.0272 37.1006 31.0183 37.0973 31.0093 37.0943L23.2315 34.4545C22.5841 33.6177 20.5564 31.4766 16.7596 31.4766C14.1063 31.4766 11.7591 33.2968 10.4163 35.2808H1.01562C0.454695 35.2808 0 35.7355 0 36.2964V49.1011C0 49.662 0.454695 50.1167 1.01562 50.1167H7.05423C7.61516 50.1167 8.06985 49.662 8.06985 49.1011V48.2242H10.9017C11.4626 48.2242 11.9173 47.7695 11.9173 47.2086V46.9163C13.5681 47.0603 14.1111 47.3734 15.6272 48.2477C16.7932 48.92 18.5554 49.9362 21.7288 51.363C21.7435 51.3696 21.7584 51.3759 21.7734 51.3818C22.3824 51.6214 23.5731 51.9978 25.0409 51.9978C26.0627 51.9978 27.219 51.8153 28.4058 51.2773L44.0455 45.6775C44.0733 45.6676 44.1008 45.6564 44.1276 45.644C45.6223 44.9563 47.8497 43.0182 46.718 40.1155ZM6.0386 48.0854H2.03125V37.3119H6.0386V48.0854ZM9.88609 46.1929H8.06985V37.3119H9.88609V46.1929ZM43.316 43.7811L27.6833 49.3783C27.6696 49.3832 27.651 49.3905 27.6375 49.3959C27.6238 49.4015 27.6101 49.4074 27.5966 49.4136C25.4194 50.4142 23.3498 49.8152 22.5387 49.4998C19.4734 48.1205 17.8373 47.1771 16.6419 46.4878C14.98 45.5295 14.1791 45.0676 11.9173 44.8808V36.7007C12.8801 35.1229 14.747 33.5077 16.7597 33.5077C20.2114 33.5077 21.674 35.7528 21.7315 35.8433C21.8555 36.045 22.0462 36.1971 22.2703 36.2732L30.342 39.0127C31.6311 39.4965 32.3124 40.6005 31.9993 41.7015C31.8548 42.2099 31.5208 42.6316 31.0591 42.8888C30.6014 43.1439 30.0723 43.2069 29.5679 43.0674L20.4686 40.1838C19.9336 40.0143 19.363 40.3105 19.1936 40.8452C19.0241 41.3799 19.3202 41.9507 19.855 42.1202L28.9701 45.0087C28.9797 45.0118 28.9894 45.0147 28.9991 45.0175C29.363 45.121 29.7335 45.1722 30.1018 45.1722C30.776 45.1722 31.4427 45.0004 32.0478 44.6632C32.9835 44.1419 33.6601 43.2874 33.9531 42.257C33.9764 42.1748 33.9971 42.0925 34.0151 42.0102L41.6407 39.8977C42.7421 39.5215 44.1878 39.3859 44.8315 40.8685C45.4978 42.6089 43.7661 43.5664 43.316 43.7811Z" fill="#BED2E3"/>
    <path d="M35.4688 14.5732C35.4027 14.5732 35.3357 14.5661 35.2707 14.5529C35.2057 14.5397 35.1417 14.5204 35.0808 14.495C35.0188 14.4696 34.9599 14.4381 34.9051 14.4016C34.8492 14.365 34.7974 14.3224 34.7507 14.2756C34.704 14.2289 34.6613 14.1771 34.6248 14.1213C34.5882 14.0664 34.5567 14.0075 34.5313 13.9456C34.5059 13.8846 34.4856 13.8206 34.4734 13.7556C34.4602 13.6906 34.4531 13.6236 34.4531 13.5576C34.4531 13.4916 34.4602 13.4246 34.4734 13.3596C34.4856 13.2946 34.5059 13.2306 34.5313 13.1686C34.5567 13.1077 34.5882 13.0488 34.6248 12.9939C34.6613 12.9381 34.704 12.8863 34.7507 12.8396C34.7974 12.7928 34.8492 12.7502 34.9051 12.7136C34.9599 12.6771 35.0188 12.6456 35.0808 12.6202C35.1417 12.5948 35.2057 12.5745 35.2707 12.5623C35.4017 12.5359 35.5368 12.5359 35.6678 12.5623C35.7318 12.5745 35.7958 12.5948 35.8577 12.6202C35.9187 12.6456 35.9776 12.6771 36.0324 12.7136C36.0883 12.7502 36.1401 12.7928 36.1868 12.8396C36.2335 12.8863 36.2762 12.9381 36.3127 12.9939C36.3503 13.0488 36.3808 13.1077 36.4062 13.1686C36.4326 13.2306 36.4519 13.2946 36.4651 13.3596C36.4783 13.4246 36.4844 13.4916 36.4844 13.5576C36.4844 13.6236 36.4783 13.6906 36.4651 13.7556C36.4519 13.8206 36.4326 13.8846 36.4062 13.9456C36.3808 14.0075 36.3503 14.0664 36.3127 14.1213C36.2762 14.1771 36.2335 14.2289 36.1868 14.2756C36.1401 14.3224 36.0883 14.365 36.0324 14.4016C35.9776 14.4381 35.9187 14.4696 35.8577 14.495C35.7958 14.5204 35.7318 14.5397 35.6678 14.5529C35.6018 14.5661 35.5348 14.5732 35.4688 14.5732Z" fill="#BED2E3"/>
    <path d="M50.9845 3.44213H44.9459C44.385 3.44213 43.9303 3.89683 43.9303 4.45776V5.33465H41.0984C40.5375 5.33465 40.0828 5.78935 40.0828 6.35028V6.64257C38.432 6.49846 37.8891 6.18544 36.373 5.31119C35.2071 4.63885 33.4449 3.62271 30.2714 2.19586C30.2566 2.18916 30.2418 2.18296 30.2267 2.17707C29.1937 1.77062 26.4863 0.970916 23.5948 2.28138L19.5079 3.74469L16.063 0.299893C15.6664 -0.096709 15.0233 -0.096709 14.6267 0.299893L3.31689 11.6096C2.95106 11.9755 2.88088 12.61 3.31689 13.046L22.6429 32.372C22.9522 32.6814 23.6763 32.7749 24.0793 32.372L34.4047 22.0468C34.6731 22.0699 34.9517 22.0824 35.2404 22.0824C37.8938 22.0824 40.241 20.2622 41.5837 18.2783H50.9845C51.5455 18.2783 52.0002 17.8236 52.0002 17.2627V4.45776C52.0002 3.89683 51.5455 3.44213 50.9845 3.44213ZM17.9208 12.8612C18.1082 14.4214 19.2316 15.8121 20.964 16.455C20.9729 16.4583 20.9819 16.4615 20.9909 16.4646L23.0217 17.1539C22.8684 17.846 22.5213 18.4824 22.0105 18.9934C20.5451 20.4585 18.1609 20.4587 16.6957 18.9934C15.2304 17.5281 15.2304 15.144 16.6957 13.6786C17.0492 13.325 17.4663 13.0486 17.9208 12.8612ZM19.9523 8.89553C19.2243 9.30117 18.6531 9.90862 18.2975 10.6435C17.1518 10.8557 16.0912 11.4103 15.2592 12.2422C13.002 14.4995 13.002 18.1724 15.2593 20.4297C16.3879 21.5582 17.8704 22.1226 19.353 22.1226C20.8355 22.1226 22.3181 21.5583 23.4468 20.4297C24.1811 19.6954 24.6955 18.7929 24.9532 17.8094L28.3823 18.9732C27.9963 20.7615 28.3917 22.6428 29.4582 24.1206L27.1388 26.4399C24.8944 24.8119 21.8279 24.8119 19.5835 26.4399L9.24946 16.1058C10.0426 15.015 10.4707 13.7047 10.4707 12.3277C10.4707 10.9507 10.0427 9.64049 9.24946 8.54971L11.5668 6.23246C12.6576 7.02556 13.9677 7.45375 15.3448 7.45375C16.7219 7.45375 18.0321 7.02556 19.1229 6.23246L21.3196 8.42916C20.8456 8.49914 20.3833 8.65534 19.9523 8.89553ZM30.9216 22.657C30.5295 22.0182 30.3077 21.2891 30.2727 20.545C30.7592 20.8967 31.3537 21.2413 32.0639 21.5148L30.9216 22.657ZM15.3447 2.45434L17.6595 4.76915C16.9715 5.1947 16.1759 5.4224 15.3447 5.4224C14.5134 5.4224 13.718 5.1948 13.0299 4.76915L15.3447 2.45434ZM7.78625 10.0129C8.21179 10.701 8.4395 11.4965 8.4395 12.3277C8.4395 13.1589 8.2119 13.9545 7.78625 14.6427L5.47143 12.3277L7.78625 10.0129ZM23.3612 30.2175L21.0468 27.9031C22.4598 27.031 24.2623 27.031 25.6755 27.9031L23.3612 30.2175ZM35.2404 20.051C34.8638 20.051 34.5109 20.0241 34.1809 19.9764C34.1796 19.9762 34.1783 19.976 34.177 19.9758C31.9836 19.6572 30.8038 18.4106 30.4149 17.917C30.3942 17.8866 30.3059 17.7711 30.2928 17.7519C30.1745 17.5404 29.9805 17.3704 29.7331 17.2864L21.6581 14.5458C20.3694 14.0621 19.6883 12.9586 20.0005 11.8581L20.0011 11.856L20.0018 11.8534C20.1469 11.3466 20.4802 10.9263 20.9409 10.6696C21.3986 10.4146 21.9276 10.3513 22.4322 10.4912L31.5315 13.3746C32.0663 13.5444 32.6371 13.248 32.8065 12.7133C32.9759 12.1785 32.6798 11.6078 32.1451 11.4383L24.9083 9.14497L24.8451 9.0818L24.8432 9.07987L21.0965 5.33323L24.3169 4.18009C24.3277 4.17613 24.3411 4.17115 24.3519 4.16678C24.3546 4.16567 24.3599 4.16363 24.3626 4.16252C24.3764 4.15693 24.39 4.15104 24.4035 4.14485C26.5806 3.14425 28.65 3.74317 29.4612 4.05862C32.5267 5.43794 34.1628 6.38135 35.3582 7.07066C37.0202 8.0291 37.821 8.49091 40.0827 8.67768V16.8577C39.1201 18.4358 37.2532 20.051 35.2404 20.051ZM42.1141 7.3659H43.9303V16.2468H42.1141V7.3659ZM49.9689 16.2468H45.9616V5.47338H49.9689V16.2468Z" fill="#BED2E3"/>
  </g>
  <defs>
    <clipPath id="clip0">
      <rect width="52" height="52" fill="white"/>
    </clipPath>
  </defs>
</svg>
