<svg width="48" height="50" viewBox="0 0 48 50" fill="none" xmlns="http://www.w3.org/2000/svg">
  <path d="M43.4149 3.23574H42.5295V2.35029C42.5295 1.0543 41.4752 0 40.1792 0C38.8832 0 37.8289 1.0543 37.8289 2.35029V3.23574H34.4402V2.35029C34.4403 1.0543 33.3859 0 32.09 0C30.7941 0 29.7397 1.0543 29.7397 2.35029V3.23574H26.3511V2.35029C26.3511 1.0543 25.2968 0 24.0008 0C22.7048 0 21.6505 1.0543 21.6505 2.35029V3.23574H18.2618V2.35029C18.2619 1.0543 17.2075 0 15.9116 0C14.6156 0 13.5613 1.0543 13.5613 2.35029V3.23574H12.6758C10.4878 3.23574 8.70781 5.01582 8.70781 7.20371V25.1272L6.91621 23.3356C5.9998 22.4192 4.50889 22.4192 3.59248 23.3356L1.30449 25.6236C0.388086 26.5399 0.388086 28.0311 1.30449 28.9474L8.70781 36.3507V46.0319C8.70781 48.2199 10.4879 50 12.6758 50H37.5913C37.9958 50 38.3237 49.6721 38.3237 49.2676C38.3237 48.8631 37.9958 48.5352 37.5913 48.5352H12.6758C11.2955 48.5352 10.1727 47.4122 10.1727 46.0319V37.8155L16.1477 43.7905C16.165 43.8079 16.1832 43.8243 16.202 43.8396C16.2148 43.8501 16.2281 43.8594 16.2414 43.8688C16.2477 43.8732 16.2535 43.8782 16.2599 43.8824C16.2767 43.8937 16.2939 43.9036 16.3114 43.9133C16.3147 43.9151 16.3179 43.9173 16.3212 43.919C16.3396 43.9289 16.3585 43.9375 16.3774 43.9456C16.3803 43.9468 16.3829 43.9483 16.3858 43.9495C16.4043 43.9571 16.423 43.9636 16.4419 43.9696C16.4458 43.9709 16.4495 43.9725 16.4534 43.9736C16.4712 43.979 16.4892 43.9832 16.5071 43.9871C16.5125 43.9883 16.5177 43.9899 16.523 43.991C16.5405 43.9944 16.5581 43.9967 16.5758 43.9988C16.5819 43.9996 16.5879 44.0009 16.594 44.0015C16.6178 44.0038 16.6417 44.005 16.6655 44.005H20.9381L21.8676 44.9345C22.0105 45.0774 22.198 45.149 22.3854 45.149C22.5729 45.149 22.7604 45.0774 22.9033 44.9345C23.1894 44.6484 23.1894 44.1847 22.9033 43.8986L21.9738 42.9692V38.6969C21.9738 38.6729 21.9727 38.6489 21.9703 38.625C21.9698 38.6197 21.9687 38.6146 21.9681 38.6094C21.9658 38.5908 21.9634 38.5724 21.9598 38.554C21.9588 38.5493 21.9574 38.5447 21.9563 38.54C21.9522 38.5214 21.9479 38.5027 21.9424 38.4844C21.9414 38.4811 21.94 38.4779 21.939 38.4746C21.9328 38.4552 21.9261 38.4358 21.9183 38.4168C21.9174 38.4147 21.9163 38.4128 21.9154 38.4107C21.907 38.3909 21.8979 38.3713 21.8878 38.3521C21.8864 38.3496 21.8849 38.3474 21.8835 38.3448C21.8734 38.3265 21.8629 38.3084 21.8512 38.2908C21.8476 38.2854 21.8433 38.2803 21.8395 38.2749C21.8295 38.2607 21.8195 38.2466 21.8085 38.233C21.7931 38.2142 21.7768 38.196 21.7594 38.1786L15.7843 32.2035H40.9881C41.3926 32.2035 41.7205 31.8756 41.7205 31.4711C41.7205 31.0666 41.3926 30.7387 40.9881 30.7387H15.1026C14.8875 30.7387 14.6945 30.832 14.5605 30.9798L10.1726 26.5919V12.7897H45.9181V17.785C45.9181 18.1895 46.246 18.5174 46.6505 18.5174C47.055 18.5174 47.3829 18.1895 47.3829 17.785V7.20371C47.383 5.01572 45.6029 3.23574 43.4149 3.23574ZM20.5091 42.5402H18.4338L20.5091 40.4649V42.5402ZM5.14609 30.7175L6.39824 29.4653L17.9177 40.9848L16.6655 42.2369L5.14609 30.7175ZM18.9535 39.9489L7.43408 28.4295L8.68633 27.1772L20.2058 38.6967L18.9535 39.9489ZM2.34023 26.6595L4.62822 24.3715C4.97344 24.0263 5.53516 24.0263 5.88037 24.3715L7.65049 26.1416L5.88066 27.9114C5.88057 27.9115 5.88047 27.9116 5.88047 27.9116C5.88037 27.9117 5.88027 27.9118 5.88027 27.9118L4.11035 29.6816L2.34033 27.9116C1.99502 27.5664 1.99502 27.0047 2.34023 26.6595ZM40.1792 1.46484C40.6675 1.46484 41.0646 1.86201 41.0646 2.35029V5.58594C41.0646 6.07422 40.6675 6.47139 40.1792 6.47139C39.6909 6.47139 39.2938 6.07422 39.2938 5.58594V3.96914C39.2938 3.96885 39.2938 3.96855 39.2938 3.96816C39.2938 3.96777 39.2938 3.96758 39.2938 3.96719V2.35029C39.2938 1.86201 39.691 1.46484 40.1792 1.46484ZM32.09 1.46484C32.5783 1.46484 32.9755 1.86201 32.9755 2.35029V5.58594C32.9755 6.07422 32.5783 6.47139 32.09 6.47139C31.6018 6.47139 31.2046 6.07422 31.2046 5.58594V3.96914C31.2046 3.96885 31.2046 3.96855 31.2046 3.96816C31.2046 3.96777 31.2046 3.96758 31.2046 3.96719V2.35029C31.2046 1.86201 31.6018 1.46484 32.09 1.46484ZM23.1154 2.35029C23.1154 1.86201 23.5126 1.46484 24.0009 1.46484C24.4892 1.46484 24.8863 1.86201 24.8863 2.35029V3.96719V3.96816C24.8863 3.96816 24.8863 3.96875 24.8863 3.96914V5.58594C24.8863 6.07422 24.4892 6.47139 24.0009 6.47139C23.5127 6.47139 23.1154 6.07422 23.1154 5.58594V2.35029ZM15.9116 1.46484C16.3998 1.46484 16.7971 1.86201 16.7971 2.35029V3.96719C16.7971 3.96748 16.797 3.96777 16.797 3.96816C16.797 3.96855 16.7971 3.96875 16.7971 3.96914V5.58594C16.7971 6.07422 16.3999 6.47139 15.9116 6.47139C15.4233 6.47139 15.0262 6.07422 15.0262 5.58594V3.96914C15.0262 3.96885 15.0263 3.96855 15.0263 3.96816C15.0263 3.96777 15.0262 3.96758 15.0262 3.96719V2.35029C15.0262 1.86201 15.4233 1.46484 15.9116 1.46484ZM10.1727 11.3249V7.20371C10.1727 5.82344 11.2956 4.70059 12.6758 4.70059H13.5613V5.58594C13.5613 6.88193 14.6156 7.93623 15.9116 7.93623C17.2075 7.93623 18.2619 6.88193 18.2619 5.58594V4.70059H21.6506V5.58594C21.6506 6.88193 22.7049 7.93623 24.0009 7.93623C25.2969 7.93623 26.3512 6.88193 26.3512 5.58594V4.70059H29.7398V5.58594C29.7398 6.88193 30.7941 7.93623 32.0901 7.93623C33.3861 7.93623 34.4404 6.88193 34.4404 5.58594V4.70059H37.8291V5.58594C37.8291 6.88193 38.8834 7.93623 40.1794 7.93623C41.4754 7.93623 42.5297 6.88193 42.5297 5.58594V4.70059H43.4151C44.7954 4.70059 45.9184 5.82353 45.9184 7.20371V11.3249H10.1727Z" fill="#BED2E3"/>
  <path d="M46.6511 19.9819C46.2466 19.9819 45.9187 20.3099 45.9187 20.7144V46.0315C45.9187 47.4118 44.7957 48.5348 43.4154 48.5348H40.5215C40.117 48.5348 39.7891 48.8627 39.7891 49.2672C39.7891 49.6717 40.117 49.9996 40.5215 49.9996H43.4154C45.6034 49.9996 47.3835 48.2195 47.3835 46.0315V20.7144C47.3835 20.3099 47.0556 19.9819 46.6511 19.9819Z" fill="#BED2E3"/>
  <path d="M15.1035 17.6436H40.989C41.3935 17.6436 41.7214 17.3156 41.7214 16.9111C41.7214 16.5066 41.3935 16.1787 40.989 16.1787H15.1035C14.699 16.1787 14.3711 16.5066 14.3711 16.9111C14.3711 17.3156 14.699 17.6436 15.1035 17.6436Z" fill="#BED2E3"/>
  <path d="M15.1035 22.4966H40.989C41.3935 22.4966 41.7214 22.1687 41.7214 21.7642C41.7214 21.3597 41.3935 21.0317 40.989 21.0317H15.1035C14.699 21.0317 14.3711 21.3597 14.3711 21.7642C14.3711 22.1687 14.699 22.4966 15.1035 22.4966Z" fill="#BED2E3"/>
  <path d="M15.1035 27.3506H40.989C41.3935 27.3506 41.7214 27.0227 41.7214 26.6182C41.7214 26.2137 41.3935 25.8857 40.989 25.8857H15.1035C14.699 25.8857 14.3711 26.2137 14.3711 26.6182C14.3711 27.0227 14.699 27.3506 15.1035 27.3506Z" fill="#BED2E3"/>
  <path d="M41.7217 36.3247C41.7217 35.9202 41.3937 35.5923 40.9893 35.5923H24.002C23.5975 35.5923 23.2695 35.9202 23.2695 36.3247C23.2695 36.7292 23.5975 37.0571 24.002 37.0571H40.9893C41.3937 37.0571 41.7217 36.7292 41.7217 36.3247Z" fill="#BED2E3"/>
</svg>
