<svg width="18" height="18" viewBox="0 0 18 18" xmlns="http://www.w3.org/2000/svg">
<path d="M14.1598 9.2067C14.0768 9.12357 13.9782 9.05761 13.8697 9.01261C13.7612 8.96761 13.6449 8.94445 13.5274 8.94445C13.4099 8.94445 13.2936 8.96761 13.1851 9.01261C13.0766 9.05761 12.978 9.12357 12.895 9.2067L11.4692 10.6324C10.8082 10.4357 9.5747 9.98845 8.79292 9.2067C8.01114 8.42496 7.5639 7.19152 7.36712 6.53052L8.79292 5.10478C8.87606 5.02178 8.94201 4.92321 8.98702 4.8147C9.03202 4.70619 9.05518 4.58988 9.05518 4.4724C9.05518 4.35493 9.03202 4.23862 8.98702 4.13011C8.94201 4.0216 8.87606 3.92303 8.79292 3.84003L5.21499 0.262252C5.13199 0.179117 5.03342 0.113163 4.92491 0.0681628C4.81639 0.0231626 4.70007 0 4.58259 0C4.46512 0 4.3488 0.0231626 4.24028 0.0681628C4.13177 0.113163 4.03319 0.179117 3.9502 0.262252L1.52436 2.68799C1.18446 3.02788 0.993038 3.49478 1.00019 3.97152C1.02077 5.24521 1.35799 9.66913 4.84468 13.1557C8.33137 16.6422 12.7555 16.9785 14.0301 17H14.0552C14.5274 17 14.9738 16.814 15.3119 16.4759L17.7377 14.0501C17.8209 13.9671 17.8868 13.8686 17.9318 13.76C17.9768 13.6515 18 13.5352 18 13.4177C18 13.3003 17.9768 13.184 17.9318 13.0755C17.8868 12.9669 17.8209 12.8684 17.7377 12.7854L14.1598 9.2067ZM14.0462 15.2102C12.9299 15.1914 9.11046 14.8918 6.10947 11.89C3.09865 8.87934 2.80705 5.04664 2.78916 3.95273L4.58259 2.15937L6.89572 4.4724L5.73916 5.62892C5.63402 5.73397 5.55672 5.86357 5.51424 6.00599C5.47176 6.14841 5.46545 6.29918 5.49586 6.44466C5.51733 6.54752 6.04239 8.98667 7.52723 10.4714C9.01207 11.9562 11.4513 12.4813 11.5542 12.5027C11.6996 12.534 11.8505 12.5282 11.9931 12.4858C12.1356 12.4435 12.2652 12.3659 12.37 12.2603L13.5274 11.1038L15.8405 13.4169L14.0462 15.2102Z" />
</svg>
