<svg width="56" height="38" viewBox="0 0 56 38" fill="none" xmlns="http://www.w3.org/2000/svg">
  <path d="M52.7188 4.78125C50.9095 4.78125 49.4375 6.25322 49.4375 8.0625C49.4375 9.00684 49.839 9.85866 50.4796 10.4579L44.4524 14.5862L42.5359 8.83687C43.6411 8.30827 44.4062 7.17941 44.4062 5.875C44.4062 4.06572 42.9343 2.59375 41.125 2.59375C39.3157 2.59375 37.8438 4.06572 37.8438 5.875C37.8438 6.81016 38.2377 7.65464 38.8675 8.25281L32.894 12.2349L29.6345 6.53081C30.6176 5.96348 31.2812 4.90189 31.2812 3.6875C31.2812 1.87822 29.8093 0.40625 28 0.40625C26.1907 0.40625 24.7188 1.87822 24.7188 3.6875C24.7188 4.90189 25.3824 5.96348 26.3655 6.53081L23.106 12.2349L17.1325 8.25281C17.7624 7.65453 18.1562 6.81016 18.1562 5.875C18.1562 4.06572 16.6843 2.59375 14.875 2.59375C13.0657 2.59375 11.5938 4.06572 11.5938 5.875C11.5938 7.17941 12.3589 8.30827 13.464 8.83687L11.5476 14.5862L5.52038 10.4579C6.16098 9.85866 6.5625 9.00684 6.5625 8.0625C6.5625 6.25322 5.09053 4.78125 3.28125 4.78125C1.47197 4.78125 0 6.25322 0 8.0625C0 9.54147 0.983828 10.7946 2.33122 11.203L3.59975 18.816C2.72595 19.7946 2.1875 21.4862 2.1875 23.375C2.1875 26.3813 3.49923 28.6738 5.27012 28.834L6.57738 36.6797C6.6652 37.2071 7.12152 37.5938 7.65625 37.5938H23.0781C23.6822 37.5938 24.1719 37.1041 24.1719 36.5C24.1719 35.8959 23.6822 35.4062 23.0781 35.4062H8.58288L8.21833 33.2188H47.7816L47.417 35.4062H32.9219C32.3178 35.4062 31.8281 35.8959 31.8281 36.5C31.8281 37.1041 32.3178 37.5938 32.9219 37.5938H48.3438C48.8785 37.5938 49.3348 37.2071 49.4226 36.6797L50.7299 28.834C52.5008 28.6738 53.8125 26.3813 53.8125 23.375C53.8125 21.4862 53.274 19.7946 52.4003 18.816L53.6688 11.203C55.0162 10.7946 56 9.54147 56 8.0625C56 6.25322 54.528 4.78125 52.7188 4.78125ZM41.125 4.78125C41.7281 4.78125 42.2188 5.27191 42.2188 5.875C42.2188 6.47809 41.7281 6.96875 41.125 6.96875C40.5219 6.96875 40.0312 6.47809 40.0312 5.875C40.0312 5.27191 40.5219 4.78125 41.125 4.78125ZM40.5402 9.76689L42.5752 15.872L37.1109 19.6146L33.9818 14.1388L40.5402 9.76689ZM28 2.59375C28.6031 2.59375 29.0938 3.08441 29.0938 3.6875C29.0938 4.29059 28.6031 4.78125 28 4.78125C27.3969 4.78125 26.9062 4.29059 26.9062 3.6875C26.9062 3.08441 27.3969 2.59375 28 2.59375ZM14.875 4.78125C15.4781 4.78125 15.9688 5.27191 15.9688 5.875C15.9688 6.47809 15.4781 6.96875 14.875 6.96875C14.2719 6.96875 13.7812 6.47809 13.7812 5.875C13.7812 5.27191 14.2719 4.78125 14.875 4.78125ZM15.4598 9.76689L22.0181 14.1388L18.8891 19.6146L13.4248 15.8719L15.4598 9.76689ZM3.28125 6.96875C3.88434 6.96875 4.375 7.45941 4.375 8.0625C4.375 8.66559 3.88434 9.15625 3.28125 9.15625C2.67816 9.15625 2.1875 8.66559 2.1875 8.0625C2.1875 7.45941 2.67816 6.96875 3.28125 6.96875ZM4.375 23.375C4.375 21.6055 4.96355 20.4153 5.38234 20.1337C5.71725 19.9135 6.5625 21.3173 6.5625 23.375C6.5625 25.1465 5.97253 26.3375 5.55658 26.6153C5.16786 26.8731 4.375 25.2716 4.375 23.375ZM7.85389 31.0312L7.33775 27.934C8.21155 26.9554 8.75 25.2638 8.75 23.375C8.75 20.3687 7.43827 18.0761 5.66738 17.916L4.7822 12.6038L18.6318 22.0898C19.1587 22.4507 19.8825 22.285 20.1995 21.73L28 8.07945L35.8003 21.7301C36.1185 22.287 36.8428 22.4496 37.368 22.09L51.2176 12.604L50.3324 17.9161C48.5617 18.0761 47.25 20.3687 47.25 23.375C47.25 25.2626 47.7878 26.9533 48.6624 27.9333L48.1461 31.0312H7.85389ZM50.5312 26.6562C50.2238 26.6562 49.4375 25.3857 49.4375 23.375C49.4375 21.3989 50.2106 20.0938 50.5312 20.0938C50.8248 20.0938 51.625 21.3314 51.625 23.375C51.625 25.3511 50.8519 26.6562 50.5312 26.6562ZM52.7188 9.15625C52.1157 9.15625 51.625 8.66559 51.625 8.0625C51.625 7.45941 52.1157 6.96875 52.7188 6.96875C53.3218 6.96875 53.8125 7.45941 53.8125 8.0625C53.8125 8.66559 53.3218 9.15625 52.7188 9.15625Z" fill="#BED2E3"/>
  <path d="M28 17.9062C26.1294 17.9062 24.7188 20.2573 24.7188 23.375C24.7188 26.4927 26.1294 28.8438 28 28.8438C29.8706 28.8438 31.2812 26.4927 31.2812 23.375C31.2812 20.2573 29.8706 17.9062 28 17.9062ZM28 26.6562C27.6688 26.6562 26.9062 25.3257 26.9062 23.375C26.9062 21.3989 27.6793 20.0938 28 20.0938C28.3312 20.0938 29.0938 21.4243 29.0938 23.375C29.0938 25.3511 28.3207 26.6562 28 26.6562Z" fill="#BED2E3"/>
  <path d="M28 37.5938C28.6041 37.5938 29.0938 37.1041 29.0938 36.5C29.0938 35.8959 28.6041 35.4062 28 35.4062C27.3959 35.4062 26.9062 35.8959 26.9062 36.5C26.9062 37.1041 27.3959 37.5938 28 37.5938Z" fill="#BED2E3"/>
</svg>
