<svg width="22" height="24" viewBox="0 0 22 24" xmlns="http://www.w3.org/2000/svg">
  <path fill-rule="evenodd" clip-rule="evenodd" d="M11.0017 13.4443C6.80766 13.4443 3.77951 16.5524 3.77951 19.9443V20.6666H18.224V19.9443C18.224 16.5524 15.1958 13.4443 11.0017 13.4443ZM0.890625 23.5554V19.9443C0.890625 14.759 5.41752 10.5554 11.0017 10.5554C16.5859 10.5554 21.1128 14.759 21.1128 19.9443V23.5554H0.890625Z"/>
  <path fill-rule="evenodd" clip-rule="evenodd" d="M11.0017 9.111C12.5972 9.111 13.8906 7.8176 13.8906 6.22211C13.8906 4.62662 12.5972 3.33322 11.0017 3.33322C9.40625 3.33322 8.11285 4.62662 8.11285 6.22211C8.11285 7.8176 9.40625 9.111 11.0017 9.111ZM11.0017 11.9999C14.1927 11.9999 16.7795 9.41309 16.7795 6.22211C16.7795 3.03114 14.1927 0.444336 11.0017 0.444336C7.81076 0.444336 5.22396 3.03114 5.22396 6.22211C5.22396 9.41309 7.81076 11.9999 11.0017 11.9999Z"/>
</svg>
