<svg width="55" height="55" viewBox="0 0 55 55" fill="none" xmlns="http://www.w3.org/2000/svg">
  <path d="M54.68 23.1324C54.4258 22.8783 54.0607 22.7682 53.7086 22.8389L44.4513 24.702C44.0632 24.7802 43.7494 25.0655 43.6349 25.4444C43.5204 25.8233 43.6236 26.2346 43.9036 26.5146L45.156 27.7671L40.2405 32.6826L36.4353 28.8773C36.2338 28.6759 35.9606 28.5627 35.6758 28.5627C35.3909 28.5627 35.1178 28.6759 34.9163 28.8773L30.247 33.5467L31.9985 27.2533C32.4243 25.7234 32.1175 24.1208 31.1569 22.8562C30.5685 22.0818 29.7917 21.5108 28.9134 21.1836L30.3136 17.1839C30.6999 17.2179 31.0853 17.2352 31.4663 17.2352C34.568 17.2352 37.5921 16.1419 39.9818 14.157L40.2377 13.9444C41.4976 12.8977 41.7129 11.0786 40.7281 9.80343C40.2287 9.1567 39.5071 8.7511 38.6961 8.66152C37.8848 8.57183 37.0921 8.80986 36.4644 9.33135L36.1736 9.57292C35.7452 9.92879 35.2766 10.2361 34.781 10.486C33.1247 11.3215 31.0563 10.9494 29.682 9.58925C31.6812 8.97001 33.1375 7.1038 33.1375 4.90376C33.1376 2.19983 30.9376 0 28.2336 0C25.5295 0 23.3296 2.19983 23.3296 4.90386C23.3296 5.97994 23.6788 6.97545 24.2687 7.78491C23.1531 8.02509 22.1491 8.60029 21.3808 9.41352C21.336 9.45284 21.2931 9.49537 21.2542 9.54328C19.3606 11.8692 16.8362 13.5376 13.9539 14.3678C13.1736 14.5927 12.5559 15.1109 12.1853 15.7678L9.98371 13.5662C9.02043 12.6031 7.45326 12.6032 6.48987 13.5662L3.60871 16.4475L0.727552 19.3287C0.26084 19.7953 0.00390625 20.4156 0.00390625 21.0756C0.00390625 21.7356 0.260947 22.3559 0.727445 22.8226L8.66585 30.761C9.13257 31.2276 9.75288 31.4846 10.4128 31.4846C11.0729 31.4846 11.6932 31.2275 12.1598 30.761L15.143 27.7778L13.7285 31.487C13.5171 32.0413 13.7951 32.662 14.3493 32.8734C14.4753 32.9214 14.6046 32.9442 14.7319 32.9442C15.1646 32.9442 15.5724 32.6808 15.7358 32.2526L19.2588 23.0149H25.9839H27.1465C28.0572 23.0149 28.8954 23.4308 29.4463 24.1559C29.9972 24.8811 30.1732 25.8001 29.9289 26.6774L27.4882 35.4473C27.3784 35.8419 27.0155 36.1175 26.6059 36.1175C26.2383 36.1175 26.0117 35.9162 25.9093 35.7963C25.8069 35.6763 25.6437 35.4207 25.7013 35.0579L27.0001 26.8932C27.0495 26.5826 26.9603 26.2662 26.7563 26.0271C26.5522 25.788 26.2536 25.6503 25.9393 25.6503H23.3927C22.9876 25.6503 22.617 25.8781 22.4341 26.2396C22.3714 26.3635 16.1392 38.6861 14.039 42.8499C13.8288 43.2669 13.3718 43.5048 12.9031 43.4407L12.8522 43.4338C12.5324 43.3906 12.2547 43.2067 12.0898 42.9293C11.9249 42.6518 11.8964 42.3198 12.0115 42.0184L12.6733 40.2829C12.8847 39.7287 12.6068 39.108 12.0525 38.8965C11.4984 38.6852 10.8776 38.9632 10.6661 39.5174L10.0042 41.2529C9.65417 42.1708 9.74117 43.1817 10.2429 44.0264C10.7446 44.871 11.5907 45.4311 12.5635 45.5627L12.6144 45.5695C12.7616 45.5896 12.9084 45.5992 13.0541 45.5992C14.2703 45.5992 15.4013 44.9197 15.9572 43.8174C17.7916 40.1803 22.7805 30.3148 24.0532 27.7986H24.6808L23.5798 34.7204C23.4388 35.6073 23.6923 36.5079 24.2754 37.1909C24.6505 37.6303 25.1362 37.9484 25.674 38.1199L13.7084 50.0855C13.507 50.287 13.3938 50.5602 13.3938 50.845C13.3938 51.1299 13.507 51.4031 13.7084 51.6045L16.7893 54.6854C16.9991 54.8951 17.274 55 17.5489 55C17.8237 55 18.0986 54.8951 18.3084 54.6854L24.2313 48.7625C24.6507 48.343 24.6507 47.6629 24.2313 47.2433C23.8117 46.824 23.1318 46.824 22.7121 47.2433L17.5489 52.4067L15.9871 50.8449L35.676 31.1558L39.4812 34.961C39.6827 35.1624 39.9559 35.2756 40.2407 35.2756C40.5256 35.2756 40.7988 35.1624 41.0003 34.961L47.4347 28.5265C47.8541 28.107 47.8541 27.4269 47.4347 27.0073L46.8398 26.4125L52.5487 25.2636L51.3998 30.9725L50.5157 30.0884C50.0962 29.6691 49.4162 29.6691 48.9966 30.0884L40.2406 38.8443L36.4354 35.0391C36.0159 34.6198 35.3359 34.6198 34.9163 35.0391L28.7882 41.1672C28.3687 41.5866 28.3687 42.2668 28.7882 42.6863C29.2078 43.1057 29.8877 43.1057 30.3073 42.6863L35.6758 37.3179L39.481 41.1231C39.9006 41.5425 40.5805 41.5425 41.0002 41.1231L49.7561 32.3672L51.2979 33.909C51.5778 34.1889 51.9893 34.2924 52.3681 34.1776C52.747 34.0632 53.0324 33.7495 53.1105 33.3613L54.9736 24.1038C55.0445 23.7514 54.9343 23.3868 54.68 23.1324ZM28.2336 2.14827C29.7531 2.14827 30.9892 3.3845 30.9892 4.90386C30.9892 6.42334 29.753 7.65956 28.2336 7.65956C26.7141 7.65956 25.4779 6.42334 25.4779 4.90386C25.4779 3.3845 26.7141 2.14827 28.2336 2.14827ZM17.6048 21.1874L16.2976 19.8801C16.9184 19.6775 17.5282 19.4459 18.1252 19.1867L17.6048 21.1874ZM13.9797 17.4614C13.8528 17.0208 14.1081 16.5591 14.5487 16.4321C16.3145 15.9234 17.9614 15.138 19.4452 14.1123L18.8387 16.4443C17.6311 17.1115 16.3455 17.6452 15.0086 18.0302C14.9838 18.0373 14.9578 18.0436 14.9322 18.0485C14.734 18.0862 14.5357 18.0468 14.3692 17.9518L14.0546 17.6372C14.0235 17.5823 13.9978 17.5239 13.9797 17.4614ZM8.0088 15.0853C8.07164 15.0224 8.15424 14.9911 8.23674 14.9911C8.31923 14.9911 8.40183 15.0224 8.46456 15.0853L12.38 19.0007C12.5616 19.2487 12.7782 19.465 13.0221 19.6428L16.4031 23.0238C16.5287 23.1494 16.5287 23.3539 16.4031 23.4795L14.2814 25.6011L11.9219 23.2415L12.3713 22.7921C12.7908 22.3727 12.7908 21.6925 12.3713 21.273L9.95342 18.8551C9.53386 18.4357 8.85393 18.4357 8.43427 18.8551L7.98485 19.3045L5.88717 17.2068L8.0088 15.0853ZM9.47908 22.6462C9.37629 22.749 9.25631 22.7645 9.1939 22.7645C9.1316 22.7645 9.01162 22.749 8.90882 22.6464L8.58024 22.3178C8.47756 22.215 8.46209 22.095 8.46209 22.0327C8.46209 21.9703 8.47756 21.8503 8.58035 21.7475L9.1939 21.134L10.0926 22.0327L9.47908 22.6462ZM10.6407 29.242C10.5626 29.32 10.4737 29.3363 10.4128 29.3363C10.352 29.3363 10.263 29.32 10.185 29.2419L2.2466 21.3035C2.16851 21.2254 2.15218 21.1364 2.15218 21.0756C2.15218 21.0147 2.16851 20.9258 2.2466 20.8478L4.36812 18.7262L6.56624 20.9242C6.40136 21.2656 6.31382 21.6424 6.31382 22.0327C6.31382 22.7143 6.57934 23.3551 7.0612 23.8369L7.38967 24.1653C7.87153 24.6471 8.51236 24.9128 9.1939 24.9128C9.58424 24.9128 9.96105 24.8253 10.3024 24.6604L12.7624 27.1203L10.6407 29.242ZM25.9838 20.8666H19.9081L22.1147 12.3838C22.5093 10.8672 23.8794 9.80794 25.4466 9.80794C26.4147 9.80794 27.3102 10.1983 27.9681 10.9071C29.9862 13.0816 33.1859 13.6972 35.7487 12.4042C36.3887 12.0815 36.9936 11.685 37.5466 11.2255L37.8374 10.9839C38.0127 10.8383 38.2338 10.7714 38.4605 10.797C38.6866 10.8219 38.8881 10.9354 39.0279 11.1166C39.2979 11.466 39.2247 11.9934 38.8651 12.2921L38.6092 12.5047C36.6045 14.17 34.0678 15.0871 31.4664 15.0871C30.9016 15.0871 30.3242 15.0419 29.7503 14.9526C29.238 14.8723 28.7425 15.17 28.5713 15.6591L26.7483 20.8666H25.9838Z" fill="#BED2E3"/>
  <path d="M26.5312 43.9106C26.2487 43.9106 25.9715 44.0255 25.7718 44.2254C25.572 44.4251 25.457 44.7022 25.457 44.9848C25.457 45.2684 25.5719 45.5444 25.7718 45.7441C25.9715 45.9449 26.2487 46.0589 26.5312 46.0589C26.8137 46.0589 27.0908 45.9449 27.2905 45.7441C27.4903 45.5444 27.6053 45.2682 27.6053 44.9848C27.6053 44.7022 27.4904 44.4251 27.2905 44.2254C27.0908 44.0255 26.8137 43.9106 26.5312 43.9106Z" fill="#BED2E3"/>
  <path d="M13.1952 36.9652C13.4777 36.9652 13.7549 36.8502 13.9546 36.6503C14.1543 36.4507 14.2694 36.1735 14.2694 35.891C14.2694 35.6085 14.1544 35.3314 13.9546 35.1316C13.7538 34.9318 13.4777 34.8169 13.1952 34.8169C12.9127 34.8169 12.6356 34.9317 12.4347 35.1316C12.2351 35.3314 12.1211 35.6085 12.1211 35.891C12.1211 36.1735 12.2351 36.4507 12.4347 36.6503C12.6356 36.8501 12.9117 36.9652 13.1952 36.9652Z" fill="#BED2E3"/>
</svg>
