<svg width="52" height="51" viewBox="0 0 52 51" fill="none" xmlns="http://www.w3.org/2000/svg">
<path fill-rule="evenodd" clip-rule="evenodd" d="M26 0C11.6635 0 0 11.4392 0 25.5C0 39.5608 11.6635 51 26 51C40.3365 51 52 39.5608 52 25.5C52 11.4392 40.3365 0 26 0ZM26 2.98828C31.7783 2.98828 37.064 5.09412 41.1034 8.56322L38.9212 10.7034L38.6395 10.4271C38.0447 9.8436 37.0801 9.8436 36.485 10.4271C35.8901 11.0105 35.8901 11.9565 36.485 12.5401L36.7667 12.8164L35.1968 14.3562C33.054 12.6519 30.4126 11.5285 27.5234 11.2338V9.06455H27.9297C28.771 9.06455 29.4531 8.39558 29.4531 7.57041C29.4531 6.74525 28.771 6.07627 27.9297 6.07627H24.0703C23.229 6.07627 22.5469 6.74525 22.5469 7.57041C22.5469 8.39558 23.229 9.06455 24.0703 9.06455H24.4766V11.2338C21.5846 11.5288 18.9409 12.6541 16.797 14.3611L15.2277 12.8219L15.515 12.5401C16.1098 11.9566 16.1098 11.0106 15.515 10.4271C14.92 9.8437 13.9555 9.8437 13.3605 10.4271L10.6316 13.1037C10.0367 13.6872 10.0367 14.6332 10.6316 15.2167C10.929 15.5085 11.3189 15.6544 11.7087 15.6544C12.0985 15.6544 12.4885 15.5085 12.786 15.2167L13.0732 14.935L14.6426 16.4742C12.9021 18.5768 11.7547 21.1697 11.4541 24.0061H9.24219V23.6074C9.24219 22.7823 8.56009 22.1133 7.71875 22.1133C6.87741 22.1133 6.19531 22.7823 6.19531 23.6074V27.3927C6.19531 28.2178 6.87741 28.8868 7.71875 28.8868C8.56009 28.8868 9.24219 28.2178 9.24219 27.3927V26.9942H11.4541C11.7545 29.8278 12.9 32.4184 14.6376 34.5199L13.0676 36.0597L12.7859 35.7834C12.1911 35.1999 11.2264 35.1999 10.6315 35.7834C10.0365 36.3668 10.0365 37.3128 10.6315 37.8964L10.9132 38.1727L8.73112 40.3128C5.19391 36.3512 3.04688 31.1672 3.04688 25.5C3.04688 13.087 13.3436 2.98828 26 2.98828ZM26 36.8555C23.3531 36.8555 20.9113 35.9792 18.959 34.5078L35.1844 18.5944C36.6847 20.5092 37.5781 22.904 37.5781 25.5C37.5781 31.7614 32.3842 36.8555 26 36.8555ZM26 14.1445C28.6412 14.1445 31.0782 15.017 33.0285 16.4828L16.806 32.3933C15.3116 30.4806 14.4219 28.0904 14.4219 25.5C14.4219 19.2386 19.6159 14.1445 26 14.1445ZM26 48.0117C20.216 48.0117 14.9257 45.9017 10.8849 42.4265L13.0675 40.2858L13.3604 40.5731C13.6579 40.8649 14.0478 41.0108 14.4377 41.0108C14.8275 41.0108 15.2175 40.8648 15.5149 40.5731C16.1098 39.9897 16.1098 39.0437 15.5149 38.4601L15.222 38.1728L16.7908 36.6341C18.9357 38.3439 21.5817 39.471 24.4765 39.7662V41.9355H24.0702C23.2289 41.9355 22.5468 42.6045 22.5468 43.4297C22.5468 44.2549 23.2289 44.9238 24.0702 44.9238H27.9296C28.7709 44.9238 29.453 44.2549 29.453 43.4297C29.453 42.6045 28.7709 41.9355 27.9296 41.9355H27.5233V39.7662C30.4152 39.4712 33.059 38.346 35.2028 36.639L36.7722 38.1783L36.4849 38.4601C35.89 39.0436 35.89 39.9896 36.4849 40.5731C36.7824 40.8648 37.1723 41.0108 37.5621 41.0108C37.9519 41.0108 38.3419 40.8648 38.6393 40.5731L41.3682 37.8965C41.9632 37.313 41.9631 36.367 41.3682 35.7835C40.7734 35.2 39.8087 35.2001 39.2138 35.7835L38.9265 36.0653L37.3571 34.5261C39.0976 32.4235 40.245 29.8306 40.5457 26.9943H42.7575V27.3928C42.7575 28.2179 43.4396 28.8869 44.2809 28.8869C45.1223 28.8869 45.8044 28.2179 45.8044 27.3928V23.6074C45.8044 22.7823 45.1223 22.1133 44.2809 22.1133C43.4396 22.1133 42.7575 22.7823 42.7575 23.6074V24.006H40.5457C40.2448 21.1669 39.0955 18.5717 37.3522 16.468L38.921 14.9295L39.2139 15.2167C39.5114 15.5086 39.9013 15.6544 40.2911 15.6544C40.6809 15.6544 41.0709 15.5085 41.3682 15.2167C41.9631 14.6333 41.9632 13.6873 41.3682 13.1037L41.0753 12.8164L43.2581 10.6756C46.8017 14.6387 48.9531 19.8272 48.9531 25.5C48.9531 37.913 38.6564 48.0117 26 48.0117Z" fill="#BED2E3"/>
<path fill-rule="evenodd" clip-rule="evenodd" d="M26 19.9883C26.8298 19.9883 27.5066 19.3245 27.5066 18.5107C27.5066 17.6969 26.8298 17.0332 26 17.0332C25.1702 17.0332 24.4935 17.6969 24.4935 18.5107C24.4935 19.3246 25.1702 19.9883 26 19.9883Z" fill="#BED2E3"/>
<path fill-rule="evenodd" clip-rule="evenodd" d="M26 31.0283C25.1702 31.0283 24.4935 31.692 24.4935 32.5058C24.4935 33.3196 25.1702 33.9834 26 33.9834C26.8298 33.9834 27.5066 33.3196 27.5066 32.5058C27.5066 31.692 26.8298 31.0283 26 31.0283Z" fill="#BED2E3"/>
<path d="M33.3935 26.9772C34.2122 26.8319 34.7559 26.0633 34.6078 25.2603C34.4597 24.4574 33.6759 23.9242 32.8572 24.0695C32.0384 24.2147 31.4947 24.9834 31.6428 25.7863C31.7909 26.5893 32.5747 27.1224 33.3935 26.9772Z" fill="#BED2E3"/>
<path d="M31.045 31.934C31.8771 31.934 32.5516 31.2724 32.5516 30.4564C32.5516 29.6403 31.8771 28.9788 31.045 28.9788C30.213 28.9788 29.5384 29.6403 29.5384 30.4564C29.5384 31.2724 30.213 31.934 31.045 31.934Z" fill="#BED2E3"/>
<path d="M19.9255 26.5522C20.5137 25.9753 20.5137 25.0399 19.9255 24.463C19.3373 23.8861 18.3836 23.8861 17.7953 24.463C17.2071 25.0399 17.2071 25.9753 17.7953 26.5522C18.3836 27.1291 19.3373 27.1291 19.9255 26.5522Z" fill="#BED2E3"/>
<path d="M20.955 22.038C21.787 22.038 22.4616 21.3764 22.4616 20.5604C22.4616 19.7443 21.787 19.0828 20.955 19.0828C20.1229 19.0828 19.4484 19.7443 19.4484 20.5604C19.4484 21.3764 20.1229 22.038 20.955 22.038Z" fill="#BED2E3"/>
</svg>
