<svg width="60" height="60" viewBox="0 0 60 60" fill="none" xmlns="http://www.w3.org/2000/svg">
<path d="M56.1012 45.3314V53.3064C56.1004 53.9416 55.9742 54.5704 55.7298 55.1568C55.4854 55.7431 55.1276 56.2753 54.677 56.7231C54.2264 57.1708 53.6918 57.5251 53.1039 57.7657C52.5161 58.0063 51.8865 58.1285 51.2512 58.1252H35.22C33.9414 58.1235 32.7158 57.6144 31.8122 56.7098C30.9087 55.8051 30.4012 54.5788 30.4012 53.3002V47.0939C30.4012 46.8447 30.4998 46.6056 30.6755 46.4288C30.8511 46.252 31.0895 46.1518 31.3387 46.1502C31.5874 46.1502 31.8258 46.249 32.0017 46.4248C32.1775 46.6006 32.2762 46.839 32.2762 47.0877V53.3377C32.2861 54.1125 32.6004 54.8523 33.1512 55.3973C33.702 55.9422 34.4451 56.2486 35.22 56.2502H51.2512C52.0331 56.2485 52.7825 55.9372 53.3354 55.3843C53.8883 54.8315 54.1996 54.0821 54.2012 53.3002V52.4564H34.2012C33.9526 52.4564 33.7141 52.3577 33.5383 52.1819C33.3625 52.006 33.2637 51.7676 33.2637 51.5189C33.2637 51.2703 33.3625 51.0318 33.5383 50.856C33.7141 50.6802 33.9526 50.5814 34.2012 50.5814H54.2012V45.3314C54.2012 45.0828 54.3 44.8443 54.4758 44.6685C54.6516 44.4927 54.8901 44.3939 55.1387 44.3939C55.3874 44.3939 55.6258 44.4927 55.8017 44.6685C55.9775 44.8443 56.0762 45.0828 56.0762 45.3314H56.1012ZM56.0262 41.3189C56.0033 41.2636 55.9739 41.2112 55.9387 41.1627C55.9085 41.1095 55.8706 41.0611 55.8262 41.0189C55.7188 40.9141 55.588 40.8362 55.4446 40.7916C55.3012 40.7471 55.1492 40.7372 55.0012 40.7627L54.8262 40.8127L54.6637 40.9002L54.5262 41.0189C54.3507 41.1947 54.2521 41.433 54.2521 41.6814C54.2521 41.9299 54.3507 42.1682 54.5262 42.3439L54.6637 42.4627C54.7153 42.4947 54.7697 42.5219 54.8262 42.5439C54.9404 42.5943 55.064 42.6199 55.1888 42.6189H55.37C55.4303 42.6068 55.489 42.5879 55.545 42.5627C55.6021 42.542 55.6566 42.5147 55.7075 42.4814C55.7582 42.4453 55.8062 42.4056 55.8512 42.3627C55.9783 42.2282 56.0668 42.0619 56.1075 41.8814C56.1136 41.8212 56.1136 41.7604 56.1075 41.7002C56.114 41.6399 56.114 41.5792 56.1075 41.5189C56.0877 41.4496 56.0604 41.3825 56.0262 41.3189ZM19.695 18.0002C19.623 17.8292 19.6029 17.6408 19.6374 17.4585C19.6718 17.2762 19.7593 17.1081 19.8887 16.9752L26.1825 10.6252C26.2717 10.5307 26.3792 10.4553 26.4985 10.4037C26.6178 10.3522 26.7463 10.3254 26.8762 10.3252H39.7075V9.02519C39.7075 8.77655 39.8063 8.53809 39.9821 8.36228C40.1579 8.18646 40.3964 8.08769 40.645 8.08769H42.3137V7.06269H40.6262C40.3776 7.06269 40.1391 6.96392 39.9633 6.7881C39.7875 6.61229 39.6887 6.37383 39.6887 6.12519V2.50019C39.6887 2.25155 39.7875 2.01309 39.9633 1.83727C40.1391 1.66146 40.3776 1.56269 40.6262 1.56269H45.8325C45.9572 1.56019 46.0811 1.5826 46.197 1.6286C46.3129 1.67459 46.4185 1.74325 46.5076 1.83056C46.5966 1.91786 46.6674 2.02206 46.7156 2.13704C46.7639 2.25202 46.7888 2.37548 46.7887 2.50019V6.12519C46.7887 6.37383 46.69 6.61229 46.5142 6.7881C46.3383 6.96392 46.0999 7.06269 45.8512 7.06269H44.1887V8.08769H45.8512C46.0999 8.08769 46.3383 8.18646 46.5142 8.36228C46.69 8.53809 46.7887 8.77655 46.7887 9.02519V17.1877H47.295C47.5436 17.1877 47.7821 17.2865 47.9579 17.4623C48.1337 17.6381 48.2325 17.8765 48.2325 18.1252V23.5814C48.2325 23.8301 48.1337 24.0685 47.9579 24.2444C47.7821 24.4202 47.5436 24.5189 47.295 24.5189C47.0464 24.5189 46.8079 24.4202 46.6321 24.2444C46.4563 24.0685 46.3575 23.8301 46.3575 23.5814V19.0627H40.1075V25.3127H51.2512C52.5309 25.3127 53.7582 25.821 54.663 26.7259C55.5679 27.6308 56.0762 28.858 56.0762 30.1377V38.0314C56.0762 38.2801 55.9775 38.5185 55.8017 38.6944C55.6258 38.8702 55.3874 38.9689 55.1387 38.9689C54.8901 38.9689 54.6516 38.8702 54.4758 38.6944C54.3 38.5185 54.2012 38.2801 54.2012 38.0314V32.8314H32.2762V37.0127C32.2762 37.2613 32.1775 37.4998 32.0017 37.6756C31.8258 37.8514 31.5874 37.9502 31.3387 37.9502C31.0901 37.9502 30.8516 37.8514 30.6758 37.6756C30.5 37.4998 30.4012 37.2613 30.4012 37.0127V30.1377C30.4012 28.8591 30.9087 27.6328 31.8122 26.7281C32.7158 25.8234 33.9414 25.3143 35.22 25.3127H38.2637V18.1252C38.2654 17.8771 38.3647 17.6395 38.5401 17.4641C38.7156 17.2886 38.9531 17.1893 39.2012 17.1877H44.9137V9.96269H41.5825V15.6564C41.5825 15.9051 41.4837 16.1435 41.3079 16.3194C41.1321 16.4952 40.8936 16.5939 40.645 16.5939C40.3964 16.5939 40.1579 16.4952 39.9821 16.3194C39.8063 16.1435 39.7075 15.9051 39.7075 15.6564V15.5564H29.245L26.5012 18.3002C26.3256 18.4761 26.0873 18.575 25.8387 18.5752H20.5575C20.3733 18.574 20.1935 18.5189 20.0402 18.4167C19.887 18.3145 19.767 18.1697 19.695 18.0002ZM51.2512 27.1564H35.22C34.4387 27.1581 33.69 27.4696 33.1381 28.0227C32.5862 28.5757 32.2762 29.3251 32.2762 30.1064V30.9564H54.2262V30.1064C54.2254 29.7172 54.1477 29.3319 53.9976 28.9727C53.8475 28.6135 53.628 28.2875 53.3515 28.0134C53.0751 27.7393 52.7473 27.5225 52.3869 27.3755C52.0264 27.2284 51.6405 27.154 51.2512 27.1564ZM41.5825 5.18769H44.9137V3.43769H41.5825V5.18769ZM22.8012 16.7002H25.4512L28.195 13.9564C28.3706 13.7806 28.6089 13.6817 28.8575 13.6814H39.7075V12.2002H27.245L22.8012 16.7002ZM40.3013 46.4002V44.6252H38.5512C38.3026 44.6252 38.0641 44.5264 37.8883 44.3506C37.7125 44.1748 37.6137 43.9363 37.6137 43.6877V39.7189C37.6137 39.4703 37.7125 39.2318 37.8883 39.056C38.0641 38.8802 38.3026 38.7814 38.5512 38.7814H40.3262V37.0127C40.3262 36.764 40.425 36.5256 40.6008 36.3498C40.7767 36.174 41.0151 36.0752 41.2637 36.0752H45.2325C45.4811 36.0752 45.7196 36.174 45.8954 36.3498C46.0712 36.5256 46.17 36.764 46.17 37.0127V38.7814H47.9512C48.1999 38.7814 48.4383 38.8802 48.6142 39.056C48.79 39.2318 48.8887 39.4703 48.8887 39.7189V43.6877C48.8887 43.9363 48.79 44.1748 48.6142 44.3506C48.4383 44.5264 48.1999 44.6252 47.9512 44.6252H46.17V46.4002C46.17 46.6488 46.0712 46.8873 45.8954 47.0631C45.7196 47.2389 45.4811 47.3377 45.2325 47.3377H41.2512C41.0048 47.3344 40.7695 47.2342 40.5964 47.0587C40.4233 46.8833 40.3262 46.6467 40.3262 46.4002H40.3013ZM41.2512 42.7502C41.4999 42.7502 41.7383 42.849 41.9142 43.0248C42.09 43.2006 42.1887 43.439 42.1887 43.6877V45.4627H44.2825V43.6877C44.2825 43.439 44.3813 43.2006 44.5571 43.0248C44.7329 42.849 44.9714 42.7502 45.22 42.7502H47.0012V40.6564H45.2325C44.9839 40.6564 44.7454 40.5577 44.5696 40.3818C44.3938 40.206 44.295 39.9676 44.295 39.7189V37.9502H42.2012V39.7189C42.2012 39.9676 42.1025 40.206 41.9267 40.3818C41.7508 40.5577 41.5124 40.6564 41.2637 40.6564H39.4887V42.7502H41.2512ZM19.62 27.9689C19.62 26.0939 22.2387 22.5939 22.745 21.9064C22.8332 21.7923 22.9464 21.6999 23.0758 21.6363C23.2053 21.5727 23.3476 21.5396 23.4919 21.5396C23.6361 21.5396 23.7784 21.5727 23.9079 21.6363C24.0374 21.6999 24.1506 21.7923 24.2387 21.9064C24.7637 22.5939 27.3637 26.1127 27.3637 27.9689C27.3235 28.9738 26.8959 29.9241 26.1707 30.6209C25.4455 31.3176 24.4788 31.7067 23.4731 31.7067C22.4674 31.7067 21.5008 31.3176 20.7755 30.6209C20.0503 29.9241 19.6228 28.9738 19.5825 27.9689H19.62ZM21.495 27.9689C21.5237 28.4841 21.7486 28.9687 22.1234 29.3233C22.4983 29.6778 22.9947 29.8754 23.5106 29.8754C24.0266 29.8754 24.523 29.6778 24.8978 29.3233C25.2727 28.9687 25.4975 28.4841 25.5262 27.9689C25.5262 27.3439 24.5762 25.6189 23.5137 24.0752C22.445 25.6252 21.495 27.3127 21.495 27.9689ZM35.1512 43.1252C35.2643 42.8863 35.3287 42.6274 35.3405 42.3634C35.3523 42.0994 35.3113 41.8357 35.22 41.5877C34.8527 40.5792 34.1033 39.7556 33.1339 39.2948C32.1645 38.8341 31.0527 38.7732 30.0387 39.1252L27.145 40.1064V40.0502C26.7127 38.9826 25.8926 38.118 24.8492 37.6299C23.8059 37.1419 22.6166 37.0665 21.52 37.4189L17.4012 38.7502C16.469 39.0534 15.4647 39.0534 14.5325 38.7502L4.80124 35.4189C4.68511 35.3779 4.56202 35.3601 4.43902 35.3667C4.31602 35.3732 4.19551 35.4039 4.08437 35.457C3.97323 35.5101 3.87364 35.5846 3.79128 35.6762C3.70892 35.7678 3.64541 35.8747 3.60437 35.9908C3.56333 36.1069 3.54557 36.23 3.5521 36.353C3.55863 36.476 3.58932 36.5965 3.64243 36.7077C3.69553 36.8188 3.77 36.9184 3.8616 37.0008C3.95319 37.0831 4.06011 37.1466 4.17624 37.1877L13.9137 40.5502C15.2272 40.9814 16.6441 40.9814 17.9575 40.5502L22.0637 39.2252C22.7036 39.0207 23.3966 39.0608 24.0086 39.3379C24.6205 39.615 25.1079 40.1094 25.3762 40.7252L19.4762 42.7314C19.2409 42.8143 19.0481 42.9873 18.9402 43.2124C18.8324 43.4374 18.8184 43.6961 18.9012 43.9314C18.9841 44.1668 19.1571 44.3596 19.3822 44.4675C19.6072 44.5753 19.8659 44.5893 20.1012 44.5064L26.0012 42.5002L26.145 42.4439L30.6262 40.9252C31.1768 40.7341 31.7803 40.7673 32.3066 41.0176C32.8328 41.2678 33.2395 41.7151 33.4387 42.2627C33.4458 42.2769 33.4495 42.2924 33.4497 42.3082C33.45 42.324 33.4467 42.3397 33.4401 42.3541C33.4335 42.3684 33.4238 42.3812 33.4117 42.3913C33.3995 42.4014 33.3853 42.4087 33.37 42.4127L20.6262 46.8752C18.8425 47.4909 16.9038 47.4909 15.12 46.8752L4.82624 43.0689C4.59786 43.0062 4.3542 43.0323 4.14424 43.1419C3.93428 43.2514 3.77357 43.4364 3.69441 43.6596C3.61526 43.8829 3.62352 44.1278 3.71754 44.3451C3.81156 44.5625 3.98437 44.7363 4.20124 44.8314L14.5012 48.6564C16.6895 49.4146 19.0692 49.4146 21.2575 48.6564L34.0075 44.1939C34.2609 44.1031 34.4931 43.9615 34.6898 43.7777C34.8865 43.5939 35.0435 43.3719 35.1512 43.1252Z" fill="#BED2E3"/>
</svg>
