<svg width="50" height="50" viewBox="0 0 50 50" fill="none" xmlns="http://www.w3.org/2000/svg">
  <path d="M30.4688 6.25C28.013 6.24833 25.581 6.73073 23.3119 7.6696C21.0427 8.60847 18.9808 9.98541 17.2441 11.7217C17.2246 11.7207 17.2061 11.7188 17.1875 11.7188H5.46875V1.5625C5.46875 1.3553 5.38644 1.15659 5.23993 1.01007C5.09341 0.86356 4.8947 0.78125 4.6875 0.78125H1.5625C1.3553 0.78125 1.15659 0.86356 1.01007 1.01007C0.86356 1.15659 0.78125 1.3553 0.78125 1.5625V48.4375C0.78125 48.6447 0.86356 48.8434 1.01007 48.9899C1.15659 49.1364 1.3553 49.2188 1.5625 49.2188H4.6875C4.8947 49.2188 5.09341 49.1364 5.23993 48.9899C5.38644 48.8434 5.46875 48.6447 5.46875 48.4375V38.2812H17.1875C17.2061 38.2812 17.2246 38.2793 17.2441 38.2783C18.9808 40.0146 21.0427 41.3915 23.3119 42.3304C25.581 43.2693 28.013 43.7517 30.4688 43.75C40.8076 43.75 49.2188 35.3389 49.2188 25C49.2188 14.6611 40.8076 6.25 30.4688 6.25ZM3.90625 47.6562H2.34375V2.34375H3.90625V47.6562ZM5.46875 36.7188V13.2812H15.8438C13.174 16.6036 11.7188 20.7379 11.7188 25C11.7188 29.2621 13.174 33.3964 15.8438 36.7188H5.46875ZM30.4688 42.1875C20.9912 42.1875 13.2812 34.4775 13.2812 25C13.2812 15.5225 20.9912 7.8125 30.4688 7.8125C39.9463 7.8125 47.6562 15.5225 47.6562 25C47.6562 34.4775 39.9463 42.1875 30.4688 42.1875Z" fill="#BED2E3"/>
  <path d="M37.8906 22.6562H36.7188V21.875C36.7188 21.6678 36.6364 21.4691 36.4899 21.3226C36.3434 21.1761 36.1447 21.0938 35.9375 21.0938H25C24.7928 21.0938 24.5941 21.1761 24.4476 21.3226C24.3011 21.4691 24.2188 21.6678 24.2188 21.875V28.125C24.2198 29.1607 24.6317 30.1537 25.364 30.886C26.0963 31.6183 27.0893 32.0302 28.125 32.0312H32.8125C33.8482 32.0302 34.8412 31.6183 35.5735 30.886C36.3058 30.1537 36.7177 29.1607 36.7188 28.125H37.8906C38.4085 28.1245 38.905 27.9185 39.2711 27.5524C39.6373 27.1862 39.8432 26.6897 39.8438 26.1719V24.6094C39.8432 24.0915 39.6373 23.595 39.2711 23.2289C38.905 22.8627 38.4085 22.6568 37.8906 22.6562ZM35.1562 28.125C35.1554 28.7463 34.9082 29.342 34.4689 29.7814C34.0295 30.2207 33.4338 30.4679 32.8125 30.4688H28.125C27.5037 30.4679 26.908 30.2207 26.4686 29.7814C26.0293 29.342 25.7821 28.7463 25.7812 28.125V22.6562H35.1562V28.125ZM38.2812 26.1719C38.2812 26.2755 38.2401 26.3748 38.1668 26.4481C38.0936 26.5213 37.9942 26.5625 37.8906 26.5625H36.7188V24.2188H37.8906C37.9942 24.2188 38.0936 24.2599 38.1668 24.3332C38.2401 24.4064 38.2812 24.5058 38.2812 24.6094V26.1719Z" fill="#BED2E3"/>
  <path d="M29.2969 19.5312C29.2969 19.7385 29.3792 19.9372 29.5257 20.0837C29.6722 20.2302 29.8709 20.3125 30.0781 20.3125C30.2853 20.3125 30.484 20.2302 30.6306 20.0837C30.7771 19.9372 30.8594 19.7385 30.8594 19.5312C30.8594 19.2709 30.9277 19.1797 31.0937 18.9585C31.3115 18.6682 31.6406 18.2293 31.6406 17.448C31.6406 16.6668 31.3115 16.228 31.0937 15.9377C30.9277 15.7166 30.8594 15.6252 30.8594 15.3646C30.8594 15.1041 30.9277 15.0131 31.0937 14.7917C31.3115 14.5014 31.6406 14.0625 31.6406 13.2812C31.6406 13.074 31.5583 12.8753 31.4118 12.7288C31.2653 12.5823 31.0666 12.5 30.8594 12.5C30.6522 12.5 30.4535 12.5823 30.3069 12.7288C30.1604 12.8753 30.0781 13.074 30.0781 13.2812C30.0781 13.5417 30.0098 13.6328 29.8438 13.8542C29.626 14.1446 29.2969 14.5834 29.2969 15.3646C29.2969 16.1459 29.626 16.5848 29.8438 16.8751C30.0098 17.0962 30.0781 17.1876 30.0781 17.448C30.0781 17.7085 30.0098 17.7996 29.8438 18.0209C29.626 18.3112 29.2969 18.75 29.2969 19.5312Z" fill="#BED2E3"/>
  <path d="M25.7812 19.5312C25.7812 19.7385 25.8636 19.9372 26.0101 20.0837C26.1566 20.2302 26.3553 20.3125 26.5625 20.3125C26.7697 20.3125 26.9684 20.2302 27.1149 20.0837C27.2614 19.9372 27.3438 19.7385 27.3438 19.5312C27.3438 19.2709 27.4121 19.1797 27.5781 18.9585C27.7959 18.6682 28.125 18.2293 28.125 17.448C28.125 16.6668 27.7959 16.228 27.5781 15.9377C27.4121 15.7166 27.3438 15.6252 27.3438 15.3646C27.3438 15.1041 27.4121 15.0131 27.5781 14.7917C27.7959 14.5014 28.125 14.0625 28.125 13.2812C28.125 13.074 28.0427 12.8753 27.8962 12.7288C27.7497 12.5823 27.551 12.5 27.3438 12.5C27.1365 12.5 26.9378 12.5823 26.7913 12.7288C26.6448 12.8753 26.5625 13.074 26.5625 13.2812C26.5625 13.5417 26.4941 13.6328 26.3281 13.8542C26.1104 14.1446 25.7812 14.5834 25.7812 15.3646C25.7812 16.1459 26.1104 16.5848 26.3281 16.8751C26.4941 17.0962 26.5625 17.1876 26.5625 17.448C26.5625 17.7085 26.4941 17.7996 26.3281 18.0209C26.1104 18.3112 25.7812 18.75 25.7812 19.5312Z" fill="#BED2E3"/>
  <path d="M32.8125 19.5312C32.8125 19.7385 32.8948 19.9372 33.0413 20.0837C33.1878 20.2302 33.3865 20.3125 33.5938 20.3125C33.801 20.3125 33.9997 20.2302 34.1462 20.0837C34.2927 19.9372 34.375 19.7385 34.375 19.5312C34.375 19.2709 34.4434 19.1797 34.6094 18.9585C34.8271 18.6682 35.1562 18.2293 35.1562 17.448C35.1562 16.6668 34.8271 16.228 34.6094 15.9377C34.4434 15.7166 34.375 15.6252 34.375 15.3646C34.375 15.1041 34.4434 15.0131 34.6094 14.7917C34.8271 14.5014 35.1562 14.0625 35.1562 13.2812C35.1562 13.074 35.0739 12.8753 34.9274 12.7288C34.7809 12.5823 34.5822 12.5 34.375 12.5C34.1678 12.5 33.9691 12.5823 33.8226 12.7288C33.6761 12.8753 33.5938 13.074 33.5938 13.2812C33.5938 13.5417 33.5254 13.6328 33.3594 13.8542C33.1416 14.1446 32.8125 14.5834 32.8125 15.3646C32.8125 16.1459 33.1416 16.5848 33.3594 16.8751C33.5254 17.0962 33.5938 17.1876 33.5938 17.448C33.5938 17.7085 33.5254 17.7996 33.3594 18.0209C33.1416 18.3112 32.8125 18.75 32.8125 19.5312Z" fill="#BED2E3"/>
  <path d="M38.2812 32.8125H22.6562C22.449 32.8125 22.2503 32.8948 22.1038 33.0413C21.9573 33.1878 21.875 33.3865 21.875 33.5938C21.875 33.801 21.9573 33.9997 22.1038 34.1462C22.2503 34.2927 22.449 34.375 22.6562 34.375H38.2812C38.4885 34.375 38.6872 34.2927 38.8337 34.1462C38.9802 33.9997 39.0625 33.801 39.0625 33.5938C39.0625 33.3865 38.9802 33.1878 38.8337 33.0413C38.6872 32.8948 38.4885 32.8125 38.2812 32.8125Z" fill="#BED2E3"/>
</svg>
