<svg width="58" height="42" viewBox="0 0 58 42" fill="none" xmlns="http://www.w3.org/2000/svg">
  <path d="M57.9918 21.9499C57.8161 18.1405 54.6938 15.0187 50.8836 14.8431C50.45 14.8233 50.0216 14.8421 49.6008 14.894V11.6579C49.6008 5.26469 44.3995 0.0634766 38.0064 0.0634766H19.9923C17.4433 0.0634766 15.0247 0.875253 12.9983 2.4109C12.6244 2.69433 12.5509 3.22721 12.8343 3.60115C13.1176 3.97498 13.6506 4.04861 14.0245 3.76518C15.7532 2.45519 17.8169 1.7627 19.9923 1.7627H38.0064C43.4626 1.7627 47.9015 6.20164 47.9015 11.6579V15.3093C46.9738 15.6581 46.1169 16.1941 45.376 16.9018C44.0169 18.2 43.217 19.9103 43.0867 21.7637C41.964 20.9555 40.6033 20.5004 39.1904 20.5004H18.8091C17.3965 20.5004 16.0357 20.9555 14.913 21.7636C14.7826 19.9099 13.9827 18.1994 12.6237 16.9014C11.8827 16.1938 11.0261 15.6577 10.0984 15.3089V11.6579C10.0984 9.61879 10.7136 7.66117 11.8776 5.99694C12.1466 5.61247 12.0529 5.08276 11.6683 4.81383C11.2838 4.54501 10.7542 4.6387 10.4852 5.02317C9.12057 6.97434 8.39919 9.26863 8.39919 11.6579V14.8939C7.97812 14.842 7.54947 14.8232 7.11548 14.8431C3.30537 15.0185 0.183437 18.1404 0.00819044 21.9506C-0.0866263 24.0135 0.644381 25.9696 2.06652 27.4588C3.29166 28.7416 4.88383 29.5283 6.6175 29.7221V35.1965C6.6175 36.3667 7.28235 37.3839 8.25374 37.892V39.2071C8.25374 40.7123 9.47843 41.937 10.9837 41.937H11.9782C13.4835 41.937 14.7082 40.7123 14.7082 39.2071V38.237H43.2915V39.2071C43.2915 40.7123 44.5162 41.937 46.0215 41.937H47.016C48.5213 41.937 49.7459 40.7123 49.7459 39.2071V37.892C50.717 37.3838 51.3817 36.3667 51.3817 35.1968V29.7215C51.8167 29.6721 52.2453 29.5847 52.6629 29.4597C53.1124 29.3252 53.3678 28.8517 53.2334 28.4022C53.0989 27.9527 52.6258 27.6974 52.1759 27.8318C51.6469 27.99 51.0938 28.0702 50.5321 28.0702C50.0628 28.0702 49.6824 28.4506 49.6824 28.9198V35.1968C49.6824 35.9352 49.0825 36.5361 48.3445 36.5379H44.7649V22.3018C44.7649 20.7112 45.3988 19.2298 46.5497 18.1305C47.7 17.0319 49.2112 16.4664 50.8056 16.5405C53.7478 16.6761 56.1589 19.0866 56.2945 22.0279C56.3679 23.634 55.796 25.153 54.6842 26.3053C54.3584 26.643 54.3679 27.1808 54.7056 27.5066C55.0433 27.8324 55.5811 27.8228 55.9069 27.4852C57.3464 25.9934 58.0868 24.0278 57.9918 21.9499ZM18.8091 22.1996H39.1904C40.6968 22.1996 42.126 22.8913 43.0655 24.0614V32.0629H14.9342V24.0611C15.8739 22.8912 17.3028 22.1996 18.8091 22.1996ZM7.46711 28.0699C5.87618 28.0699 4.39457 27.4361 3.2954 26.2851C2.19691 25.1349 1.63231 23.6232 1.7056 22.0287C1.84086 19.0865 4.2515 16.6759 7.19354 16.5405C8.78786 16.4664 10.2998 17.0317 11.4501 18.1302C12.601 19.2295 13.235 20.7111 13.235 22.302V36.5378H9.65809C8.91848 36.5378 8.31672 35.936 8.31672 35.1964V28.9195C8.31672 28.4503 7.93632 28.0699 7.46711 28.0699ZM13.0089 39.2069C13.0089 39.7753 12.5464 40.2377 11.9781 40.2377H10.9836C10.4153 40.2377 9.95285 39.7753 9.95285 39.2069V38.2369H13.0089V39.2069ZM43.0654 36.5377H14.9342V33.7621H43.0654V36.5377ZM47.0159 40.2377H46.0214C45.4531 40.2377 44.9907 39.7753 44.9907 39.2069V38.237H48.0465V39.2069C48.0465 39.7754 47.5842 40.2377 47.0159 40.2377Z" fill="#BED2E3"/>
  <path d="M18.7164 8.70752C18.2472 8.70752 17.8668 9.08792 17.8668 9.55713V11.043H16.3809C15.9116 11.043 15.5312 11.4234 15.5312 11.8926C15.5312 12.3619 15.9116 12.7423 16.3809 12.7423H17.8668V14.2282C17.8668 14.6974 18.2472 15.0778 18.7164 15.0778C19.1856 15.0778 19.566 14.6974 19.566 14.2282V12.7423H21.052C21.5212 12.7423 21.9016 12.3619 21.9016 11.8926C21.9016 11.4234 21.5212 11.043 21.052 11.043H19.566V9.55713C19.566 9.08792 19.1856 8.70752 18.7164 8.70752Z" fill="#BED2E3"/>
  <path d="M29.0016 8.70752C28.5324 8.70752 28.152 9.08792 28.152 9.55713V11.043H26.666C26.1968 11.043 25.8164 11.4234 25.8164 11.8926C25.8164 12.3619 26.1968 12.7423 26.666 12.7423H28.1519V14.2282C28.1519 14.6974 28.5323 15.0778 29.0015 15.0778C29.4707 15.0778 29.8511 14.6974 29.8511 14.2282V12.7423H31.3371C31.8063 12.7423 32.1867 12.3619 32.1867 11.8926C32.1867 11.4234 31.8063 11.043 31.3371 11.043H29.8511V9.55713C29.8513 9.08792 29.4709 8.70752 29.0016 8.70752Z" fill="#BED2E3"/>
  <path d="M39.2828 8.70703C38.8136 8.70703 38.4332 9.08743 38.4332 9.55664V11.0425H36.9473C36.4781 11.0425 36.0977 11.4229 36.0977 11.8922C36.0977 12.3614 36.4781 12.7418 36.9473 12.7418H38.4332V14.2277C38.4332 14.6969 38.8136 15.0773 39.2828 15.0773C39.752 15.0773 40.1324 14.6969 40.1324 14.2277V12.7418H41.6184C42.0876 12.7418 42.468 12.3614 42.468 11.8922C42.468 11.4229 42.0876 11.0425 41.6184 11.0425H40.1324V9.55664C40.1324 9.08743 39.752 8.70703 39.2828 8.70703Z" fill="#BED2E3"/>
  <path d="M50.8441 18.4731C48.731 18.4731 47.0117 20.1924 47.0117 22.3056C47.0117 24.4187 48.731 26.138 50.8441 26.138C52.9573 26.138 54.6766 24.4188 54.6766 22.3056C54.6766 20.1923 52.9573 18.4731 50.8441 18.4731ZM50.8441 24.4387C49.6679 24.4387 48.7109 23.4818 48.7109 22.3055C48.7109 21.1291 49.6679 20.1723 50.8441 20.1723C52.0203 20.1723 52.9773 21.1293 52.9773 22.3055C52.9773 23.4817 52.0203 24.4387 50.8441 24.4387Z" fill="#BED2E3"/>
  <path d="M11.2976 22.3056C11.2976 20.1924 9.57838 18.4731 7.46523 18.4731C5.35208 18.4731 3.63281 20.1924 3.63281 22.3056C3.63281 24.4187 5.35197 26.138 7.46523 26.138C9.57849 26.138 11.2976 24.4187 11.2976 22.3056ZM7.46523 24.4387C6.28903 24.4387 5.33203 23.4818 5.33203 22.3055C5.33203 21.1291 6.28892 20.1723 7.46523 20.1723C8.64154 20.1723 9.59843 21.1293 9.59843 22.3055C9.59843 23.4817 8.64143 24.4387 7.46523 24.4387Z" fill="#BED2E3"/>
</svg>
