<svg width="18" height="18" viewBox="0 0 18 18" xmlns="http://www.w3.org/2000/svg">
<path fill-rule="evenodd" clip-rule="evenodd" d="M2.62129 9C2.62443 9.00367 2.62759 9.00736 2.63076 9.01106C2.9173 9.34499 3.34991 9.79323 3.92592 10.2407C5.07741 11.1354 6.76298 12 9 12C11.237 12 12.9226 11.1354 14.0741 10.2407C14.6501 9.79323 15.0827 9.34499 15.3692 9.01106C15.3724 9.00736 15.3756 9.00367 15.3787 9C15.3756 8.99633 15.3724 8.99264 15.3692 8.98894C15.0827 8.65501 14.6501 8.20677 14.0741 7.75926C12.9226 6.86463 11.237 6 9 6C6.76298 6 5.07741 6.86463 3.92592 7.75926C3.34991 8.20677 2.9173 8.65501 2.63076 8.98894C2.62759 8.99264 2.62443 8.99633 2.62129 9ZM16.7228 9C17.6757 8.49613 17.6755 8.49575 17.6752 8.49535L17.6747 8.49447L17.6733 8.49245L17.67 8.4873L17.6604 8.47268C17.6526 8.46104 17.6423 8.44565 17.6293 8.42678C17.6034 8.38903 17.567 8.33724 17.5201 8.27342C17.4263 8.1459 17.29 7.96968 17.1109 7.76106C16.7539 7.34499 16.2212 6.79323 15.5101 6.24074C14.0873 5.13537 11.9115 4 9 4C6.08851 4 3.9127 5.13537 2.48994 6.24074C1.77882 6.79323 1.24608 7.34499 0.889057 7.76106C0.710042 7.96968 0.573742 8.1459 0.479946 8.27342C0.433008 8.33724 0.396594 8.38903 0.370682 8.42678C0.357723 8.44565 0.347379 8.46104 0.339648 8.47268L0.330006 8.4873L0.326651 8.49245L0.32534 8.49447L0.324776 8.49535C0.324519 8.49575 0.324273 8.49613 1.27724 9L0.324776 8.49535L0 9L0.324273 9.50387L1.27724 9C0.324273 9.50387 0.324016 9.50347 0.324273 9.50387L0.32534 9.50553L0.326651 9.50755L0.330006 9.5127L0.339648 9.52732C0.347379 9.53896 0.357723 9.55435 0.370682 9.57322C0.396594 9.61097 0.433008 9.66276 0.479946 9.72657C0.573742 9.8541 0.710042 10.0303 0.889057 10.2389C1.24608 10.655 1.77882 11.2068 2.48994 11.7593C3.9127 12.8646 6.08851 14 9 14C11.9115 14 14.0873 12.8646 15.5101 11.7593C16.2212 11.2068 16.7539 10.655 17.1109 10.2389C17.29 10.0303 17.4263 9.8541 17.5201 9.72657C17.567 9.66276 17.6034 9.61097 17.6293 9.57322C17.6423 9.55435 17.6526 9.53896 17.6604 9.52732L17.67 9.5127L17.6733 9.50755L17.6747 9.50553L17.6752 9.50465C17.6755 9.50425 17.6757 9.50387 16.7228 9ZM16.7228 9L17.6752 9.50465L18 9L17.6752 8.49535L16.7228 9Z"/>
<path d="M11 9C11 10.1046 10.1046 11 9 11C7.89543 11 7 10.1046 7 9C7 7.89543 7.89543 7 9 7C10.1046 7 11 7.89543 11 9Z"/>
</svg>
