<svg width="26" height="16" viewBox="0 0 26 16" xmlns="http://www.w3.org/2000/svg">
  <path fill-rule="evenodd" clip-rule="evenodd" d="M23.1427 11.2157C23.1427 11.2157 25.2448 13.4504 25.7648 14.4845C25.775 14.4994 25.7829 14.516 25.7882 14.5335C26.0001 14.9155 26.0521 15.215 25.9481 15.4361C25.7726 15.8013 25.1785 15.9846 24.977 16H21.2616C21.0029 16 20.4647 15.9272 19.8095 15.4403C19.309 15.0638 18.8111 14.4439 18.3288 13.838C17.6086 12.9383 16.9859 12.1574 16.3554 12.1574C16.2758 12.1572 16.1967 12.1714 16.1214 12.1994C15.6443 12.3617 15.0385 13.0936 15.0385 15.0429C15.0385 15.653 14.5913 16 14.278 16H12.5763C11.9965 16 8.97793 15.7817 6.30122 12.7437C3.02132 9.02431 0.0755171 1.56306 0.0469171 1.49729C-0.136383 1.01452 0.248417 0.751443 0.664418 0.751443H4.41622C4.91932 0.751443 5.08312 1.07889 5.19752 1.37275C5.33012 1.70999 5.82152 3.05895 6.62752 4.57443C7.93273 7.04006 8.73483 8.04338 9.37573 8.04338C9.49614 8.04376 9.61451 8.00997 9.71893 7.94543C10.5561 7.45006 10.4001 4.23159 10.3611 3.56831C10.3611 3.43957 10.3598 2.13119 9.93083 1.49869C9.62403 1.0453 9.10143 0.868987 8.78553 0.804618C8.87003 0.67308 9.04943 0.471576 9.27953 0.352632C9.85283 0.0447785 10.8889 0 11.9172 0H12.4879C13.6033 0.016792 13.8919 0.0937553 14.2975 0.204303C15.1139 0.414203 15.1295 0.983733 15.058 2.92321C15.0372 3.47735 15.0151 4.10145 15.0151 4.8361C15.0151 4.99283 15.0086 5.16774 15.0086 5.34546C14.9839 6.34039 14.9514 7.46126 15.604 7.92164C15.6887 7.97839 15.7864 8.00845 15.8861 8.0084C16.1123 8.0084 16.7896 8.0084 18.6265 4.61501C19.4325 3.11632 20.0565 1.34896 20.0994 1.21602C20.1358 1.14186 20.245 0.933356 20.3776 0.849396C20.472 0.795375 20.5776 0.76839 20.6844 0.771034H25.0979C25.5789 0.771034 25.9052 0.849397 25.9689 1.0453C26.0755 1.36295 25.9481 2.33269 23.9331 5.2657C23.5938 5.75407 23.2961 6.17667 23.0348 6.54609C21.2083 9.12646 21.2083 9.2566 23.1427 11.2157Z"/>
</svg>
