<svg width="26" height="26" viewBox="0 0 26 26" fill="none" xmlns="http://www.w3.org/2000/svg">
<path fill-rule="evenodd" clip-rule="evenodd" d="M13 23.1111C18.5842 23.1111 23.1111 18.5842 23.1111 13C23.1111 7.41579 18.5842 2.88889 13 2.88889C7.41579 2.88889 2.88889 7.41579 2.88889 13C2.88889 18.5842 7.41579 23.1111 13 23.1111ZM13 26C20.1797 26 26 20.1797 26 13C26 5.8203 20.1797 0 13 0C5.8203 0 0 5.8203 0 13C0 20.1797 5.8203 26 13 26Z" fill="#BED2E3"/>
<path d="M11.5556 10.1111H14.4444V20.2222H11.5556V10.1111Z" fill="#BED2E3"/>
<path d="M11.5556 5.77778H14.4444V8.66667H11.5556V5.77778Z" fill="#BED2E3"/>
<path d="M15.8889 17.3333V20.2222H10.1111V17.3333H15.8889Z" fill="#BED2E3"/>
<path d="M14.4444 10.1111V13H8.66667V10.1111H14.4444Z" fill="#BED2E3"/>
</svg>
