<svg width="55" height="55" viewBox="0 0 55 55" fill="none" xmlns="http://www.w3.org/2000/svg">
<path d="M38.3867 15.274C38.3867 15.0461 38.4773 14.8275 38.6384 14.6663C38.7996 14.5052 39.0182 14.4146 39.2461 14.4146C39.474 14.4146 39.6926 14.5052 39.8538 14.6663C40.0149 14.8275 40.1055 15.0461 40.1055 15.274C40.1069 16.0861 40.3897 16.8726 40.9058 17.4996C41.4219 18.1266 42.1393 18.5554 42.936 18.713C43.7326 18.8706 44.5593 18.7472 45.2752 18.3639C45.9911 17.9806 46.5521 17.361 46.8626 16.6106C47.1731 15.8602 47.2139 15.0254 46.9782 14.2483C46.7424 13.4712 46.2447 12.7998 45.5696 12.3483C44.8945 11.8969 44.0839 11.6934 43.2757 11.7725C42.4674 11.8515 41.7116 12.2082 41.1367 12.7818C40.9738 12.9336 40.7583 13.0163 40.5357 13.0123C40.3131 13.0084 40.1006 12.9182 39.9432 12.7608C39.7857 12.6033 39.6955 12.3909 39.6916 12.1682C39.6877 11.9456 39.7703 11.7301 39.9221 11.5672C40.7797 10.7096 41.9081 10.176 43.1151 10.0571C44.3221 9.93821 45.5329 10.2415 46.5413 10.9153C47.5497 11.5891 48.2933 12.5917 48.6454 13.7523C48.9974 14.9129 48.9362 16.1597 48.472 17.2802C48.0079 18.4006 47.1696 19.3255 46.1 19.8972C45.0304 20.4689 43.7957 20.6521 42.6062 20.4155C41.4167 20.1789 40.346 19.5371 39.5766 18.5996C38.8072 17.6621 38.3867 16.4868 38.3867 15.274ZM47.9716 22.4584C48.8022 22.4584 49.6141 22.7047 50.3047 23.1661C50.9953 23.6276 51.5336 24.2834 51.8514 25.0508C52.1693 25.8181 52.2524 26.6625 52.0904 27.4771C51.9284 28.2917 51.5284 29.04 50.9411 29.6273C50.3538 30.2146 49.6055 30.6146 48.7909 30.7766C47.9763 30.9387 47.1319 30.8555 46.3645 30.5377C45.5972 30.2198 44.9413 29.6816 44.4799 28.991C44.0184 28.3004 43.7721 27.4884 43.7721 26.6579C43.7736 25.5445 44.2166 24.4773 45.0038 23.69C45.791 22.9028 46.8583 22.4599 47.9716 22.4584ZM47.9716 24.1771C47.4812 24.1783 47.0022 24.3247 46.595 24.598C46.1878 24.8713 45.8707 25.2591 45.6838 25.7125C45.4969 26.1659 45.4486 26.6645 45.545 27.1453C45.6413 27.6262 45.8781 28.0676 46.2252 28.414C46.5724 28.7604 47.0144 28.9961 47.4955 29.0913C47.9765 29.1866 48.475 29.1371 48.928 28.9492C49.381 28.7613 49.7681 28.4433 50.0404 28.0355C50.3127 27.6276 50.4581 27.1482 50.4581 26.6579C50.4566 25.9994 50.1939 25.3684 49.7278 24.9034C49.2616 24.4383 48.6301 24.1771 47.9716 24.1771ZM35.1784 29.998C35.1784 29.3861 35.3598 28.7879 35.6998 28.2792C36.0397 27.7704 36.5229 27.3739 37.0882 27.1397C37.6535 26.9055 38.2756 26.8443 38.8757 26.9637C39.4758 27.083 40.0271 27.3777 40.4597 27.8103C40.8924 28.243 41.1871 28.7943 41.3064 29.3944C41.4258 29.9945 41.3645 30.6166 41.1304 31.1819C40.8962 31.7472 40.4997 32.2304 39.9909 32.5703C39.4822 32.9103 38.884 33.0917 38.2721 33.0917C37.4516 33.0917 36.6647 32.7658 36.0845 32.1856C35.5043 31.6054 35.1784 30.8185 35.1784 29.998ZM36.8971 29.998C36.8926 30.2708 36.9693 30.5389 37.1176 30.768C37.2659 30.9971 37.4791 31.1769 37.7299 31.2845C37.9807 31.3921 38.2578 31.4226 38.5261 31.3722C38.7943 31.3217 39.0414 31.1926 39.236 31.0013C39.4306 30.8099 39.5639 30.565 39.6188 30.2977C39.6737 30.0303 39.6479 29.7527 39.5445 29.5001C39.4412 29.2475 39.265 29.0314 39.0384 28.8793C38.8118 28.7272 38.5451 28.6459 38.2721 28.6459C37.9118 28.6473 37.5664 28.7895 37.3095 29.0421C37.0526 29.2947 36.9046 29.6377 36.8971 29.998ZM32.4971 48.125C32.4911 49.5726 31.911 50.9587 30.8842 51.9791C29.8573 52.9994 28.4676 53.5708 27.0201 53.5677H7.77005C6.32246 53.5708 4.93277 52.9994 3.90595 51.9791C2.87913 50.9587 2.29904 49.5726 2.29297 48.125V35.6412C2.29297 35.4133 2.38351 35.1947 2.54467 35.0335C2.70584 34.8724 2.92442 34.7818 3.15234 34.7818C3.38026 34.7818 3.59885 34.8724 3.76001 35.0335C3.92118 35.1947 4.01172 35.4133 4.01172 35.6412V48.125C4.01397 48.6163 4.11297 49.1024 4.30306 49.5554C4.49316 50.0084 4.77062 50.4196 5.11962 50.7654C5.46861 51.1112 5.8823 51.3849 6.33706 51.5708C6.79183 51.7567 7.27876 51.8513 7.77005 51.849H27.0201C27.5113 51.8513 27.9983 51.7567 28.453 51.5708C28.9078 51.3849 29.3215 51.1112 29.6705 50.7654C30.0195 50.4196 30.2969 50.0084 30.487 49.5554C30.6771 49.1024 30.7761 48.6163 30.7784 48.125V31.6651C30.7647 29.1103 29.7383 26.6652 27.9243 24.8662C26.1102 23.0672 23.6567 22.0612 21.1018 22.0688H13.6883C11.7945 22.0614 9.94042 22.6109 8.35646 23.6489C6.77251 24.6869 5.5286 26.1675 4.77943 27.9068C4.72786 28.05 4.49297 28.749 4.32109 29.3276C4.25728 29.5464 4.10915 29.7309 3.90931 29.8405C3.70947 29.9501 3.47427 29.9758 3.25547 29.912C3.03666 29.8482 2.85217 29.7001 2.74258 29.5002C2.63299 29.3004 2.60728 29.0652 2.67109 28.8464C2.87161 28.1589 3.15234 27.3454 3.16953 27.311V27.2594C4.04995 25.2016 5.51718 23.4488 7.38793 22.22C9.25869 20.9911 11.45 20.3407 13.6883 20.35H20.9872V15.9672H13.8029V18.5969C13.8029 18.8248 13.7123 19.0434 13.5512 19.2046C13.39 19.3657 13.1714 19.4563 12.9435 19.4563C12.7156 19.4563 12.497 19.3657 12.3358 19.2046C12.1747 19.0434 12.0841 18.8248 12.0841 18.5969V15.1079C12.0841 14.8799 12.1747 14.6613 12.3358 14.5002C12.497 14.339 12.7156 14.2485 12.9435 14.2485H14.4216V8.02087C12.3508 8.08172 10.3805 8.92758 8.91016 10.387C8.27585 11.0105 7.422 11.3599 6.53255 11.3599C5.64311 11.3599 4.78925 11.0105 4.15495 10.387C3.84124 10.0774 3.59216 9.70852 3.42216 9.30185C3.25215 8.89518 3.16461 8.45879 3.16461 8.01801C3.16461 7.57723 3.25215 7.14084 3.42216 6.73417C3.59216 6.3275 3.84124 5.95864 4.15495 5.649C5.51088 4.29963 7.11973 3.23107 8.88934 2.50455C10.6589 1.77803 12.5545 1.40782 14.4674 1.41515H22.6258C23.2655 1.41513 23.8794 1.66809 24.3334 2.11887C24.7874 2.56964 25.0447 3.18164 25.0492 3.8214V5.59744C25.05 5.9159 24.9878 6.23137 24.8663 6.52574C24.7448 6.82011 24.5663 7.08756 24.3411 7.31275C24.1159 7.53794 23.8484 7.71642 23.5541 7.83794C23.2597 7.95946 22.9442 8.02163 22.6258 8.02087H20.3685V14.2485H21.8466C22.0745 14.2485 22.2931 14.339 22.4543 14.5002C22.6154 14.6613 22.706 14.8799 22.706 15.1079V20.4761C25.4116 20.8499 27.8916 22.1874 29.6903 24.2429C31.4889 26.2984 32.4856 28.9338 32.4971 31.6651V48.125ZM14.7023 6.30212H22.6258C22.7173 6.30364 22.8082 6.28702 22.8933 6.25322C22.9783 6.21942 23.0558 6.16911 23.1214 6.10519C23.1869 6.04128 23.2391 5.96502 23.275 5.88082C23.3109 5.79662 23.3297 5.70615 23.3305 5.61462V3.81567C23.3275 3.63129 23.2517 3.45557 23.1197 3.3268C22.9877 3.19803 22.8102 3.12663 22.6258 3.12817H14.456C12.7686 3.1249 11.0972 3.45413 9.53712 4.09703C7.97705 4.73993 6.55894 5.68391 5.3638 6.87504C5.21206 7.0248 5.09158 7.20321 5.00934 7.3999C4.92711 7.5966 4.88476 7.80768 4.88476 8.02087C4.88476 8.23407 4.92711 8.44515 5.00934 8.64184C5.09158 8.83854 5.21206 9.01695 5.3638 9.16671C5.67631 9.47186 6.09577 9.64268 6.53255 9.64268C6.96933 9.64268 7.38879 9.47186 7.7013 9.16671C8.62281 8.25264 9.71544 7.52916 10.9167 7.03764C12.118 6.54611 13.4044 6.29618 14.7023 6.30212ZM18.6497 14.2714V8.02087H16.1404V14.2485L18.6497 14.2714ZM3.15234 33.2865C3.37994 33.2851 3.59792 33.1946 3.75964 33.0344C3.80027 32.9958 3.83502 32.9514 3.86276 32.9026C3.89498 32.8582 3.9219 32.8101 3.94297 32.7594C3.97038 32.708 3.99338 32.6543 4.01172 32.599C4.01735 32.5418 4.01735 32.4843 4.01172 32.4271C4.01735 32.3719 4.01735 32.3162 4.01172 32.261C3.97338 32.0959 3.89238 31.9438 3.77682 31.8198C3.61224 31.6656 3.39511 31.5797 3.16953 31.5797C2.94395 31.5797 2.72682 31.6656 2.56224 31.8198C2.52127 31.8597 2.48477 31.9038 2.45339 31.9516C2.42108 31.998 2.39417 32.048 2.37318 32.1006C2.34929 32.1512 2.33381 32.2054 2.32734 32.261C2.32171 32.3162 2.32171 32.3719 2.32734 32.4271C2.32734 32.655 2.41788 32.8736 2.57905 33.0348C2.74021 33.196 2.9588 33.2865 3.18672 33.2865H3.15234ZM27.381 33.0401C27.381 33.2681 27.4715 33.4866 27.6327 33.6478C27.7939 33.809 28.0124 33.8995 28.2404 33.8995C28.4683 33.8995 28.6869 33.809 28.848 33.6478C29.0092 33.4866 29.0997 33.2681 29.0997 33.0401C29.0891 30.5102 28.0751 28.0878 26.2802 26.3047C24.4853 24.5217 22.0563 23.5236 19.5263 23.5297C19.2984 23.5297 19.0798 23.6203 18.9186 23.7814C18.7575 23.9426 18.6669 24.1612 18.6669 24.3891C18.6669 24.617 18.7575 24.8356 18.9186 24.9968C19.0798 25.1579 19.2984 25.2485 19.5263 25.2485C21.6005 25.2424 23.5923 26.0593 25.0649 27.5201C26.5374 28.9808 27.3704 30.966 27.381 33.0401ZM6.75599 42.2068C6.52807 42.2068 6.30948 42.2974 6.14832 42.4585C5.98716 42.6197 5.89661 42.8383 5.89661 43.0662V46.1657C5.89961 46.6888 6.0058 47.2062 6.20911 47.6882C6.41242 48.1702 6.70885 48.6073 7.0814 48.9745C7.45396 49.3418 7.89532 49.6319 8.3802 49.8282C8.86507 50.0246 9.38393 50.1233 9.90703 50.1188H12.869C13.0969 50.1188 13.3155 50.0282 13.4767 49.8671C13.6378 49.7059 13.7284 49.4873 13.7284 49.2594C13.7284 49.0315 13.6378 48.8129 13.4767 48.6517C13.3155 48.4906 13.0969 48.4 12.869 48.4H9.87838C9.28222 48.4031 8.70918 48.1696 8.28494 47.7507C7.8607 47.3318 7.61991 46.7618 7.61536 46.1657V43.0547C7.61536 42.8268 7.52482 42.6082 7.36366 42.4471C7.2025 42.2859 6.98391 42.1954 6.75599 42.1954V42.2068ZM44.9982 49.5802C45.2261 49.5802 45.4447 49.4897 45.6058 49.3285C45.767 49.1674 45.8575 48.9488 45.8575 48.7209C45.8575 48.493 45.767 48.2744 45.6058 48.1132C45.4447 47.952 45.2261 47.8615 44.9982 47.8615H37.2867C37.0588 47.8615 36.8402 47.952 36.679 48.1132C36.5179 48.2744 36.4273 48.493 36.4273 48.7209C36.4273 48.9488 36.5179 49.1674 36.679 49.3285C36.8402 49.4897 37.0588 49.5802 37.2867 49.5802H44.9982ZM46.3159 35.5209H35.5221C35.2942 35.5209 35.0756 35.6114 34.9145 35.7726C34.7533 35.9337 34.6628 36.1523 34.6628 36.3802C34.6628 36.6082 34.7533 36.8268 34.9145 36.9879C35.0756 37.1491 35.2942 37.2396 35.5221 37.2396H46.3159C47.5675 37.2411 48.7673 37.739 49.6523 38.624C50.5373 39.509 51.0352 40.7089 51.0367 41.9605V47.1167C51.0352 48.3688 50.5375 49.5693 49.6527 50.4552C48.7679 51.3411 47.568 51.8402 46.3159 51.8433H35.5221C34.8505 51.844 34.1864 51.7014 33.5742 51.425C33.3682 51.3394 33.137 51.3373 32.9294 51.4191C32.7219 51.5008 32.5542 51.6601 32.462 51.8632C32.3697 52.0663 32.3601 52.2974 32.4351 52.5075C32.51 52.7176 32.6638 52.8903 32.8638 52.9891C33.6987 53.368 34.6052 53.5633 35.5221 53.562H46.3159C48.0233 53.5605 49.6604 52.8816 50.8677 51.6742C52.075 50.4669 52.7539 48.8299 52.7555 47.1224V41.9662C52.7555 40.2578 52.0772 38.6193 50.8697 37.4107C49.6622 36.2021 48.0243 35.5224 46.3159 35.5209Z" fill="#BED2E3"/>
</svg>
