<svg width="18" height="18" viewBox="0 0 18 18" xmlns="http://www.w3.org/2000/svg">
<path d="M1.42405 16.576C1.8759 17.0284 2.4127 17.3872 3.00363 17.6315C3.59455 17.8759 4.22794 18.0011 4.8674 18C5.50701 18.0011 6.14054 17.8759 6.73161 17.6315C7.32269 17.3871 7.85967 17.0284 8.31173 16.576L11.0664 13.8204L9.68907 12.4432L6.93439 15.1987C6.38547 15.7451 5.64245 16.0519 4.86789 16.0519C4.09333 16.0519 3.35031 15.7451 2.80139 15.1987C2.25445 14.65 1.94733 13.907 1.94733 13.1323C1.94733 12.3576 2.25445 11.6145 2.80139 11.0659L5.55705 8.31134L4.17971 6.93406L1.42405 9.68861C0.512128 10.6027 0 11.8411 0 13.1323C0 14.4234 0.512128 15.6619 1.42405 16.576ZM16.5768 8.31134C17.4882 7.397 18 6.15865 18 4.86766C18 3.57666 17.4882 2.33832 16.5768 1.42398C15.6626 0.512103 14.4241 0 13.1329 0C11.8417 0 10.6032 0.512103 9.68907 1.42398L6.93439 4.17951L8.31173 5.55678L11.0664 2.80126C11.6153 2.25482 12.3584 1.94804 13.1329 1.94804C13.9075 1.94804 14.6505 2.25482 15.1994 2.80126C15.7464 3.3499 16.0535 4.09298 16.0535 4.86766C16.0535 5.64234 15.7464 6.38542 15.1994 6.93406L12.4438 9.68861L13.8211 11.0659L16.5768 8.31134Z" />
<path d="M5.42915 14L4 12.5717L12.5719 4L14 5.42929L5.42915 14Z" />
</svg>
