<svg width="52" height="52" viewBox="0 0 52 52" fill="none" xmlns="http://www.w3.org/2000/svg">
  <g clip-path="url(#clip0)">
    <path d="M7.18967 42.8818C6.87948 43.1925 6.87948 43.6951 7.18967 44.0059C7.71301 44.5361 8.26551 45.0371 8.84399 45.5064C9.15418 45.8171 9.6579 45.8176 9.96861 45.5069C10.2793 45.1962 10.2799 44.693 9.96914 44.3823C9.94846 44.3616 9.92672 44.342 9.90392 44.324L9.8509 44.2816C9.32067 43.8415 8.79044 43.3696 8.30262 42.8818C7.99403 42.5785 7.49879 42.5785 7.18967 42.8818Z" fill="#BED2E3"/>
    <path d="M0.833971 24.5149H0.934715C1.33716 24.5149 1.67651 24.2148 1.72476 23.815C1.8096 23.1257 1.92625 22.4311 2.07471 21.7577C2.23855 21.3499 2.04131 20.887 1.63356 20.7232C1.22581 20.5593 0.76292 20.7566 0.599079 21.1643C0.565674 21.247 0.546586 21.3351 0.542344 21.4241C0.383275 22.1506 0.261322 22.8876 0.171182 23.6246C0.113917 24.0514 0.408196 24.447 0.833971 24.5149Z" fill="#BED2E3"/>
    <path d="M3.72479 38.0941C3.34727 38.3184 3.22319 38.8067 3.44801 39.1842C3.44854 39.1848 3.44907 39.1858 3.44907 39.1864C3.83084 39.8226 4.24442 40.4483 4.68451 41.0475C4.95599 41.3927 5.456 41.4531 5.80118 41.1816C6.12992 40.9234 6.20256 40.4547 5.96767 40.109C5.55939 39.5469 5.17232 38.9637 4.81707 38.3698C4.59278 37.9923 4.10444 37.8682 3.72691 38.093C3.72638 38.093 3.72532 38.0936 3.72479 38.0941Z" fill="#BED2E3"/>
    <path d="M1.48897 32.5848C1.07168 32.7126 0.834664 33.1527 0.958738 33.571C1.17083 34.2815 1.41474 34.992 1.69046 35.6919C1.85589 36.1061 2.3262 36.3081 2.74031 36.1426C3.15442 35.9772 3.35644 35.5069 3.19101 35.0928C2.9365 34.4512 2.7032 33.7884 2.50701 33.1203C2.37923 32.703 1.93913 32.466 1.52078 32.5901L1.48897 32.5848Z" fill="#BED2E3"/>
    <path d="M2.13138 18.714C2.53913 18.8768 3.00202 18.678 3.1648 18.2702C3.1648 18.2697 3.16533 18.2692 3.16533 18.2686C3.41507 17.6191 3.6998 16.9834 4.019 16.3651C4.21678 15.9727 4.05877 15.4945 3.6664 15.2967C3.27403 15.0989 2.79576 15.2569 2.59798 15.6493C2.26394 16.3121 1.9564 16.9961 1.68599 17.6907C1.5301 18.0963 1.7284 18.5518 2.13138 18.714Z" fill="#BED2E3"/>
    <path d="M0.93904 30.4479H1.0716C1.50745 30.3928 1.81604 29.9951 1.76143 29.5593C1.76143 29.5587 1.76143 29.5577 1.7609 29.5571C1.67606 28.8678 1.61774 28.1679 1.59122 27.4786C1.57532 27.0396 1.20575 26.6965 0.766715 26.7124C0.327684 26.7284 -0.0153754 27.0979 0.00053156 27.537C0.0127269 28.2825 0.0731732 29.0264 0.18081 29.7639C0.234363 30.1457 0.554092 30.4336 0.93904 30.4479Z" fill="#BED2E3"/>
    <path d="M19.9122 4.20176H20.066C20.75 4.0692 21.4446 3.96845 22.1339 3.89952C22.5756 3.88468 22.9223 3.51458 22.9075 3.07289C22.8926 2.63121 22.5225 2.28444 22.0808 2.29929C22.0469 2.30035 22.0135 2.30353 21.9801 2.30883C21.2431 2.38306 20.5008 2.48911 19.769 2.63227C19.3268 2.64341 18.9774 3.01086 18.9885 3.45254C18.9997 3.89475 19.3671 4.24417 19.8088 4.23304C19.8449 4.23198 19.8815 4.2288 19.917 4.22296L19.9122 4.20176Z" fill="#BED2E3"/>
    <path d="M5.23426 13.5712C5.49036 13.5722 5.73109 13.4497 5.88114 13.2424C6.28942 12.6804 6.72421 12.1289 7.18021 11.6093C7.48562 11.2896 7.47343 10.7827 7.1537 10.4773C6.83397 10.1718 6.32707 10.184 6.02166 10.5038C6.00787 10.5181 5.99461 10.5335 5.98189 10.5488C5.49408 11.0791 5.02747 11.6941 4.59268 12.2986C4.33499 12.6544 4.41453 13.1517 4.77031 13.4094C4.90552 13.507 5.06777 13.56 5.23426 13.5605V13.5712Z" fill="#BED2E3"/>
    <path d="M27.851 4.03201H27.973C28.412 4.06435 28.7943 3.73402 28.8267 3.29499C28.859 2.85596 28.5287 2.47366 28.0896 2.44132C27.3579 2.32997 26.6103 2.25043 25.868 2.20801C25.4289 2.1815 25.0514 2.51661 25.0249 2.95564C24.9984 3.39467 25.3335 3.7722 25.7725 3.79871C26.4724 3.85173 27.167 3.92596 27.851 4.03201Z" fill="#BED2E3"/>
    <path d="M9.79364 9.06381C10.3239 8.61841 10.8859 8.19423 11.4586 7.80186C11.8122 7.54151 11.888 7.04363 11.6277 6.68996C11.379 6.35221 10.9103 6.26578 10.5572 6.49219C9.9474 6.91107 9.34825 7.36707 8.7756 7.83897C8.43731 8.12 8.39118 8.62212 8.6722 8.96041C8.95322 9.2987 9.45535 9.34483 9.79364 9.06381Z" fill="#BED2E3"/>
    <path d="M14.2796 6.04713C14.3973 6.04607 14.5129 6.01903 14.6189 5.9676C15.2446 5.67067 15.8915 5.40025 16.5437 5.16165C16.961 5.02432 17.1874 4.57468 17.05 4.15739C16.9222 3.77032 16.523 3.54232 16.1248 3.62928L16.0134 3.6664C15.3119 3.9156 14.6253 4.20405 13.9561 4.53067C13.5579 4.71572 13.3851 5.18922 13.5707 5.58742C13.7016 5.86898 13.9848 6.04872 14.2955 6.04713H14.2796Z" fill="#BED2E3"/>
    <path d="M23.7817 49.4941C23.3427 49.4825 22.9768 49.8292 22.9651 50.2683C22.9535 50.7073 23.3002 51.0732 23.7393 51.0848H24.4021C24.9323 51.0848 25.4625 51.0848 25.9609 51.0371C26.4 51.0095 26.7335 50.6304 26.7059 50.1914C26.6783 49.7524 26.2992 49.4188 25.8602 49.4464C25.1688 49.4989 24.4747 49.5148 23.7817 49.4941Z" fill="#BED2E3"/>
    <path d="M46.4405 35.3369C46.8541 35.4854 47.3096 35.2701 47.4575 34.8571C47.4581 34.856 47.4581 34.8555 47.4586 34.8544C47.7078 34.1545 47.9252 33.4387 48.1108 32.7335C48.2423 32.3146 48.0095 31.8682 47.5901 31.7361C47.1707 31.6041 46.7247 31.8374 46.5927 32.2568C46.5821 32.2913 46.5736 32.3268 46.5673 32.3623C46.3976 33.0357 46.1908 33.7038 45.9575 34.356C45.8329 34.759 46.045 35.1901 46.4405 35.3369Z" fill="#BED2E3"/>
    <path d="M47.7321 23.5708H47.8646C48.2978 23.5003 48.5921 23.092 48.5221 22.6588C48.4001 21.9271 48.2464 21.1901 48.0608 20.4743C47.9335 20.0538 47.4897 19.8157 47.0693 19.943C46.6705 20.0633 46.4325 20.4711 46.5231 20.8772C46.6981 21.5453 46.8413 22.2346 46.9579 22.9186C47.0263 23.2935 47.3513 23.5671 47.7321 23.5708Z" fill="#BED2E3"/>
    <path d="M48.3505 2.26633L39.9039 4.82204L37.0619 1.80503C36.3376 0.967266 35.1584 0.687834 34.135 1.11043H34.0873C33.3158 1.42804 32.7029 2.04098 32.3853 2.81247C32.3052 3.01396 32.2485 3.22393 32.2156 3.43814L31.8921 3.32679C31.4733 3.19211 31.0247 3.42223 30.89 3.84112C30.7553 4.26 30.9854 4.70857 31.4043 4.84325C31.8126 4.97581 32.2209 5.12427 32.6292 5.27804C32.7522 5.47052 32.8959 5.64814 33.0586 5.80827L36.0651 8.65031L35.2061 11.487C26.8046 5.49438 15.1363 7.44668 9.14311 15.8482C3.14991 24.2497 5.10275 35.9179 13.5043 41.9111C21.9058 47.9043 33.574 45.9515 39.5672 37.55C44.3462 30.8505 44.1792 21.8133 39.1563 15.2941L40.5137 12.8444L43.6633 15.8137L42.905 18.3217C42.8112 18.5953 42.8785 18.8986 43.08 19.1065C43.08 19.1065 44.6336 20.6441 44.6707 20.6972C45.036 20.914 45.5074 20.7931 45.7243 20.4283C45.7264 20.4241 45.729 20.4204 45.7312 20.4161L47.8044 16.6144L51.5478 14.573C51.9359 14.3943 52.1061 13.9346 51.9269 13.5459C51.8893 13.4648 51.8384 13.3906 51.7758 13.3269L50.3813 11.8476C50.1798 11.6466 49.8845 11.5735 49.6124 11.6567L47.0779 12.4256L44.1087 9.27598L50.7737 5.56437C51.1618 5.38568 51.332 4.92597 51.1528 4.53731C51.1151 4.45618 51.0642 4.38195 51.0017 4.31832L49.1299 2.44661C48.9237 2.24671 48.6236 2.17725 48.3505 2.26633ZM12.3372 14.5783C15.5366 11.3805 19.8766 9.58723 24.4 9.59412C24.7536 9.59412 25.1068 9.60472 25.4604 9.62593C28.4668 12.399 27.5814 14.9282 25.5665 17.2082C24.3777 18.4691 23.102 19.6457 21.7488 20.729C19.7923 22.3939 17.9683 23.9475 17.279 25.501C16.4624 27.3462 17.0616 29.0165 20.3596 30.4746C22.0086 31.2063 22.9047 31.7737 23.2547 32.2032C23.3024 32.2615 23.3501 32.2032 23.3395 32.2032C23.3029 32.2058 23.2669 32.2148 23.2335 32.2297C22.4349 32.5335 21.585 32.6798 20.7308 32.6592C16.7328 32.8288 13.8855 30.2731 11.6744 28.2954C10.0837 26.8796 8.76347 25.7025 7.39017 25.6919C7.61446 21.5047 9.37588 17.547 12.3372 14.5783ZM41.4999 26.6569C41.4946 34.0526 36.7342 40.6063 29.7023 42.8979C29.505 41.655 29.7352 40.3825 30.3545 39.287C31.1949 37.9376 32.2723 36.752 33.5359 35.7875C38.4299 31.7047 38.7056 29.4247 38.9177 27.6697C39.0503 26.5615 39.151 25.7343 41.3408 24.5307C41.4283 25.2343 41.4729 25.9427 41.4734 26.6516L41.4999 26.6569ZM40.5084 20.9198C40.7454 21.5874 40.94 22.2693 41.0916 22.9612C37.7565 24.658 37.608 25.8669 37.4065 27.5159C37.2263 29.0006 36.993 30.9412 32.5708 34.6316C31.1546 35.7154 29.9499 37.0505 29.0183 38.5712C28.206 40.0071 27.9244 41.6837 28.2229 43.3062C19.025 45.4086 9.86422 39.6571 7.76133 30.4587C7.5206 29.4067 7.38062 28.3346 7.34245 27.2561C8.18551 27.2561 9.27779 28.2582 10.6193 29.4513C13.0477 31.6199 16.1549 34.3877 20.7838 34.2233C21.8745 34.2419 22.9572 34.0362 23.9652 33.6189C24.3899 33.4312 24.7117 33.0669 24.8454 32.622C24.9583 32.1257 24.8151 31.6061 24.4636 31.2381C23.9652 30.6284 22.8729 29.9073 20.9959 29.0695C18.753 28.078 18.2652 27.1129 18.7053 26.1267C19.2355 24.886 20.9429 23.4756 22.7563 21.8849C24.1693 20.7428 25.5002 19.5025 26.7383 18.1733C28.9547 15.6494 30.0947 12.8709 27.8412 9.88575C30.3455 10.3979 32.7018 11.469 34.7342 13.0194L33.5146 17.0439C33.4245 17.3196 33.4961 17.6223 33.7002 17.8286C33.7002 17.8286 35.678 19.7905 35.7416 19.8276C36.1069 20.0444 36.5783 19.9235 36.7952 19.5587C36.7973 19.5545 36.8 19.5508 36.8021 19.5465L38.345 16.7575C39.2544 18.0386 39.9824 19.4394 40.5084 20.9198ZM42.4808 8.4064C42.1054 8.60524 41.9628 9.07078 42.1616 9.44565C42.1654 9.45255 42.1691 9.45997 42.1733 9.46686C42.2051 9.52519 46.2614 13.8413 46.2614 13.8413C46.4623 14.0539 46.7667 14.134 47.0461 14.0481L49.6071 13.2739L50.0048 13.6716L47.6188 14.9919L46.9348 15.3312C46.7815 15.407 46.6585 15.5322 46.5848 15.6865L46.2455 16.3758L44.9252 18.7618L44.5381 18.3376L45.307 15.7978C45.3966 15.5004 45.298 15.178 45.0578 14.9813L40.8742 11.047C40.5741 10.7468 40.0874 10.7468 39.7873 11.047C39.7342 11.1053 35.9696 17.8869 35.9696 17.8869L35.1478 17.0651L37.7141 8.60789C37.8058 8.30884 37.7077 7.98381 37.4649 7.78603L34.1138 4.68418C33.7453 4.37188 33.6228 3.85649 33.8116 3.41163C33.9807 3.02615 34.2893 2.71968 34.6758 2.55266H34.7024C35.1414 2.38298 35.6398 2.51077 35.9431 2.87079L39.1245 6.23246C39.3244 6.4472 39.6287 6.52939 39.9092 6.44455L48.3929 3.88353L49.2148 4.70539L42.4808 8.4064Z" fill="#BED2E3"/>
    <path d="M45.5362 37.3359C45.1561 37.137 44.6873 37.2754 44.4758 37.6487C44.1417 38.2585 43.7759 38.8576 43.3835 39.4303C43.13 39.7903 43.217 40.2877 43.577 40.5411C43.9371 40.7946 44.4344 40.7076 44.6879 40.3476C45.1014 39.7325 45.4938 39.0909 45.8544 38.444C46.076 38.066 45.9503 37.5803 45.5733 37.3571L45.5362 37.3359Z" fill="#BED2E3"/>
    <path d="M48.7935 28.8679C48.8624 28.1309 48.8943 27.3833 48.8943 26.6409V26.5296C48.8916 26.0921 48.5363 25.7395 48.0989 25.7395C47.6599 25.7279 47.2945 26.0741 47.2829 26.5132C47.2829 26.5185 47.2829 26.5238 47.2824 26.5296C47.2824 26.5296 47.2824 26.5296 47.2824 26.5614V26.6515C47.2824 27.3461 47.2505 28.046 47.1869 28.7406C47.1471 29.1781 47.4695 29.5652 47.907 29.6049C47.9075 29.6049 47.9075 29.6049 47.908 29.6049H47.9823C48.4059 29.6145 48.7628 29.2905 48.7935 28.8679Z" fill="#BED2E3"/>
    <path d="M18.1235 48.6296C17.7094 48.4833 17.2545 48.7007 17.1081 49.1148C16.9618 49.5289 17.1792 49.9838 17.5933 50.1302H17.6887C18.3992 50.3317 19.131 50.5066 19.8627 50.6604H20.0111C20.4475 50.7314 20.859 50.435 20.93 49.9987C21.0011 49.5623 20.7047 49.1508 20.2683 49.0798C20.2322 49.0739 20.1962 49.0708 20.1601 49.0697C19.4724 48.9663 18.7921 48.8194 18.1235 48.6296Z" fill="#BED2E3"/>
    <path d="M31.5021 48.3858C30.8446 48.6064 30.1733 48.7835 29.4925 48.9161C29.0635 49.0126 28.7942 49.4389 28.8907 49.8678C28.9872 50.2968 29.4135 50.5661 29.8424 50.4696C30.5636 50.3053 31.29 50.1038 31.9952 49.8758C32.4072 49.7241 32.6182 49.2665 32.4666 48.8546C32.3229 48.4638 31.9024 48.2506 31.5021 48.3646V48.3858Z" fill="#BED2E3"/>
    <path d="M12.8532 46.3708C12.4889 46.1254 11.9948 46.2213 11.7493 46.5856C11.5038 46.9499 11.5997 47.444 11.964 47.6895C11.9905 47.7076 12.0186 47.724 12.0473 47.7383C12.6888 48.1148 13.3516 48.4647 14.025 48.7988C14.4232 48.986 14.8983 48.8152 15.0855 48.417C15.2727 48.0188 15.1019 47.5437 14.7037 47.3566C14.0727 47.0495 13.4524 46.7102 12.8532 46.3708Z" fill="#BED2E3"/>
    <path d="M41.0893 42.2832C40.6174 42.7959 40.1184 43.2827 39.594 43.7413C39.2658 44.034 39.2377 44.5372 39.5304 44.8654C39.8231 45.1936 40.3263 45.2217 40.6545 44.929C41.1847 44.4359 41.7468 43.911 42.2452 43.3702C42.5416 43.0457 42.5188 42.5425 42.1943 42.2466C41.8756 41.9555 41.383 41.9719 41.084 42.2832H41.0893Z" fill="#BED2E3"/>
    <path d="M36.678 45.9413C36.0948 46.3125 35.485 46.6624 34.87 47.0018C34.4792 47.2022 34.3249 47.6821 34.5253 48.0728C34.7257 48.4636 35.2056 48.6179 35.5964 48.4175C36.2539 48.0781 36.906 47.7017 37.5317 47.304C37.8965 47.059 37.9936 46.5654 37.7491 46.2006C37.5216 45.8618 37.0752 45.7499 36.7152 45.9413H36.678Z" fill="#BED2E3"/>
  </g>
  <defs>
    <clipPath id="clip0">
      <rect width="52" height="52" fill="white"/>
    </clipPath>
  </defs>
</svg>
